<?xml version="1.0" encoding="UTF-8" standalone="no"?>
<!-- Created with Inkscape (http://www.inkscape.org/) -->

<svg
   xmlns:osb="http://www.openswatchbook.org/uri/2009/osb"
   xmlns:dc="http://purl.org/dc/elements/1.1/"
   xmlns:cc="http://creativecommons.org/ns#"
   xmlns:rdf="http://www.w3.org/1999/02/22-rdf-syntax-ns#"
   xmlns:svg="http://www.w3.org/2000/svg"
   xmlns="http://www.w3.org/2000/svg"
   xmlns:sodipodi="http://sodipodi.sourceforge.net/DTD/sodipodi-0.dtd"
   xmlns:inkscape="http://www.inkscape.org/namespaces/inkscape"
   width="109.81921"
   height="84.608047"
   id="svg2"
   version="1.1"
   inkscape:version="0.48.2 r9819"
   sodipodi:docname="a.svg">
  <defs
     id="defs4">
    <linearGradient
       id="linearGradient5222"
       osb:paint="solid">
      <stop
         style="stop-color:#d14040;stop-opacity:1;"
         offset="0"
         id="stop5224" />
    </linearGradient>
    <linearGradient
       id="linearGradient3770"
       osb:paint="solid">
      <stop
         style="stop-color:#cea340;stop-opacity:1;"
         offset="0"
         id="stop3772" />
    </linearGradient>
    <filter
       inkscape:collect="always"
       id="filter5254"
       x="-0.10023763"
       width="1.2004753"
       y="-0.13350469"
       height="1.2670094">
      <feGaussianBlur
         inkscape:collect="always"
         stdDeviation="4.2271699"
         id="feGaussianBlur5256" />
    </filter>
  </defs>
  <sodipodi:namedview
     id="base"
     pagecolor="#ffffff"
     bordercolor="#666666"
     borderopacity="1.0"
     inkscape:pageopacity="0.0"
     inkscape:pageshadow="2"
     inkscape:zoom="8.6871169"
     inkscape:cx="54.909603"
     inkscape:cy="42.304024"
     inkscape:document-units="px"
     inkscape:current-layer="layer1"
     showgrid="false"
     fit-margin-top="0"
     fit-margin-left="0"
     fit-margin-right="0"
     fit-margin-bottom="0"
     inkscape:window-width="1680"
     inkscape:window-height="954"
     inkscape:window-x="-8"
     inkscape:window-y="-8"
     inkscape:window-maximized="1" />
  <metadata
     id="metadata7">
    <rdf:RDF>
      <cc:Work
         rdf:about="">
        <dc:format>image/svg+xml</dc:format>
        <dc:type
           rdf:resource="http://purl.org/dc/dcmitype/StillImage" />
        <dc:title />
      </cc:Work>
    </rdf:RDF>
  </metadata>
  <g
     inkscape:label="Calque 1"
     inkscape:groupmode="layer"
     id="layer1"
     transform="translate(-142.8411,-350.62839)">
    <path
       style="fill:#ff80b2;fill-rule:evenodd;stroke:#ea3865;stroke-width:8.60000038;stroke-linecap:butt;stroke-linejoin:bevel;stroke-miterlimit:4;stroke-opacity:1;stroke-dasharray:none"
       d="m 157.67463,363.42638 67.57424,-8.37917 c 9.01147,-1.11741 24.24657,7.68138 23.03641,18.40975 L 243.678,414.3016 c -0.98577,8.73901 -6.04636,17.17939 -11.8473,16.61421 l -67.57424,-6.58363 c -5.80093,-0.56517 -16.33914,-8.00096 -16.45458,-14.22016 l -0.65819,-35.45804 c -0.11544,-6.2192 4.7503,-10.51081 10.53094,-11.2276 z"
       id="rect2985"
       inkscape:connector-curvature="0"
       sodipodi:nodetypes="sssssssss" />
    <text
       xml:space="preserve"
       style="font-size:60.30599213px;font-style:normal;font-weight:normal;line-height:125%;letter-spacing:0px;word-spacing:0px;fill:#000000;fill-opacity:1;stroke:none;font-family:Bitstream Vera Sans"
       x="183.91928"
       y="398.81656"
       id="text2988"
       sodipodi:linespacing="125%"
       transform="scale(0.96698196,1.0341455)"><tspan
         sodipodi:role="line"
         id="tspan2990"
         x="183.91928"
         y="398.81656">A</tspan></text>
    <path
       sodipodi:nodetypes="sssssssss"
       inkscape:connector-curvature="0"
       id="path5228"
       d="m 157.67463,363.42638 67.57424,-8.37917 c 9.01147,-1.11741 24.24657,7.68138 23.03641,18.40975 L 243.678,414.3016 c -0.98577,8.73901 -6.04636,17.17939 -11.8473,16.61421 l -67.57424,-6.58363 c -5.80093,-0.56517 -16.33914,-8.00096 -16.45458,-14.22016 l -0.65819,-35.45804 c -0.11544,-6.2192 4.7503,-10.51081 10.53094,-11.2276 z"
       style="fill:#ff80b2;fill-rule:evenodd;stroke:#ea3865;stroke-width:8.59999999999999790;stroke-linecap:butt;stroke-linejoin:bevel;stroke-miterlimit:4;stroke-opacity:1;stroke-dasharray:none;opacity:1;filter:url(#filter5254)" />
    <g
       transform="scale(1.0516439,0.95089222)"
       style="font-size:52.54751587px;font-style:oblique;font-variant:normal;font-weight:normal;font-stretch:normal;text-align:start;line-height:125%;letter-spacing:0px;word-spacing:0px;writing-mode:lr-tb;text-anchor:start;fill:#e3dbe2;fill-opacity:1;stroke:none;font-family:Segoe Script;-inkscape-font-specification:Segoe Script Oblique"
       id="text5230">
      <path
         d="m 205.85756,426.42791 c -0.23311,0.68422 -0.65058,1.27007 -1.25243,1.75757 -0.60194,0.4875 -1.25354,0.73125 -1.95482,0.73125 -0.30794,0 -0.53244,-0.0684 -0.67352,-0.20526 -0.17537,-0.18816 -0.35471,-0.44046 -0.53802,-0.75691 -0.18338,-0.31645 -0.35631,-0.71414 -0.51877,-1.19309 -0.30152,-0.975 -0.53137,-1.99705 -0.68956,-3.06613 -0.15826,-1.06908 -0.26036,-2.01415 -0.30629,-2.83521 -0.004,-0.23946 -0.0201,-0.45756 -0.0473,-0.65427 -0.0273,-0.19671 -0.0516,-0.40197 -0.073,-0.6158 -0.0214,-0.2138 -0.0412,-0.44473 -0.0593,-0.69276 -0.0182,-0.24802 -0.0262,-0.55164 -0.0241,-0.91086 0.003,-1.47104 -0.0278,-2.43749 -0.093,-2.89935 -0.32076,0.23949 -0.61396,0.42337 -0.87959,0.55165 -0.2657,0.1283 -0.5327,0.22238 -0.80101,0.28223 -0.26837,0.0599 -0.53671,0.0941 -0.80501,0.10264 -0.26838,0.009 -0.5565,0.0128 -0.86436,0.0128 -0.17108,10e-6 -0.39639,0.0342 -0.67592,0.10263 -0.2796,0.0684 -0.58376,0.1454 -0.91247,0.23092 -0.32877,0.0855 -0.65591,0.17962 -0.98141,0.28224 -0.32557,0.10264 -0.62839,0.18817 -0.90846,0.25658 -0.93654,0.23948 -1.87306,0.4533 -2.80954,0.64145 -0.93654,0.18816 -1.89711,0.37205 -2.88171,0.55164 -0.98465,0.17962 -2.0091,0.35067 -3.07335,0.51316 -1.06429,0.16251 -2.19297,0.33784 -3.38605,0.52599 -0.54204,0.0855 -1.14286,0.41909 -1.80247,1.00066 -0.64788,0.59869 -2.00775,1.88159 -4.07961,3.8487 -2.0302,1.95 -3.67872,3.37829 -4.94558,4.28488 -1.24869,0.90658 -2.31777,1.35987 -3.20724,1.35987 -1.12896,0 -1.99384,-0.22237 -2.59467,-0.66711 -0.66924,-0.54737 -0.89963,-1.12895 -0.69116,-1.74474 0.11119,-0.325 0.37525,-0.5602 0.79219,-0.7056 0.41694,-0.14539 0.96217,-0.27795 1.6357,-0.39769 0.21167,-0.0171 0.82479,-0.43619 1.83935,-1.25724 0.96859,-0.78684 1.71961,-1.43685 2.25309,-1.95001 1.03807,-0.94079 2.1109,-1.94572 3.21847,-3.01481 1.10756,-1.06907 2.34983,-2.27072 3.72682,-3.60494 0.67672,-0.6842 1.27059,-1.27434 1.78163,-1.7704 0.511,-0.49604 0.93543,-0.91512 1.27328,-1.25724 0.35598,-0.3421 0.75635,-0.72696 1.20111,-1.15461 0.44472,-0.42762 0.95414,-0.90657 1.52825,-1.43685 0.25229,-0.23946 0.55617,-0.53025 0.91166,-0.87237 0.35545,-0.34209 0.76838,-0.72696 1.2388,-1.15461 0.47572,-0.44472 0.90442,-0.83814 1.28611,-1.18027 0.38163,-0.34208 0.71305,-0.64998 0.99424,-0.92368 0.29825,-0.27367 0.67537,-0.61577 1.13136,-1.02632 0.45594,-0.41051 0.99342,-0.89801 1.61244,-1.4625 0.19562,-0.17103 0.60187,-0.57301 1.21875,-1.20593 0.61684,-0.63287 1.4566,-1.50524 2.5193,-2.61711 1.49775,-1.59077 2.51712,-2.75393 3.05811,-3.48949 3.65194,-4.85787 5.98254,-7.28682 6.99179,-7.28686 0.4447,4e-5 0.79081,0.0385 1.03835,0.11546 0.24745,0.077 0.4177,0.2053 0.51075,0.38487 0.093,0.17965 0.11435,0.41912 0.0642,0.71843 -0.0503,0.29938 -0.14811,0.66286 -0.29347,1.09046 -0.0984,0.29083 -0.18553,0.5474 -0.26139,0.76974 -0.0759,0.2224 -0.14543,0.40201 -0.20847,0.53882 -0.11016,0.27372 -0.24646,0.62437 -0.40892,1.05197 -0.16254,0.42767 -0.35979,0.93227 -0.59174,1.51382 0.24478,1.79609 0.40033,3.72899 0.46665,5.7987 0.0384,1.04345 0.0652,2.18523 0.0802,3.42534 0.0149,1.24016 0.0176,2.60431 0.008,4.09245 -0.004,1.47107 0.005,2.72831 0.0265,3.77172 0.0219,1.04344 0.0419,1.89015 0.0601,2.54014 0.0192,0.65001 0.0531,1.39409 0.10183,2.23224 0.0486,0.83817 0.1237,1.78751 0.22531,2.84803 0.0374,0.39343 0.35596,1.34278 0.95576,2.84804 0.58367,1.50527 0.76488,2.5829 0.54363,3.2329 z m -6.21404,-15.16386 c 0.0128,-0.94077 0.024,-1.95426 0.0337,-3.04047 0.01,-1.08616 0.007,-2.17235 -0.009,-3.25856 -0.0155,-1.08616 -0.053,-2.13386 -0.11225,-3.1431 -0.0594,-1.00918 -0.15211,-1.90721 -0.27823,-2.69408 -1.39946,1.30003 -2.7302,2.54871 -3.99222,3.74606 -1.26208,1.19739 -2.4958,2.39904 -3.70116,3.60494 -1.20542,1.20595 -2.41241,2.44181 -3.62098,3.70758 -1.20862,1.26581 -2.45864,2.61713 -3.75007,4.05396 0.16461,0.0684 0.32391,0.10264 0.47788,0.10263 0.25655,1e-5 0.59305,-0.0214 1.00948,-0.0641 0.41638,-0.0427 0.84428,-0.0941 1.2837,-0.15394 0.43937,-0.0599 0.86326,-0.124 1.27167,-0.19244 0.40836,-0.0684 0.74085,-0.12827 0.99745,-0.1796 0.44578,-0.10262 0.82985,-0.18815 1.15221,-0.25658 0.3223,-0.0684 0.63206,-0.13683 0.9293,-0.20527 0.29717,-0.0684 0.6171,-0.1411 0.95977,-0.21809 0.34261,-0.077 0.7534,-0.16676 1.23238,-0.26941 1.07974,-0.25656 2.15203,-0.51742 3.21687,-0.78257 1.06477,-0.26511 2.03122,-0.51742 2.89935,-0.75691 z"
         style=""
         id="path2995" />
    </g>
  </g>
</svg>
