<?xml version="1.0" encoding="UTF-8" standalone="no"?>
<!-- Created with Inkscape (http://www.inkscape.org/) -->

<svg
   xmlns:osb="http://www.openswatchbook.org/uri/2009/osb"
   xmlns:dc="http://purl.org/dc/elements/1.1/"
   xmlns:cc="http://creativecommons.org/ns#"
   xmlns:rdf="http://www.w3.org/1999/02/22-rdf-syntax-ns#"
   xmlns:svg="http://www.w3.org/2000/svg"
   xmlns="http://www.w3.org/2000/svg"
   xmlns:sodipodi="http://sodipodi.sourceforge.net/DTD/sodipodi-0.dtd"
   xmlns:inkscape="http://www.inkscape.org/namespaces/inkscape"
   width="109.81921"
   height="84.608047"
   id="svg2"
   version="1.1"
   inkscape:version="0.48.3.1 r9886"
   sodipodi:docname="a.svg">
  <defs
     id="defs4">
    <linearGradient
       id="linearGradient5222"
       osb:paint="solid">
      <stop
         style="stop-color:#d14040;stop-opacity:1;"
         offset="0"
         id="stop5224" />
    </linearGradient>
    <linearGradient
       id="linearGradient3770"
       osb:paint="solid">
      <stop
         style="stop-color:#cea340;stop-opacity:1;"
         offset="0"
         id="stop3772" />
    </linearGradient>
    <filter
       inkscape:collect="always"
       id="filter5254"
       x="-0.10023763"
       width="1.2004753"
       y="-0.13350469"
       height="1.2670094">
      <feGaussianBlur
         inkscape:collect="always"
         stdDeviation="4.2271699"
         id="feGaussianBlur5256" />
    </filter>
  </defs>
  <sodipodi:namedview
     id="base"
     pagecolor="#ffffff"
     bordercolor="#666666"
     borderopacity="1.0"
     inkscape:pageopacity="0.0"
     inkscape:pageshadow="2"
     inkscape:zoom="4.3435585"
     inkscape:cx="111.57243"
     inkscape:cy="38.012793"
     inkscape:document-units="px"
     inkscape:current-layer="layer1"
     showgrid="false"
     fit-margin-top="0"
     fit-margin-left="0"
     fit-margin-right="0"
     fit-margin-bottom="0"
     inkscape:window-width="1366"
     inkscape:window-height="712"
     inkscape:window-x="-4"
     inkscape:window-y="-4"
     inkscape:window-maximized="1" />
  <metadata
     id="metadata7">
    <rdf:RDF>
      <cc:Work
         rdf:about="">
        <dc:format>image/svg+xml</dc:format>
        <dc:type
           rdf:resource="http://purl.org/dc/dcmitype/StillImage" />
        <dc:title></dc:title>
      </cc:Work>
    </rdf:RDF>
  </metadata>
  <g
     inkscape:label="Calque 1"
     inkscape:groupmode="layer"
     id="layer1"
     transform="translate(-142.8411,-350.62839)">
    <path
       style="fill:#ff80b2;fill-rule:evenodd;stroke:#ea3865;stroke-width:8.60000038;stroke-linecap:butt;stroke-linejoin:bevel;stroke-miterlimit:4;stroke-opacity:1;stroke-dasharray:none"
       d="m 157.67463,363.42638 67.57424,-8.37917 c 9.01147,-1.11741 24.24657,7.68138 23.03641,18.40975 L 243.678,414.3016 c -0.98577,8.73901 -6.04636,17.17939 -11.8473,16.61421 l -67.57424,-6.58363 c -5.80093,-0.56517 -16.33914,-8.00096 -16.45458,-14.22016 l -0.65819,-35.45804 c -0.11544,-6.2192 4.7503,-10.51081 10.53094,-11.2276 z"
       id="rect2985"
       inkscape:connector-curvature="0"
       sodipodi:nodetypes="sssssssss" />
    <text
       xml:space="preserve"
       style="font-size:60.30599213px;font-style:normal;font-weight:normal;line-height:125%;letter-spacing:0px;word-spacing:0px;fill:#000000;fill-opacity:1;stroke:none;font-family:Bitstream Vera Sans"
       x="183.91928"
       y="398.81656"
       id="text2988"
       sodipodi:linespacing="125%"
       transform="scale(0.96698196,1.0341455)"><tspan
         sodipodi:role="line"
         id="tspan2990"
         x="183.91928"
         y="398.81656">A</tspan></text>
    <path
       sodipodi:nodetypes="sssssssss"
       inkscape:connector-curvature="0"
       id="path5228"
       d="m 157.67463,363.42638 67.57424,-8.37917 c 9.01147,-1.11741 24.24657,7.68138 23.03641,18.40975 L 243.678,414.3016 c -0.98577,8.73901 -6.04636,17.17939 -11.8473,16.61421 l -67.57424,-6.58363 c -5.80093,-0.56517 -16.33914,-8.00096 -16.45458,-14.22016 l -0.65819,-35.45804 c -0.11544,-6.2192 4.7503,-10.51081 10.53094,-11.2276 z"
       style="fill:#ff80b2;fill-rule:evenodd;stroke:#ea3865;stroke-width:8.59999999999999790;stroke-linecap:butt;stroke-linejoin:bevel;stroke-miterlimit:4;stroke-opacity:1;stroke-dasharray:none;opacity:1;filter:url(#filter5254)" />
    <g
       transform="scale(1.1064117,0.90382272)"
       style="font-size:72.72447205px;font-style:normal;font-weight:normal;line-height:125%;letter-spacing:0px;word-spacing:0px;fill:#000000;fill-opacity:1;stroke:none;font-family:Sans"
       id="text2994">
      <path
         d="m 157.76139,459.38962 0,-52.05766 19.5305,0 c 3.97709,6e-5 7.16707,0.52679 9.56994,1.5802 2.40281,1.05351 4.28484,2.67513 5.64609,4.86487 1.36118,2.18982 2.04178,4.48022 2.04183,6.87118 -5e-5,2.22533 -0.60372,4.32042 -1.81101,6.28527 -1.20738,1.96492 -3.03023,3.55103 -5.46854,4.75834 3.14851,0.92329 5.56911,2.49756 7.26179,4.72283 1.6926,2.22531 2.53892,4.85305 2.53897,7.88322 -5e-5,2.43837 -0.51494,4.70508 -1.54469,6.80016 -1.02983,2.0951 -2.30227,3.7108 -3.81732,4.84712 -1.51513,1.13632 -3.41492,1.99448 -5.69936,2.57447 -2.28451,0.58 -5.08387,0.87 -8.39811,0.87 z m 6.88894,-30.1835 11.25667,0 c 3.05383,3e-5 5.24361,-0.20119 6.56935,-0.60367 1.75179,-0.52078 3.07158,-1.38486 3.95936,-2.59223 0.88772,-1.2073 1.33159,-2.7224 1.33163,-4.54528 -4e-5,-1.72811 -0.41432,-3.24912 -1.24285,-4.56303 -0.8286,-1.31383 -2.01227,-2.21341 -3.551,-2.69876 -1.5388,-0.48526 -4.17837,-0.72791 -7.91873,-0.72796 l -10.40443,0 z m 0,24.04027 12.96115,0 c 2.22526,0 3.7877,-0.0829 4.68732,-0.24857 1.58608,-0.28407 2.91178,-0.75754 3.97712,-1.4204 1.06526,-0.66285 1.94117,-1.62753 2.62774,-2.89407 0.68649,-1.26651 1.02975,-2.72833 1.02979,-4.38548 -4e-5,-1.9412 -0.49718,-3.62792 -1.49142,-5.06017 -0.99432,-1.43222 -2.37329,-2.43834 -4.13692,-3.01835 -1.76369,-0.57998 -4.30265,-0.86998 -7.61689,-0.87 l -12.03789,0 z"
         style=""
         id="path2999" />
    </g>
  </g>
</svg>
