<?xml version="1.0" encoding="UTF-8" standalone="no"?>
<!-- Created with Inkscape (http://www.inkscape.org/) -->

<svg
   xmlns:dc="http://purl.org/dc/elements/1.1/"
   xmlns:cc="http://creativecommons.org/ns#"
   xmlns:rdf="http://www.w3.org/1999/02/22-rdf-syntax-ns#"
   xmlns:svg="http://www.w3.org/2000/svg"
   xmlns="http://www.w3.org/2000/svg"
   xmlns:sodipodi="http://sodipodi.sourceforge.net/DTD/sodipodi-0.dtd"
   xmlns:inkscape="http://www.inkscape.org/namespaces/inkscape"
   width="98.8125"
   height="100.90967"
   id="svg3527"
   version="1.1"
   inkscape:version="0.48.3.1 r9886"
   sodipodi:docname="New document 31">
  <defs
     id="defs3529" />
  <sodipodi:namedview
     id="base"
     pagecolor="#ffffff"
     bordercolor="#666666"
     borderopacity="1.0"
     inkscape:pageopacity="0.0"
     inkscape:pageshadow="2"
     inkscape:zoom="0.35"
     inkscape:cx="27.25"
     inkscape:cy="-40.862183"
     inkscape:document-units="px"
     inkscape:current-layer="layer1"
     showgrid="false"
     fit-margin-top="0"
     fit-margin-left="0"
     fit-margin-right="0"
     fit-margin-bottom="0"
     inkscape:window-width="1366"
     inkscape:window-height="712"
     inkscape:window-x="-4"
     inkscape:window-y="-4"
     inkscape:window-maximized="1" />
  <metadata
     id="metadata3532">
    <rdf:RDF>
      <cc:Work
         rdf:about="">
        <dc:format>image/svg+xml</dc:format>
        <dc:type
           rdf:resource="http://purl.org/dc/dcmitype/StillImage" />
        <dc:title></dc:title>
      </cc:Work>
    </rdf:RDF>
  </metadata>
  <g
     inkscape:label="Layer 1"
     inkscape:groupmode="layer"
     id="layer1"
     transform="translate(-347.75,-390.59033)">
    <g
       style="font-size:144px;font-style:normal;font-variant:normal;font-weight:normal;font-stretch:normal;text-align:start;line-height:125%;letter-spacing:0px;word-spacing:0px;writing-mode:lr-tb;text-anchor:start;fill:#ff0000;fill-opacity:1;stroke:#ffffff;stroke-width:6;stroke-miterlimit:4;stroke-opacity:1;font-family:Insaniburger;-inkscape-font-specification:Insaniburger"
       id="text4319-6">
      <path
         d="m 397.14285,422.82816 19.54688,-23.48438 c 3.18743,-3.84366 7.49992,-5.76553 12.9375,-5.76562 9.28116,9e-5 13.92178,4.07821 13.92187,12.23437 l 0,70.45313 c -9e-5,8.15625 -4.64071,12.23437 -13.92187,12.23437 -9.28133,0 -13.92195,-4.07812 -13.92188,-12.23437 l 0,-38.8125 -18.5625,21.79687 -18.5625,-21.65625 0,38.67188 c -3e-5,8.15625 -4.64065,12.23437 -13.92187,12.23437 -9.28126,0 -13.92188,-4.07812 -13.92188,-12.23437 l 0,-70.45313 c 0,-8.29678 4.64062,-12.3749 13.92188,-12.23437 5.34373,0.047 9.60935,1.96884 12.79687,5.76562 z"
         id="path3545"
         inkscape:connector-curvature="0" />
    </g>
  </g>
</svg>
