<?xml version="1.0" encoding="UTF-8" standalone="no"?>
<!-- Created with Inkscape (http://www.inkscape.org/) -->

<svg
   xmlns:dc="http://purl.org/dc/elements/1.1/"
   xmlns:cc="http://creativecommons.org/ns#"
   xmlns:rdf="http://www.w3.org/1999/02/22-rdf-syntax-ns#"
   xmlns:svg="http://www.w3.org/2000/svg"
   xmlns="http://www.w3.org/2000/svg"
   xmlns:sodipodi="http://sodipodi.sourceforge.net/DTD/sodipodi-0.dtd"
   xmlns:inkscape="http://www.inkscape.org/namespaces/inkscape"
   width="84.625"
   height="100.90625"
   id="svg3220"
   version="1.1"
   inkscape:version="0.48.3.1 r9886"
   sodipodi:docname="New document 12">
  <defs
     id="defs3222" />
  <sodipodi:namedview
     id="base"
     pagecolor="#ffffff"
     bordercolor="#666666"
     borderopacity="1.0"
     inkscape:pageopacity="0.0"
     inkscape:pageshadow="2"
     inkscape:zoom="5.2020439"
     inkscape:cx="42.3125"
     inkscape:cy="50.450315"
     inkscape:document-units="px"
     inkscape:current-layer="layer1"
     showgrid="false"
     fit-margin-top="0"
     fit-margin-left="0"
     fit-margin-right="0"
     fit-margin-bottom="0"
     inkscape:window-width="1366"
     inkscape:window-height="712"
     inkscape:window-x="-4"
     inkscape:window-y="-4"
     inkscape:window-maximized="1" />
  <metadata
     id="metadata3225">
    <rdf:RDF>
      <cc:Work
         rdf:about="">
        <dc:format>image/svg+xml</dc:format>
        <dc:type
           rdf:resource="http://purl.org/dc/dcmitype/StillImage" />
        <dc:title></dc:title>
      </cc:Work>
    </rdf:RDF>
  </metadata>
  <g
     inkscape:label="Layer 1"
     inkscape:groupmode="layer"
     id="layer1"
     transform="translate(-332.6875,-481.90625)">
    <g
       style="font-size:144px;font-style:normal;font-variant:normal;font-weight:normal;font-stretch:normal;text-align:start;line-height:125%;letter-spacing:0px;word-spacing:0px;writing-mode:lr-tb;text-anchor:start;fill:#ffff00;fill-opacity:1;stroke:#ffffff;stroke-width:6;stroke-miterlimit:4;stroke-opacity:1;font-family:Insaniburger;-inkscape-font-specification:Insaniburger"
       id="text4327">
      <path
         d="m 377.88281,579.82312 c -10.25039,-0.0637 -20.50827,0.13243 -30.75361,-0.10753 -5.28553,-0.10048 -10.70688,-3.67528 -11.21636,-9.25941 -0.46306,-7.78385 -0.10433,-15.61026 -0.21753,-23.41209 0.0356,-17.12958 -0.0717,-34.26248 0.0544,-51.38996 0.0104,-5.14928 4.03441,-9.67455 9.13623,-10.32272 6.62573,-0.81304 13.34044,-0.27391 20.00807,-0.43016 6.87533,0.20067 13.91359,-0.76171 20.56116,1.52085 11.43886,3.10181 20.18084,12.58475 24.21196,23.4978 6.2501,14.39469 6.12328,31.27121 -0.28527,45.59034 -4.16479,10.84877 -13.12414,20.09091 -24.57973,22.9801 -2.26518,0.63165 -4.58371,1.06472 -6.9193,1.33278 z M 388.5,531.51843 c -0.0541,-8.80865 -1.49778,-19.19502 -9.43536,-24.50523 -4.57422,-3.10287 -10.22516,-3.08096 -15.52558,-2.98695 0,18.75 0,37.5 0,56.25 5.23649,0.46819 10.73296,-0.22317 15.15278,-3.28695 8.18405,-5.52013 9.81635,-16.35088 9.80816,-25.47087 z"
         id="path3238"
         inkscape:connector-curvature="0" />
    </g>
  </g>
</svg>
