<?xml version="1.0" encoding="UTF-8" standalone="no"?>
<!-- Created with Inkscape (http://www.inkscape.org/) -->

<svg
   xmlns:dc="http://purl.org/dc/elements/1.1/"
   xmlns:cc="http://creativecommons.org/ns#"
   xmlns:rdf="http://www.w3.org/1999/02/22-rdf-syntax-ns#"
   xmlns:svg="http://www.w3.org/2000/svg"
   xmlns="http://www.w3.org/2000/svg"
   xmlns:sodipodi="http://sodipodi.sourceforge.net/DTD/sodipodi-0.dtd"
   xmlns:inkscape="http://www.inkscape.org/namespaces/inkscape"
   width="100.91"
   height="100.91"
   id="svg3689"
   version="1.1"
   inkscape:version="0.48.3.1 r9886"
   sodipodi:docname="Big-R.svg">
  <defs
     id="defs3691" />
  <sodipodi:namedview
     id="base"
     pagecolor="#ffffff"
     bordercolor="#666666"
     borderopacity="1.0"
     inkscape:pageopacity="0.0"
     inkscape:pageshadow="2"
     inkscape:zoom="5.2026556"
     inkscape:cx="50.455002"
     inkscape:cy="50.455002"
     inkscape:document-units="px"
     inkscape:current-layer="layer1"
     showgrid="false"
     fit-margin-top="0"
     fit-margin-left="0"
     fit-margin-right="0"
     fit-margin-bottom="0"
     inkscape:window-width="1366"
     inkscape:window-height="712"
     inkscape:window-x="-4"
     inkscape:window-y="-4"
     inkscape:window-maximized="1" />
  <metadata
     id="metadata3694">
    <rdf:RDF>
      <cc:Work
         rdf:about="">
        <dc:format>image/svg+xml</dc:format>
        <dc:type
           rdf:resource="http://purl.org/dc/dcmitype/StillImage" />
        <dc:title />
      </cc:Work>
    </rdf:RDF>
  </metadata>
  <g
     inkscape:label="Layer 1"
     inkscape:groupmode="layer"
     id="layer1"
     transform="translate(-445.03125,-481.9025)">
    <g
       style="font-size:144px;font-style:normal;font-variant:normal;font-weight:normal;font-stretch:normal;text-align:start;line-height:125%;letter-spacing:0px;word-spacing:0px;writing-mode:lr-tb;text-anchor:start;fill:#ff8080;fill-opacity:1;stroke:#ffffff;stroke-width:6;stroke-miterlimit:4;stroke-opacity:1;font-family:Insaniburger;-inkscape-font-specification:Insaniburger"
       id="text4319-6-6"
       transform="translate(8.4572194,-0.19220953)">
      <path
         d="m 506.38617,539.46375 13.92187,18.28125 c 2.06243,2.71876 3.09368,5.62501 3.09375,8.71875 -7e-5,3.09376 -1.87507,6.08203 -5.625,8.96484 -3.75007,2.88281 -7.19537,4.32422 -10.33593,4.32422 -3.14069,0 -6.11725,-1.89844 -8.92969,-5.69531 l -22.64063,-30.23438 0,23.76563 c -3e-5,8.15625 -4.64065,12.23437 -13.92187,12.23437 -9.28126,0 -13.92188,-4.07812 -13.92188,-12.23437 l 0,-70.45313 c 0,-8.15616 4.64062,-12.23428 13.92188,-12.23437 l 31.5,0 c 7.78119,9e-5 14.24994,2.98837 19.40625,8.96484 5.15618,5.97664 7.7343,12.38679 7.73437,19.23047 -7e-5,12.23443 -4.73444,21.02348 -14.20312,26.36719 z m -30.51563,-35.4375 0,21.65625 8.01563,0 c 7.87495,5e-5 11.81245,-3.60932 11.8125,-10.82813 -5e-5,-7.21868 -3.93755,-10.82805 -11.8125,-10.82812 z"
         id="path3707"
         inkscape:connector-curvature="0" />
    </g>
  </g>
</svg>
