<?xml version="1.0" encoding="UTF-8" standalone="no"?>
<!-- Created with Inkscape (http://www.inkscape.org/) -->

<svg
   xmlns:dc="http://purl.org/dc/elements/1.1/"
   xmlns:cc="http://creativecommons.org/ns#"
   xmlns:rdf="http://www.w3.org/1999/02/22-rdf-syntax-ns#"
   xmlns:svg="http://www.w3.org/2000/svg"
   xmlns="http://www.w3.org/2000/svg"
   xmlns:sodipodi="http://sodipodi.sourceforge.net/DTD/sodipodi-0.dtd"
   xmlns:inkscape="http://www.inkscape.org/namespaces/inkscape"
   width="95.15625"
   height="104.59375"
   id="svg3329"
   version="1.1"
   inkscape:version="0.48.3.1 r9886"
   sodipodi:docname="New document 19">
  <defs
     id="defs3331" />
  <sodipodi:namedview
     id="base"
     pagecolor="#ffffff"
     bordercolor="#666666"
     borderopacity="1.0"
     inkscape:pageopacity="0.0"
     inkscape:pageshadow="2"
     inkscape:zoom="5.0201703"
     inkscape:cx="47.566964"
     inkscape:cy="52.289605"
     inkscape:document-units="px"
     inkscape:current-layer="layer1"
     showgrid="false"
     fit-margin-top="0"
     fit-margin-left="0"
     fit-margin-right="0"
     fit-margin-bottom="0"
     inkscape:window-width="1366"
     inkscape:window-height="712"
     inkscape:window-x="-4"
     inkscape:window-y="-4"
     inkscape:window-maximized="1" />
  <metadata
     id="metadata3334">
    <rdf:RDF>
      <cc:Work
         rdf:about="">
        <dc:format>image/svg+xml</dc:format>
        <dc:type
           rdf:resource="http://purl.org/dc/dcmitype/StillImage" />
        <dc:title></dc:title>
      </cc:Work>
    </rdf:RDF>
  </metadata>
  <g
     inkscape:label="Layer 1"
     inkscape:groupmode="layer"
     id="layer1"
     transform="translate(-66.71875,45.65625)">
    <g
       style="font-size:144px;font-style:normal;font-variant:normal;font-weight:normal;font-stretch:normal;text-align:start;line-height:125%;letter-spacing:0px;word-spacing:0px;writing-mode:lr-tb;text-anchor:start;fill:#ff0000;fill-opacity:1;stroke:#ffffff;stroke-width:6;stroke-miterlimit:4;stroke-opacity:1;font-family:Insaniburger;-inkscape-font-specification:Insaniburger"
       id="text4319-4">
      <path
         d="m 148.03571,-3.1255417 c -8.65991,0.2222898 -17.38698,-0.5022292 -26.00076,0.4831979 -6.51202,1.4990252 -9.04373,9.0809324 -7.39976,14.9854058 0.99938,5.625765 6.71984,8.446997 11.99567,8.152719 3.82533,-0.975588 6.59984,1.06992 4.4743,5.139537 -2.62812,5.978602 -10.03599,5.919779 -15.53121,5.118376 C 106.69981,29.544345 99.291768,22.442617 97.511147,13.688853 95.40023,4.5951365 97.196534,-6.0820924 103.8739,-12.907883 c 7.0775,-6.338296 17.37552,-5.557082 26.03871,-3.825666 5.20914,0.839252 9.54235,4.099056 14.55168,5.439666 5.93624,1.6333317 10.92764,-3.461368 12.79845,-8.602088 1.84363,-4.383881 0.18855,-9.515142 -3.64151,-12.242518 -10.41792,-9.320313 -25.17893,-10.761613 -38.5628,-10.497425 -18.510889,0.648201 -36.167688,13.089277 -42.27478,30.694854 -4.66231,13.4380116 -4.286216,28.870084 1.914135,41.763991 6.978135,14.639782 22.233987,24.379635 38.239385,25.81849 9.5069,0.792562 19.22738,0.171826 28.49233,-2.12497 7.81416,-2.215881 16.55668,-7.618329 17.25846,-16.52061 0.29445,-9.102707 0.21289,-18.236382 0.10458,-27.349509 0.526,-5.4454461 -2.27501,-11.7464922 -8.19822,-12.6417773 -0.84418,-0.1758723 -1.7058,-0.095228 -2.55861,-0.1300964 z"
         id="path3347"
         inkscape:connector-curvature="0" />
    </g>
  </g>
</svg>
