<?xml version="1.0" encoding="UTF-8" standalone="no"?>
<!-- Created with Inkscape (http://www.inkscape.org/) -->

<svg
   xmlns:dc="http://purl.org/dc/elements/1.1/"
   xmlns:cc="http://creativecommons.org/ns#"
   xmlns:rdf="http://www.w3.org/1999/02/22-rdf-syntax-ns#"
   xmlns:svg="http://www.w3.org/2000/svg"
   xmlns="http://www.w3.org/2000/svg"
   xmlns:sodipodi="http://sodipodi.sourceforge.net/DTD/sodipodi-0.dtd"
   xmlns:inkscape="http://www.inkscape.org/namespaces/inkscape"
   width="95.71875"
   height="100.21875"
   id="svg3953"
   version="1.1"
   inkscape:version="0.48.3.1 r9886"
   sodipodi:docname="New document 59">
  <defs
     id="defs3955" />
  <sodipodi:namedview
     id="base"
     pagecolor="#ffffff"
     bordercolor="#666666"
     borderopacity="1.0"
     inkscape:pageopacity="0.0"
     inkscape:pageshadow="2"
     inkscape:zoom="0.35"
     inkscape:cx="47.875"
     inkscape:cy="50.106567"
     inkscape:document-units="px"
     inkscape:current-layer="layer1"
     showgrid="false"
     fit-margin-top="0"
     fit-margin-left="0"
     fit-margin-right="0"
     fit-margin-bottom="0"
     inkscape:window-width="471"
     inkscape:window-height="423"
     inkscape:window-x="22"
     inkscape:window-y="29"
     inkscape:window-maximized="0" />
  <metadata
     id="metadata3958">
    <rdf:RDF>
      <cc:Work
         rdf:about="">
        <dc:format>image/svg+xml</dc:format>
        <dc:type
           rdf:resource="http://purl.org/dc/dcmitype/StillImage" />
        <dc:title></dc:title>
      </cc:Work>
    </rdf:RDF>
  </metadata>
  <g
     inkscape:label="Layer 1"
     inkscape:groupmode="layer"
     id="layer1"
     transform="translate(-327.125,-482.25)">
    <g
       style="font-size:144px;font-style:normal;font-variant:normal;font-weight:normal;font-stretch:normal;text-align:start;line-height:125%;letter-spacing:0px;word-spacing:0px;writing-mode:lr-tb;text-anchor:start;fill:#ff0000;fill-opacity:1;stroke:#ffffff;stroke-width:6;stroke-miterlimit:4;stroke-opacity:1;font-family:Insaniburger;-inkscape-font-specification:Insaniburger"
       id="text4327-3-2-4">
      <path
         d="m 375,514.78406 15.60937,-20.53125 c 4.54681,-5.99991 9.60931,-8.99991 15.1875,-9 5.57805,9e-5 9.31632,1.51181 11.21485,4.53515 1.89835,3.02353 2.84756,5.74228 2.84765,8.15625 -9e-5,2.41415 -0.84384,5.30867 -2.53125,8.6836 l -28.6875,37.40625 0,23.20312 c -6e-5,8.15626 -4.64068,12.23438 -13.92187,12.23438 -9.28129,0 -13.92191,-4.07812 -13.92188,-12.23438 l 0,-23.20312 -28.125,-37.40625 c -1.6875,-3.37493 -2.53125,-6.26945 -2.53125,-8.6836 0,-2.41397 0.94922,-5.13272 2.84766,-8.15625 1.89843,-3.02334 5.63671,-4.53506 11.21484,-4.53515 5.57811,9e-5 10.6406,3.00009 15.1875,9 z"
         id="path3971"
         inkscape:connector-curvature="0" />
    </g>
  </g>
</svg>
