<?xml version="1.0" encoding="UTF-8" standalone="no"?>
<!-- Created with Inkscape (http://www.inkscape.org/) -->

<svg
   xmlns:dc="http://purl.org/dc/elements/1.1/"
   xmlns:cc="http://creativecommons.org/ns#"
   xmlns:rdf="http://www.w3.org/1999/02/22-rdf-syntax-ns#"
   xmlns:svg="http://www.w3.org/2000/svg"
   xmlns="http://www.w3.org/2000/svg"
   xmlns:sodipodi="http://sodipodi.sourceforge.net/DTD/sodipodi-0.dtd"
   xmlns:inkscape="http://www.inkscape.org/namespaces/inkscape"
   width="80.65625"
   height="100.9375"
   id="svg3363"
   version="1.1"
   inkscape:version="0.48.3.1 r9886"
   sodipodi:docname="New document 21">
  <defs
     id="defs3365" />
  <sodipodi:namedview
     id="base"
     pagecolor="#ffffff"
     bordercolor="#666666"
     borderopacity="1.0"
     inkscape:pageopacity="0.0"
     inkscape:pageshadow="2"
     inkscape:zoom="5.2020434"
     inkscape:cx="40.330359"
     inkscape:cy="50.46817"
     inkscape:document-units="px"
     inkscape:current-layer="layer1"
     showgrid="false"
     fit-margin-top="0"
     fit-margin-left="0"
     fit-margin-right="0"
     fit-margin-bottom="0"
     inkscape:window-width="1366"
     inkscape:window-height="712"
     inkscape:window-x="-4"
     inkscape:window-y="-4"
     inkscape:window-maximized="1" />
  <metadata
     id="metadata3368">
    <rdf:RDF>
      <cc:Work
         rdf:about="">
        <dc:format>image/svg+xml</dc:format>
        <dc:type
           rdf:resource="http://purl.org/dc/dcmitype/StillImage" />
        <dc:title></dc:title>
      </cc:Work>
    </rdf:RDF>
  </metadata>
  <g
     inkscape:label="Layer 1"
     inkscape:groupmode="layer"
     id="layer1"
     transform="translate(123.1875,275.25)">
    <g
       style="font-size:144px;font-style:normal;font-variant:normal;font-weight:normal;font-stretch:normal;text-align:start;line-height:125%;letter-spacing:0px;word-spacing:0px;writing-mode:lr-tb;text-anchor:start;fill:#008000;fill-opacity:1;stroke:#ffffff;stroke-width:6;stroke-miterlimit:4;stroke-opacity:1;font-family:Insaniburger;-inkscape-font-specification:Insaniburger"
       id="text4323-5">
      <path
         d="m -59.443077,-272.24161 c 5.49397,-0.29756 12.171556,2.07672 13.432399,8.07665 0.91823,5.4564 0.315822,11.04327 0.489476,16.56113 -0.03576,19.84333 0.07185,39.69 -0.0544,59.53123 -0.01043,5.14927 -4.034399,9.6746 -9.136251,10.32276 -5.985619,1.00636 -14.039498,0.70625 -17.293578,-5.35254 -2.19269,-4.77469 -1.087503,-10.15566 -1.359525,-15.23747 0,-5.13392 0,-10.26784 0,-15.40176 -6.328125,0 -12.65625,0 -18.984375,0 -0.072,8.79013 0.150003,17.59122 -0.122368,26.37392 -0.235402,5.20647 -4.717666,9.29694 -9.788825,9.74927 -5.96056,0.86912 -14.01929,0.27039 -16.83132,-6.02161 -1.83679,-4.85301 -0.84689,-10.14456 -1.10124,-15.21663 0.0358,-20.87694 -0.0719,-41.75722 0.0544,-62.63206 0.0104,-5.14928 4.03442,-9.67455 9.13623,-10.32273 5.98563,-1.00647 14.039461,-0.70618 17.293566,5.35256 2.192747,4.77465 1.087559,10.15561 1.359577,15.2374 0,4.99329 0,9.98659 0,14.97988 6.328125,0 12.65625,0 18.984375,0 0.07086,-8.64953 -0.148392,-17.30989 0.122347,-25.95201 0.235367,-5.20649 4.717686,-9.2969 9.78881,-9.74926 1.325153,-0.21511 2.669133,-0.29823 4.010718,-0.29873 z"
         id="path3381"
         inkscape:connector-curvature="0" />
    </g>
  </g>
</svg>
