<?xml version="1.0" encoding="UTF-8" standalone="no"?>
<!-- Created with Inkscape (http://www.inkscape.org/) -->

<svg
   xmlns:dc="http://purl.org/dc/elements/1.1/"
   xmlns:cc="http://creativecommons.org/ns#"
   xmlns:rdf="http://www.w3.org/1999/02/22-rdf-syntax-ns#"
   xmlns:svg="http://www.w3.org/2000/svg"
   xmlns="http://www.w3.org/2000/svg"
   xmlns:sodipodi="http://sodipodi.sourceforge.net/DTD/sodipodi-0.dtd"
   xmlns:inkscape="http://www.inkscape.org/namespaces/inkscape"
   width="94.15625"
   height="104.59375"
   id="svg3185"
   version="1.1"
   inkscape:version="0.48.3.1 r9886"
   sodipodi:docname="New document 10">
  <defs
     id="defs3187" />
  <sodipodi:namedview
     id="base"
     pagecolor="#ffffff"
     bordercolor="#666666"
     borderopacity="1.0"
     inkscape:pageopacity="0.0"
     inkscape:pageshadow="2"
     inkscape:zoom="5.0194204"
     inkscape:cx="47.055946"
     inkscape:cy="52.296582"
     inkscape:document-units="px"
     inkscape:current-layer="layer1"
     showgrid="false"
     fit-margin-top="0"
     fit-margin-left="0"
     fit-margin-right="0"
     fit-margin-bottom="0"
     inkscape:window-width="1366"
     inkscape:window-height="712"
     inkscape:window-x="-4"
     inkscape:window-y="-4"
     inkscape:window-maximized="1" />
  <metadata
     id="metadata3190">
    <rdf:RDF>
      <cc:Work
         rdf:about="">
        <dc:format>image/svg+xml</dc:format>
        <dc:type
           rdf:resource="http://purl.org/dc/dcmitype/StillImage" />
        <dc:title></dc:title>
      </cc:Work>
    </rdf:RDF>
  </metadata>
  <g
     inkscape:label="Layer 1"
     inkscape:groupmode="layer"
     id="layer1"
     transform="translate(909.9375,214.21875)">
    <g
       style="font-size:144px;font-style:normal;font-variant:normal;font-weight:normal;font-stretch:normal;text-align:start;line-height:125%;letter-spacing:0px;word-spacing:0px;writing-mode:lr-tb;text-anchor:start;fill:#0000ff;fill-opacity:1;stroke:#ffffff;stroke-width:6;stroke-miterlimit:4;stroke-opacity:1;font-family:Insaniburger;-inkscape-font-specification:Insaniburger"
       id="text4323">
      <path
         d="m -818.77118,-130.529 c -1.39916,8.24337 -9.47939,13.42308 -16.96317,15.5762 -10.39852,2.84066 -21.42743,2.76648 -32.05162,1.45239 -18.08284,-3.1194 -34.23108,-17.34807 -37.78623,-35.63473 -3.90842,-17.27993 0.0632,-37.34689 13.76088,-49.40214 9.52668,-8.76228 22.58989,-13.08854 35.44958,-12.64206 9.77916,0.031 20.28161,0.4912 28.83361,5.73947 5.23793,3.47603 10.53635,9.75756 8.12635,16.40241 -1.65699,5.7744 -7.97657,10.3672 -14.00864,8.25625 -9.85297,-2.13796 -19.6153,-7.88312 -29.95515,-4.9369 -8.36185,1.74856 -14.89559,9.41839 -15.2852,17.95942 -1.459,9.43617 -0.0339,21.05588 8.58791,26.73313 8.77908,5.61351 20.01112,3.8799 29.1275,0.0628 5.73068,-2.06726 13.53586,-4.65123 18.2753,0.75194 2.46736,2.56963 3.9086,6.11567 3.88888,9.68187 z"
         id="path3203"
         inkscape:connector-curvature="0" />
    </g>
  </g>
</svg>
