<?xml version="1.0" encoding="UTF-8" standalone="no"?>
<!-- Created with Inkscape (http://www.inkscape.org/) -->

<svg
   xmlns:dc="http://purl.org/dc/elements/1.1/"
   xmlns:cc="http://creativecommons.org/ns#"
   xmlns:rdf="http://www.w3.org/1999/02/22-rdf-syntax-ns#"
   xmlns:svg="http://www.w3.org/2000/svg"
   xmlns="http://www.w3.org/2000/svg"
   xmlns:sodipodi="http://sodipodi.sourceforge.net/DTD/sodipodi-0.dtd"
   xmlns:inkscape="http://www.inkscape.org/namespaces/inkscape"
   width="87.40625"
   height="101.15625"
   id="svg3463"
   version="1.1"
   inkscape:version="0.48.3.1 r9886"
   sodipodi:docname="New document 27">
  <defs
     id="defs3465" />
  <sodipodi:namedview
     id="base"
     pagecolor="#ffffff"
     bordercolor="#666666"
     borderopacity="1.0"
     inkscape:pageopacity="0.0"
     inkscape:pageshadow="2"
     inkscape:zoom="5.1911936"
     inkscape:cx="43.70981"
     inkscape:cy="50.575315"
     inkscape:document-units="px"
     inkscape:current-layer="layer1"
     showgrid="false"
     fit-margin-top="0"
     fit-margin-left="0"
     fit-margin-right="0"
     fit-margin-bottom="0"
     inkscape:window-width="1366"
     inkscape:window-height="712"
     inkscape:window-x="-4"
     inkscape:window-y="-4"
     inkscape:window-maximized="1" />
  <metadata
     id="metadata3468">
    <rdf:RDF>
      <cc:Work
         rdf:about="">
        <dc:format>image/svg+xml</dc:format>
        <dc:type
           rdf:resource="http://purl.org/dc/dcmitype/StillImage" />
        <dc:title></dc:title>
      </cc:Work>
    </rdf:RDF>
  </metadata>
  <g
     inkscape:label="Layer 1"
     inkscape:groupmode="layer"
     id="layer1"
     transform="translate(-507.71875,-461.78125)">
    <g
       style="font-size:144px;font-style:normal;font-variant:normal;font-weight:normal;font-stretch:normal;text-align:start;line-height:125%;letter-spacing:0px;word-spacing:0px;writing-mode:lr-tb;text-anchor:start;fill:#ff00ff;fill-opacity:1;stroke:#ffffff;stroke-width:6;stroke-miterlimit:4;stroke-opacity:1;font-family:Insaniburger;-inkscape-font-specification:Insaniburger"
       id="text4327-4-1-6">
      <path
         d="m 564.29575,512.25671 22.92187,25.3125 c 3.28117,3.65627 4.92179,7.00783 4.92188,10.05469 -9e-5,3.04689 -1.44149,5.85938 -4.32422,8.4375 -2.88289,2.57813 -5.97664,3.86719 -9.28125,3.86719 -3.30476,0 -6.73835,-1.92187 -10.30078,-5.76563 l -29.67188,-32.20312 0,25.73437 c -3e-5,8.15626 -4.64065,12.23438 -13.92187,12.23438 -9.28126,0 -13.92188,-4.07812 -13.92188,-12.23438 l 0,-70.45312 c 0,-8.15616 4.64062,-12.23428 13.92188,-12.23438 9.28122,10e-5 13.92184,4.07822 13.92187,12.23438 l 0,25.45312 29.67188,-32.0625 c 3.60931,-3.89053 7.0429,-5.83584 10.30078,-5.83593 3.25774,9e-5 6.32804,1.27743 9.21093,3.83203 2.88273,2.55477 4.32414,5.37899 4.32422,8.47265 -8e-5,3.09383 -1.61727,6.42196 -4.85156,9.98438 z"
         id="path3481"
         inkscape:connector-curvature="0" />
    </g>
  </g>
</svg>
