<?xml version="1.0" encoding="UTF-8" standalone="no"?>
<!-- Created with Inkscape (http://www.inkscape.org/) -->

<svg
   xmlns:dc="http://purl.org/dc/elements/1.1/"
   xmlns:cc="http://creativecommons.org/ns#"
   xmlns:rdf="http://www.w3.org/1999/02/22-rdf-syntax-ns#"
   xmlns:svg="http://www.w3.org/2000/svg"
   xmlns="http://www.w3.org/2000/svg"
   xmlns:sodipodi="http://sodipodi.sourceforge.net/DTD/sodipodi-0.dtd"
   xmlns:inkscape="http://www.inkscape.org/namespaces/inkscape"
   width="76.71875"
   height="103.59375"
   id="svg3721"
   version="1.1"
   inkscape:version="0.48.3.1 r9886"
   sodipodi:docname="New document 43">
  <defs
     id="defs3723" />
  <sodipodi:namedview
     id="base"
     pagecolor="#ffffff"
     bordercolor="#666666"
     borderopacity="1.0"
     inkscape:pageopacity="0.0"
     inkscape:pageshadow="2"
     inkscape:zoom="0.35"
     inkscape:cx="-43.15625"
     inkscape:cy="177.51282"
     inkscape:document-units="px"
     inkscape:current-layer="layer1"
     showgrid="false"
     fit-margin-top="0"
     fit-margin-left="0"
     fit-margin-right="0"
     fit-margin-bottom="0"
     inkscape:window-width="471"
     inkscape:window-height="423"
     inkscape:window-x="130"
     inkscape:window-y="183"
     inkscape:window-maximized="0" />
  <metadata
     id="metadata3726">
    <rdf:RDF>
      <cc:Work
         rdf:about="">
        <dc:format>image/svg+xml</dc:format>
        <dc:type
           rdf:resource="http://purl.org/dc/dcmitype/StillImage" />
        <dc:title></dc:title>
      </cc:Work>
    </rdf:RDF>
  </metadata>
  <g
     inkscape:label="Layer 1"
     inkscape:groupmode="layer"
     id="layer1"
     transform="translate(-418.15625,-606.28125)">
    <g
       style="font-size:144px;font-style:normal;font-variant:normal;font-weight:normal;font-stretch:normal;text-align:start;line-height:125%;letter-spacing:0px;word-spacing:0px;writing-mode:lr-tb;text-anchor:start;fill:#ff0000;fill-opacity:1;stroke:#ffffff;stroke-width:6;stroke-miterlimit:4;stroke-opacity:1;font-family:Insaniburger;-inkscape-font-specification:Insaniburger"
       id="text4323-4-8">
      <path
         d="m 460.13113,706.87335 c -9.02347,0 -17.77736,-1.42968 -26.26171,-4.28906 -8.48439,-2.85937 -12.72657,-7.96874 -12.72657,-15.32813 0,-7.35934 3.32812,-11.03903 9.98438,-11.03906 0.98436,3e-5 4.89842,1.28909 11.74219,3.86719 6.84371,2.57815 12.76168,3.86721 17.7539,3.86719 4.99214,2e-5 7.48823,-2.10935 7.48828,-6.32813 -5e-5,-2.76559 -1.71098,-5.07418 -5.13281,-6.92578 -3.42192,-1.85152 -8.19144,-3.78512 -14.30859,-5.80078 -6.11721,-2.01558 -9.94924,-3.53902 -11.4961,-4.57031 -7.12501,-4.73433 -10.68751,-11.63666 -10.6875,-20.70703 -1e-5,-9.07024 2.97655,-16.41789 8.92969,-22.04297 5.81248,-5.53116 12.67966,-8.29678 20.60156,-8.29688 7.92183,1e-4 14.81245,0.86729 20.67188,2.60156 10.96868,3.46885 15.38664,8.58993 13.2539,15.36329 -2.13288,6.77351 -6.03522,9.92585 -11.70703,9.45703 -0.51568,7e-5 -3.32818,-0.96087 -8.4375,-2.88282 -5.10942,-1.9218 -9.64457,-2.88273 -13.60547,-2.88281 -3.96097,8e-5 -5.94143,1.94539 -5.9414,5.83594 -3e-5,2.48444 1.67575,4.62897 5.02734,6.43359 3.35152,1.80475 8.07418,3.7735 14.16797,5.90625 6.09369,2.13287 9.96088,3.76178 11.60156,4.88672 7.21868,4.87505 10.82805,12.12895 10.82813,21.76172 -8e-5,9.63283 -3.09382,17.26173 -9.28125,22.88672 -5.95319,5.48438 -13.44146,8.22656 -22.46485,8.22656 z"
         id="path3739"
         inkscape:connector-curvature="0" />
    </g>
  </g>
</svg>
