<?xml version="1.0" encoding="UTF-8" standalone="no"?>
<!-- Created with Inkscape (http://www.inkscape.org/) -->

<svg
   xmlns:dc="http://purl.org/dc/elements/1.1/"
   xmlns:cc="http://creativecommons.org/ns#"
   xmlns:rdf="http://www.w3.org/1999/02/22-rdf-syntax-ns#"
   xmlns:svg="http://www.w3.org/2000/svg"
   xmlns="http://www.w3.org/2000/svg"
   xmlns:sodipodi="http://sodipodi.sourceforge.net/DTD/sodipodi-0.dtd"
   xmlns:inkscape="http://www.inkscape.org/namespaces/inkscape"
   width="64.5"
   height="100.9067"
   id="svg3295"
   version="1.1"
   inkscape:version="0.48.3.1 r9886"
   sodipodi:docname="New document 17">
  <defs
     id="defs3297" />
  <sodipodi:namedview
     id="base"
     pagecolor="#ffffff"
     bordercolor="#666666"
     borderopacity="1.0"
     inkscape:pageopacity="0.0"
     inkscape:pageshadow="2"
     inkscape:zoom="5.2020233"
     inkscape:cx="32.25"
     inkscape:cy="50.454475"
     inkscape:document-units="px"
     inkscape:current-layer="layer1"
     showgrid="false"
     fit-margin-top="0"
     fit-margin-left="0"
     fit-margin-right="0"
     fit-margin-bottom="0"
     inkscape:window-width="1366"
     inkscape:window-height="712"
     inkscape:window-x="-4"
     inkscape:window-y="-4"
     inkscape:window-maximized="1" />
  <metadata
     id="metadata3300">
    <rdf:RDF>
      <cc:Work
         rdf:about="">
        <dc:format>image/svg+xml</dc:format>
        <dc:type
           rdf:resource="http://purl.org/dc/dcmitype/StillImage" />
        <dc:title></dc:title>
      </cc:Work>
    </rdf:RDF>
  </metadata>
  <g
     inkscape:label="Layer 1"
     inkscape:groupmode="layer"
     id="layer1"
     transform="translate(-342.75,-481.875)">
    <g
       style="font-size:144px;font-style:normal;font-variant:normal;font-weight:normal;font-stretch:normal;text-align:start;line-height:125%;letter-spacing:0px;word-spacing:0px;writing-mode:lr-tb;text-anchor:start;fill:#ff8080;fill-opacity:1;stroke:#ffffff;stroke-width:6;stroke-miterlimit:4;stroke-opacity:1;font-family:Insaniburger;-inkscape-font-specification:Insaniburger"
       id="text4315-8">
      <path
         d="m 373.59375,567.55359 c 0,-8.0625 0,-16.125 0,-24.1875 7.07054,-0.21353 14.21546,0.48589 21.23427,-0.47338 5.5314,-1.51963 7.34244,-7.91054 6.51979,-13.00722 -0.20733,-5.42163 -5.09716,-9.43401 -10.42568,-8.98791 -5.77417,-0.076 -11.55153,-0.006 -17.32838,-0.0315 0,-4.54688 0,-9.09375 0,-13.64063 8.00564,-0.22448 16.08559,0.50014 24.04094,-0.46821 5.51166,-1.4906 7.36326,-7.85778 6.52502,-12.93572 -0.17597,-5.88095 -5.79389,-9.56214 -11.32119,-8.96624 -12.19712,0.14516 -24.40496,-0.21313 -36.5991,0.18047 -5.50784,0.33917 -10.66425,4.97797 -10.34913,10.70688 -0.34569,11.42566 -0.007,22.86712 -0.13806,34.29924 0.0152,13.31944 -0.0884,26.6429 0.0994,39.95976 0.43107,5.69535 5.8594,9.72951 11.35404,9.66243 5.77911,0.6769 13.23132,-0.66125 15.52419,-6.80056 0.63912,-1.69069 0.86301,-3.51116 0.86393,-5.30992 z"
         id="path3313"
         inkscape:connector-curvature="0" />
    </g>
  </g>
</svg>
