<?xml version="1.0" encoding="UTF-8" standalone="no"?>
<!-- Created with Inkscape (http://www.inkscape.org/) -->

<svg
   xmlns:dc="http://purl.org/dc/elements/1.1/"
   xmlns:cc="http://creativecommons.org/ns#"
   xmlns:rdf="http://www.w3.org/1999/02/22-rdf-syntax-ns#"
   xmlns:svg="http://www.w3.org/2000/svg"
   xmlns="http://www.w3.org/2000/svg"
   xmlns:sodipodi="http://sodipodi.sourceforge.net/DTD/sodipodi-0.dtd"
   xmlns:inkscape="http://www.inkscape.org/namespaces/inkscape"
   width="80.8125"
   height="101.625"
   id="svg4017"
   version="1.1"
   inkscape:version="0.48.3.1 r9886"
   sodipodi:docname="New document 63">
  <defs
     id="defs4019" />
  <sodipodi:namedview
     id="base"
     pagecolor="#ffffff"
     bordercolor="#666666"
     borderopacity="1.0"
     inkscape:pageopacity="0.0"
     inkscape:pageshadow="2"
     inkscape:zoom="0.35"
     inkscape:cx="40.40625"
     inkscape:cy="50.825317"
     inkscape:document-units="px"
     inkscape:current-layer="layer1"
     showgrid="false"
     fit-margin-top="0"
     fit-margin-left="0"
     fit-margin-right="0"
     fit-margin-bottom="0"
     inkscape:window-width="471"
     inkscape:window-height="423"
     inkscape:window-x="110"
     inkscape:window-y="145"
     inkscape:window-maximized="0" />
  <metadata
     id="metadata4022">
    <rdf:RDF>
      <cc:Work
         rdf:about="">
        <dc:format>image/svg+xml</dc:format>
        <dc:type
           rdf:resource="http://purl.org/dc/dcmitype/StillImage" />
        <dc:title></dc:title>
      </cc:Work>
    </rdf:RDF>
  </metadata>
  <g
     inkscape:label="Layer 1"
     inkscape:groupmode="layer"
     id="layer1"
     transform="translate(-334.59375,-481.5625)">
    <g
       style="font-size:144px;font-style:normal;font-variant:normal;font-weight:normal;font-stretch:normal;text-align:start;line-height:125%;letter-spacing:0px;word-spacing:0px;writing-mode:lr-tb;text-anchor:start;fill:#0000ff;fill-opacity:1;stroke:#ffffff;stroke-width:6;stroke-miterlimit:4;stroke-opacity:1;font-family:Insaniburger;-inkscape-font-specification:Insaniburger"
       id="text4327-4-2-9">
      <path
         d="m 412.40625,553.73718 c -8e-5,8.95314 -3.80867,15.59767 -11.42578,19.9336 -7.61725,4.33594 -16.2774,6.5039 -25.98047,6.5039 -9.70316,0 -18.3633,-2.16796 -25.98047,-6.5039 -7.61719,-4.33593 -11.42578,-10.98046 -11.42578,-19.9336 l 0,-56.95312 c 0,-8.15616 4.64062,-12.23428 13.92187,-12.23438 9.28123,10e-5 13.92185,4.07822 13.92188,12.23438 l 0,52.875 c -3e-5,5.34377 3.18747,8.01564 9.5625,8.01562 6.37495,2e-5 9.56245,-2.67185 9.5625,-8.01562 l 0,-52.875 c -5e-5,-8.15616 4.64057,-12.23428 13.92187,-12.23438 9.28118,10e-5 13.9218,4.07822 13.92188,12.23438 z"
         id="path4035"
         inkscape:connector-curvature="0" />
    </g>
  </g>
</svg>
