<?xml version="1.0" encoding="UTF-8" standalone="no"?>
<!-- Created with Inkscape (http://www.inkscape.org/) -->

<svg
   xmlns:dc="http://purl.org/dc/elements/1.1/"
   xmlns:cc="http://creativecommons.org/ns#"
   xmlns:rdf="http://www.w3.org/1999/02/22-rdf-syntax-ns#"
   xmlns:svg="http://www.w3.org/2000/svg"
   xmlns="http://www.w3.org/2000/svg"
   xmlns:sodipodi="http://sodipodi.sourceforge.net/DTD/sodipodi-0.dtd"
   xmlns:inkscape="http://www.inkscape.org/namespaces/inkscape"
   width="64.5"
   height="100.92188"
   id="svg3253"
   version="1.1"
   inkscape:version="0.48.3.1 r9886"
   sodipodi:docname="New document 14">
  <defs
     id="defs3255" />
  <sodipodi:namedview
     id="base"
     pagecolor="#ffffff"
     bordercolor="#666666"
     borderopacity="1.0"
     inkscape:pageopacity="0.0"
     inkscape:pageshadow="2"
     inkscape:zoom="5.2020437"
     inkscape:cx="32.250004"
     inkscape:cy="50.460945"
     inkscape:document-units="px"
     inkscape:current-layer="layer1"
     showgrid="false"
     fit-margin-top="0"
     fit-margin-left="0"
     fit-margin-right="0"
     fit-margin-bottom="0"
     inkscape:window-width="1366"
     inkscape:window-height="712"
     inkscape:window-x="-4"
     inkscape:window-y="-4"
     inkscape:window-maximized="1" />
  <metadata
     id="metadata3258">
    <rdf:RDF>
      <cc:Work
         rdf:about="">
        <dc:format>image/svg+xml</dc:format>
        <dc:type
           rdf:resource="http://purl.org/dc/dcmitype/StillImage" />
        <dc:title></dc:title>
      </cc:Work>
    </rdf:RDF>
  </metadata>
  <g
     inkscape:label="Layer 1"
     inkscape:groupmode="layer"
     id="layer1"
     transform="translate(386.53571,-79.044098)">
    <g
       style="font-size:144px;font-style:normal;font-variant:normal;font-weight:normal;font-stretch:normal;text-align:start;line-height:125%;letter-spacing:0px;word-spacing:0px;writing-mode:lr-tb;text-anchor:start;fill:#ff00ff;fill-opacity:1;stroke:#ffffff;stroke-width:6;stroke-miterlimit:4;stroke-opacity:1;font-family:Insaniburger;-inkscape-font-specification:Insaniburger"
       id="text4327-4">
      <path
         d="m -335.86383,176.96597 c 4.9743,0.49473 10.33383,-3.02222 10.59931,-8.28114 0.91098,-4.93448 -0.30675,-11.57107 -5.73272,-13.2933 -5.56817,-1.47106 -11.38884,-0.5541 -17.08648,-0.78493 -2.53608,0 -5.07216,0 -7.60824,0 0,-4.6875 0,-9.375 0,-14.0625 7.07054,-0.21353 14.21546,0.48589 21.23427,-0.47338 5.53141,-1.51963 7.34244,-7.91054 6.51979,-13.00722 -0.20733,-5.42162 -5.09715,-9.43401 -10.42567,-8.9879 -5.77417,-0.076 -11.55154,-0.006 -17.32839,-0.0315 0,-4.54688 0,-9.09375 0,-13.64063 8.00564,-0.22448 16.0856,0.50013 24.04094,-0.46821 5.51166,-1.49061 7.36326,-7.857776 6.52502,-12.935722 -0.17598,-5.880938 -5.79388,-9.562132 -11.32118,-8.966241 -12.19712,0.145162 -24.40496,-0.213113 -36.5991,0.18047 -5.50784,0.339169 -10.66426,4.977966 -10.34914,10.706875 -0.34569,11.424758 -0.007,22.865308 -0.13809,34.296528 0.0155,13.31738 -0.0893,26.63814 0.10047,39.95333 0.45182,5.67831 5.90813,9.80598 11.43379,9.60688 9.49253,0.4109 19.00384,0.0924 28.50552,0.18859 2.54328,0 5.08668,0 7.6299,0 z"
         id="path3271"
         inkscape:connector-curvature="0" />
    </g>
  </g>
</svg>
