<?xml version="1.0" encoding="UTF-8" standalone="no"?>
<!-- Created with Inkscape (http://www.inkscape.org/) -->

<svg
   xmlns:dc="http://purl.org/dc/elements/1.1/"
   xmlns:cc="http://creativecommons.org/ns#"
   xmlns:rdf="http://www.w3.org/1999/02/22-rdf-syntax-ns#"
   xmlns:svg="http://www.w3.org/2000/svg"
   xmlns="http://www.w3.org/2000/svg"
   xmlns:sodipodi="http://sodipodi.sourceforge.net/DTD/sodipodi-0.dtd"
   xmlns:inkscape="http://www.inkscape.org/namespaces/inkscape"
   width="101.78"
   height="101.78"
   id="svg3430"
   version="1.1"
   inkscape:version="0.48.3.1 r9886"
   sodipodi:docname="Big-J.svg">
  <defs
     id="defs3432" />
  <sodipodi:namedview
     id="base"
     pagecolor="#ffffff"
     bordercolor="#666666"
     borderopacity="1.0"
     inkscape:pageopacity="0.0"
     inkscape:pageshadow="2"
     inkscape:zoom="5.1589127"
     inkscape:cx="35.831044"
     inkscape:cy="50.883345"
     inkscape:document-units="px"
     inkscape:current-layer="layer1"
     showgrid="false"
     fit-margin-top="0"
     fit-margin-left="0"
     fit-margin-right="0"
     fit-margin-bottom="0"
     inkscape:window-width="1366"
     inkscape:window-height="712"
     inkscape:window-x="-4"
     inkscape:window-y="-4"
     inkscape:window-maximized="1"
     borderlayer="false" />
  <metadata
     id="metadata3435">
    <rdf:RDF>
      <cc:Work
         rdf:about="">
        <dc:format>image/svg+xml</dc:format>
        <dc:type
           rdf:resource="http://purl.org/dc/dcmitype/StillImage" />
        <dc:title />
      </cc:Work>
    </rdf:RDF>
  </metadata>
  <g
     inkscape:label="Layer 1"
     inkscape:groupmode="layer"
     id="layer1"
     transform="translate(-107.26407,-115.75125)">
    <g
       style="font-size:144px;font-style:normal;font-variant:normal;font-weight:normal;font-stretch:normal;text-align:start;line-height:125%;letter-spacing:0px;word-spacing:0px;writing-mode:lr-tb;text-anchor:start;fill:#ffff00;fill-opacity:1;stroke:#ffffff;stroke-width:6;stroke-miterlimit:4;stroke-opacity:1;font-family:Insaniburger;-inkscape-font-specification:Insaniburger"
       id="text4327-4-1"
       transform="translate(15.507144,0)">
      <path
         d="m 175.93918,187.95259 c 0.30112,8.34001 -3.4175,17.12075 -10.97261,21.23654 -11.11478,6.70166 -25.25255,6.62358 -37.29763,2.63305 -7.51925,-2.50601 -15.22664,-7.64429 -16.87471,-15.93128 -1.28674,-5.1141 -0.65623,-11.92646 4.68059,-14.48174 5.33064,-2.33361 11.89758,-2.52186 17.187,0.0396 4.72217,2.14881 4.49913,10.3524 11.04594,9.01754 3.92564,-0.14565 4.65274,-4.72501 4.38767,-7.83661 0.0357,-17.70348 -0.0717,-35.4103 0.0544,-53.11168 0.0104,-5.14929 4.03439,-9.67456 9.13621,-10.32273 5.83715,-0.9534 13.49934,-0.76188 17.00805,4.83881 2.57162,4.7342 1.35999,10.27867 1.64511,15.43009 0,16.16282 0,32.32563 0,48.48844 z"
         id="path3448"
         inkscape:connector-curvature="0" />
    </g>
  </g>
</svg>
