<?xml version="1.0" encoding="UTF-8" standalone="no"?>
<!-- Created with Inkscape (http://www.inkscape.org/) -->

<svg
   xmlns:osb="http://www.openswatchbook.org/uri/2009/osb"
   xmlns:dc="http://purl.org/dc/elements/1.1/"
   xmlns:cc="http://creativecommons.org/ns#"
   xmlns:rdf="http://www.w3.org/1999/02/22-rdf-syntax-ns#"
   xmlns:svg="http://www.w3.org/2000/svg"
   xmlns="http://www.w3.org/2000/svg"
   xmlns:sodipodi="http://sodipodi.sourceforge.net/DTD/sodipodi-0.dtd"
   xmlns:inkscape="http://www.inkscape.org/namespaces/inkscape"
   width="109.81921"
   height="84.608047"
   id="svg2"
   version="1.1"
   inkscape:version="0.48.3.1 r9886"
   sodipodi:docname="b.svg">
  <defs
     id="defs4">
    <linearGradient
       id="linearGradient5222"
       osb:paint="solid">
      <stop
         style="stop-color:#d14040;stop-opacity:1;"
         offset="0"
         id="stop5224" />
    </linearGradient>
    <linearGradient
       id="linearGradient3770"
       osb:paint="solid">
      <stop
         style="stop-color:#cea340;stop-opacity:1;"
         offset="0"
         id="stop3772" />
    </linearGradient>
    <filter
       inkscape:collect="always"
       id="filter5254"
       x="-0.10023763"
       width="1.2004753"
       y="-0.13350469"
       height="1.2670094">
      <feGaussianBlur
         inkscape:collect="always"
         stdDeviation="4.2271699"
         id="feGaussianBlur5256" />
    </filter>
  </defs>
  <sodipodi:namedview
     id="base"
     pagecolor="#ffffff"
     bordercolor="#666666"
     borderopacity="1.0"
     inkscape:pageopacity="0.0"
     inkscape:pageshadow="2"
     inkscape:zoom="4.3435585"
     inkscape:cx="111.57243"
     inkscape:cy="38.012793"
     inkscape:document-units="px"
     inkscape:current-layer="layer1"
     showgrid="false"
     fit-margin-top="0"
     fit-margin-left="0"
     fit-margin-right="0"
     fit-margin-bottom="0"
     inkscape:window-width="1366"
     inkscape:window-height="712"
     inkscape:window-x="-4"
     inkscape:window-y="-4"
     inkscape:window-maximized="1" />
  <metadata
     id="metadata7">
    <rdf:RDF>
      <cc:Work
         rdf:about="">
        <dc:format>image/svg+xml</dc:format>
        <dc:type
           rdf:resource="http://purl.org/dc/dcmitype/StillImage" />
        <dc:title></dc:title>
      </cc:Work>
    </rdf:RDF>
  </metadata>
  <g
     inkscape:label="Calque 1"
     inkscape:groupmode="layer"
     id="layer1"
     transform="translate(-142.8411,-350.62839)">
    <path
       style="fill:#ff80b2;fill-rule:evenodd;stroke:#ea3865;stroke-width:8.60000038;stroke-linecap:butt;stroke-linejoin:bevel;stroke-miterlimit:4;stroke-opacity:1;stroke-dasharray:none"
       d="m 157.67463,363.42638 67.57424,-8.37917 c 9.01147,-1.11741 24.24657,7.68138 23.03641,18.40975 L 243.678,414.3016 c -0.98577,8.73901 -6.04636,17.17939 -11.8473,16.61421 l -67.57424,-6.58363 c -5.80093,-0.56517 -16.33914,-8.00096 -16.45458,-14.22016 l -0.65819,-35.45804 c -0.11544,-6.2192 4.7503,-10.51081 10.53094,-11.2276 z"
       id="rect2985"
       inkscape:connector-curvature="0"
       sodipodi:nodetypes="sssssssss" />
    <text
       xml:space="preserve"
       style="font-size:60.30599213px;font-style:normal;font-weight:normal;line-height:125%;letter-spacing:0px;word-spacing:0px;fill:#000000;fill-opacity:1;stroke:none;font-family:Bitstream Vera Sans"
       x="183.91928"
       y="398.81656"
       id="text2988"
       sodipodi:linespacing="125%"
       transform="scale(0.96698196,1.0341455)"><tspan
         sodipodi:role="line"
         id="tspan2990"
         x="183.91928"
         y="398.81656">A</tspan></text>
    <path
       sodipodi:nodetypes="sssssssss"
       inkscape:connector-curvature="0"
       id="path5228"
       d="m 157.67463,363.42638 67.57424,-8.37917 c 9.01147,-1.11741 24.24657,7.68138 23.03641,18.40975 L 243.678,414.3016 c -0.98577,8.73901 -6.04636,17.17939 -11.8473,16.61421 l -67.57424,-6.58363 c -5.80093,-0.56517 -16.33914,-8.00096 -16.45458,-14.22016 l -0.65819,-35.45804 c -0.11544,-6.2192 4.7503,-10.51081 10.53094,-11.2276 z"
       style="fill:#ff80b2;fill-rule:evenodd;stroke:#ea3865;stroke-width:8.59999999999999790;stroke-linecap:butt;stroke-linejoin:bevel;stroke-miterlimit:4;stroke-opacity:1;stroke-dasharray:none;opacity:1;filter:url(#filter5254)" />
    <g
       transform="scale(1.091543,0.91613434)"
       style="font-size:79.30808258px;font-style:normal;font-weight:normal;line-height:125%;letter-spacing:0px;word-spacing:0px;fill:#000000;fill-opacity:1;stroke:none;font-family:Sans"
       id="text3001">
      <path
         d="m 194.55484,435.64073 7.51258,1.8975 c -1.57486,6.17014 -4.40821,10.87518 -8.50006,14.11514 -4.09195,3.23996 -9.09388,4.85994 -15.0058,4.85994 -6.11852,0 -11.09463,-1.24564 -14.92836,-3.73693 -3.83375,-2.49128 -6.751,-6.09912 -8.75177,-10.82354 -2.00078,-4.72438 -3.00116,-9.79731 -3.00116,-15.21878 0,-5.91193 1.12947,-11.06876 3.38841,-15.4705 2.25893,-4.40165 5.47307,-7.74488 9.64244,-10.02968 4.16933,-2.2847 8.7582,-3.42708 13.76661,-3.42714 5.67958,6e-5 10.45561,1.44578 14.32812,4.33716 3.87242,2.8915 6.57023,6.95758 8.09345,12.19827 l -7.39641,1.74261 c -1.31668,-4.13059 -3.22709,-7.1382 -5.73124,-9.02284 -2.50423,-1.88455 -5.65384,-2.82685 -9.44882,-2.8269 -4.363,5e-5 -8.00957,1.04561 -10.93971,3.13669 -2.93018,2.09118 -4.98904,4.89871 -6.17658,8.42261 -1.18757,3.52398 -1.78135,7.15764 -1.78134,10.90099 -1e-5,4.8277 0.70349,9.04223 2.1105,12.6436 1.40698,3.60141 3.59492,6.29277 6.56382,8.07409 2.96887,1.78134 6.18301,2.67201 9.64244,2.672 4.20805,1e-5 7.77071,-1.21336 10.68801,-3.64012 2.91721,-2.42673 4.89216,-6.02812 5.92487,-10.80417 z"
         style="fill:#00ff00"
         id="path3006" />
    </g>
  </g>
</svg>
