<?xml version="1.0" encoding="UTF-8" standalone="no"?>
<!-- Created with Inkscape (http://www.inkscape.org/) -->

<svg
   xmlns:dc="http://purl.org/dc/elements/1.1/"
   xmlns:cc="http://creativecommons.org/ns#"
   xmlns:rdf="http://www.w3.org/1999/02/22-rdf-syntax-ns#"
   xmlns:svg="http://www.w3.org/2000/svg"
   xmlns="http://www.w3.org/2000/svg"
   xmlns:xlink="http://www.w3.org/1999/xlink"
   xmlns:sodipodi="http://sodipodi.sourceforge.net/DTD/sodipodi-0.dtd"
   xmlns:inkscape="http://www.inkscape.org/namespaces/inkscape"
   width="44.042751"
   height="50.856182"
   id="svg5784"
   version="1.1"
   inkscape:version="0.48.2 r9819"
   sodipodi:docname="New document 7">
  <defs
     id="defs5786">
    <linearGradient
       inkscape:collect="always"
       xlink:href="#linearGradient7246-4"
       id="linearGradient5585"
       gradientUnits="userSpaceOnUse"
       gradientTransform="matrix(-1,0,0,1,891.04504,-224.23129)"
       x1="476.04504"
       y1="539.23126"
       x2="476.04504"
       y2="575.23126" />
    <linearGradient
       inkscape:collect="always"
       id="linearGradient7246-4">
      <stop
         style="stop-color:#fbbaf8;stop-opacity:1;"
         offset="0"
         id="stop7248-5" />
      <stop
         style="stop-color:#f11be8;stop-opacity:1"
         offset="1"
         id="stop7250-5" />
    </linearGradient>
    <linearGradient
       inkscape:collect="always"
       xlink:href="#linearGradient7246-4"
       id="linearGradient5587"
       gradientUnits="userSpaceOnUse"
       gradientTransform="matrix(-0.5,-0.8660254,-0.8660254,0.5,1151.1874,475.65145)"
       x1="476.04504"
       y1="539.23126"
       x2="476.04504"
       y2="575.23126" />
    <linearGradient
       inkscape:collect="always"
       xlink:href="#linearGradient7246-4"
       id="linearGradient5589"
       gradientUnits="userSpaceOnUse"
       gradientTransform="matrix(0.5,-0.8660254,-0.8660254,-0.5,675.14239,1050.8827)"
       x1="476.04504"
       y1="539.23126"
       x2="476.04504"
       y2="575.23126" />
    <linearGradient
       inkscape:collect="always"
       xlink:href="#linearGradient7246-4"
       id="linearGradient5591"
       gradientUnits="userSpaceOnUse"
       gradientTransform="matrix(1,0,0,-1,-61.04504,926.23129)"
       x1="476.04504"
       y1="539.23126"
       x2="476.04504"
       y2="575.23126" />
    <linearGradient
       inkscape:collect="always"
       xlink:href="#linearGradient7246-4"
       id="linearGradient5593"
       gradientUnits="userSpaceOnUse"
       gradientTransform="matrix(0.5,0.8660254,0.8660254,-0.5,-321.18743,226.34855)"
       x1="476.04504"
       y1="539.23126"
       x2="476.04504"
       y2="575.23126" />
    <linearGradient
       inkscape:collect="always"
       xlink:href="#linearGradient7246-4"
       id="linearGradient5595"
       gradientUnits="userSpaceOnUse"
       gradientTransform="matrix(-0.5,0.8660254,0.8660254,0.5,154.85761,-348.88274)"
       x1="476.04504"
       y1="539.23126"
       x2="476.04504"
       y2="575.23126" />
  </defs>
  <sodipodi:namedview
     id="base"
     pagecolor="#ffffff"
     bordercolor="#666666"
     borderopacity="1.0"
     inkscape:pageopacity="0.0"
     inkscape:pageshadow="2"
     inkscape:zoom="10.755821"
     inkscape:cx="22.02137"
     inkscape:cy="25.428089"
     inkscape:document-units="px"
     inkscape:current-layer="layer1"
     showgrid="false"
     fit-margin-top="0"
     fit-margin-left="0"
     fit-margin-right="0"
     fit-margin-bottom="0"
     inkscape:window-width="1366"
     inkscape:window-height="712"
     inkscape:window-x="-4"
     inkscape:window-y="-4"
     inkscape:window-maximized="1" />
  <metadata
     id="metadata5789">
    <rdf:RDF>
      <cc:Work
         rdf:about="">
        <dc:format>image/svg+xml</dc:format>
        <dc:type
           rdf:resource="http://purl.org/dc/dcmitype/StillImage" />
        <dc:title></dc:title>
      </cc:Work>
    </rdf:RDF>
  </metadata>
  <g
     inkscape:label="Layer 1"
     inkscape:groupmode="layer"
     id="layer1"
     transform="translate(-352.97863,-506.93409)">
    <g
       transform="matrix(0.55564702,0,0,0.55564702,92.731314,312.88161)"
       id="g9699"
       style="display:inline">
      <g
         id="g9701"
         transform="translate(93,44)">
        <path
           sodipodi:nodetypes="ccccccccccc"
           inkscape:connector-curvature="0"
           id="path9703"
           d="m 418,348 c 6,-6 7,-5 9,-12 1,-7 1.42521,-14.76214 -2,-19 -3.21388,-4.29463 -4.20389,-3.96344 -7,-6 -2,-2 -2.14639,-3.16701 -3,-5.76303 -0.85361,2.59602 -1,3.76303 -3,5.76303 -2.79611,2.03656 -3.78612,1.70537 -7,6 -3.42521,4.23786 -3,12 -2,19 2,7 3,6 9,12 2,3 1.15164,4.05055 3,6.08053 C 416.84836,352.05055 416,351 418,348 z"
           style="fill:url(#linearGradient5585);fill-opacity:1;stroke:none"
           inkscape:transform-center-y="-21.34125"
           inkscape:tile-cx="415"
           inkscape:tile-cy="351"
           inkscape:tile-w="25.429126"
           inkscape:tile-h="48.84356"
           inkscape:tile-x0="402.28544"
           inkscape:tile-y0="305.23697" />
        <path
           inkscape:tile-y0="305.23697"
           inkscape:tile-x0="402.28544"
           inkscape:transform-center-y="-21.34125"
           style="fill:url(#linearGradient5587);fill-opacity:1;stroke:none"
           d="m 419.09808,352.09808 c 8.19615,2.19615 7.83013,3.56217 14.89231,1.79423 6.56217,-2.63398 13.49699,-6.14681 15.45448,-11.23206 2.11232,-4.93061 1.33049,-5.62239 1.69615,-9.06217 0.73205,-2.73205 1.66952,-3.44234 3.49093,-5.47959 -2.67502,0.55876 -3.75888,1.01549 -6.49093,0.28343 -3.16177,-1.40322 -3.36995,-2.42619 -8.69615,-3.06217 -5.3827,-0.84739 -11.89231,3.40192 -17.45448,7.76795 -5.06218,5.23205 -3.69616,5.59807 -5.89231,13.79422 -1.59808,3.23206 -2.93206,3.02263 -3.76589,5.63835 2.68219,0.58573 3.16781,-0.67424 6.76589,-0.44219 z"
           id="path9705"
           inkscape:connector-curvature="0"
           sodipodi:nodetypes="ccccccccccc" />
        <path
           inkscape:tile-y0="305.23697"
           inkscape:tile-x0="402.28544"
           inkscape:transform-center-y="-21.34125"
           style="fill:url(#linearGradient5589);fill-opacity:1;stroke:none"
           d="m 416.09808,355.09808 c 2.19615,8.19615 0.83013,8.56217 5.89231,13.79423 5.56217,4.36602 12.07178,8.61533 17.45448,7.76794 5.3262,-0.63598 5.53438,-1.65895 8.69615,-3.06217 2.73205,-0.73205 3.81591,-0.27533 6.49093,0.28344 -1.82141,-2.03726 -2.75888,-2.74754 -3.49093,-5.4796 -0.36566,-3.43978 0.41617,-4.13156 -1.69615,-9.06217 -1.95749,-5.08525 -8.89231,-8.59808 -15.45448,-11.23205 -7.06218,-1.76795 -6.69616,-0.40193 -14.89231,1.79422 -3.59808,0.23206 -4.0837,-1.02792 -6.76589,-0.44218 0.83383,2.61571 2.16781,2.40629 3.76589,5.63834 z"
           id="path9707"
           inkscape:connector-curvature="0"
           sodipodi:nodetypes="ccccccccccc" />
        <path
           inkscape:tile-y0="305.23697"
           inkscape:tile-x0="402.28544"
           inkscape:transform-center-y="-21.34125"
           style="fill:url(#linearGradient5591);fill-opacity:1;stroke:none"
           d="m 412,354 c -6,6 -7,5 -9,12 -1,7 -1.42521,14.76214 2,19 3.21388,4.29463 4.20389,3.96344 7,6 2,2 2.14639,3.16701 3,5.76303 0.85361,-2.59602 1,-3.76303 3,-5.76303 2.79611,-2.03656 3.78612,-1.70537 7,-6 3.42521,-4.23786 3,-12 2,-19 -2,-7 -3,-6 -9,-12 -2,-3 -1.15164,-4.05055 -3,-6.08053 C 413.15164,349.94945 414,351 412,354 z"
           id="path9709"
           inkscape:connector-curvature="0"
           sodipodi:nodetypes="ccccccccccc" />
        <path
           inkscape:tile-y0="305.23697"
           inkscape:tile-x0="402.28544"
           inkscape:transform-center-y="-21.34125"
           style="fill:url(#linearGradient5593);fill-opacity:1;stroke:none"
           d="m 410.90192,349.90192 c -8.19615,-2.19615 -7.83013,-3.56218 -14.89231,-1.79423 -6.56217,2.63398 -13.49699,6.14681 -15.45448,11.23205 -2.11232,4.93062 -1.33049,5.6224 -1.69615,9.06218 -0.73205,2.73205 -1.66952,3.44234 -3.49093,5.47959 2.67502,-0.55876 3.75888,-1.01549 6.49093,-0.28343 3.16177,1.40322 3.36995,2.42619 8.69615,3.06217 5.3827,0.84739 11.89231,-3.40192 17.45448,-7.76795 5.06218,-5.23205 3.69616,-5.59807 5.89231,-13.79422 1.59808,-3.23206 2.93206,-3.02263 3.76589,-5.63835 -2.68219,-0.58573 -3.16781,0.67424 -6.76589,0.44219 z"
           id="path9711"
           inkscape:connector-curvature="0"
           sodipodi:nodetypes="ccccccccccc" />
        <path
           inkscape:tile-y0="305.23697"
           inkscape:tile-x0="402.28544"
           inkscape:transform-center-y="-21.34125"
           style="fill:url(#linearGradient5595);fill-opacity:1;stroke:none"
           d="m 413.90192,346.90192 c -2.19615,-8.19615 -0.83012,-8.56218 -5.8923,-13.79423 -5.56218,-4.36602 -12.07179,-8.61533 -17.45449,-7.76795 -5.32619,0.63599 -5.53438,1.65896 -8.69615,3.06218 -2.73205,0.73205 -3.8159,0.27533 -6.49093,-0.28344 1.82142,2.03726 2.75888,2.74754 3.49093,5.4796 0.36566,3.43978 -0.41616,4.13156 1.69615,9.06217 1.95749,5.08525 8.89231,8.59808 15.45449,11.23205 7.06218,1.76795 6.69615,0.40193 14.8923,-1.79422 3.59808,-0.23206 4.0837,1.02792 6.7659,0.44218 -0.83384,-2.61571 -2.16782,-2.40629 -3.7659,-5.63834 z"
           id="path9713"
           inkscape:connector-curvature="0"
           sodipodi:nodetypes="ccccccccccc" />
      </g>
      <path
         sodipodi:type="star"
         style="fill:#ee395c;fill-opacity:1;fill-rule:nonzero;stroke:none"
         id="path9715"
         sodipodi:sides="10"
         sodipodi:cx="200"
         sodipodi:cy="180"
         sodipodi:r1="44.721359"
         sodipodi:r2="25.827057"
         sodipodi:arg1="0.46364761"
         sodipodi:arg2="0.77780687"
         inkscape:flatsided="false"
         inkscape:rounded="0"
         inkscape:randomized="0"
         d="m 240,200 -21.5994,-1.87667 2.20437,21.56842 -16.3712,-14.21407 -10.89422,18.74492 -4.88976,-21.12218 -19.8316,8.7615 8.45941,-19.96233 -21.19398,-4.56852 18.57736,-11.17755 L 160,160 l 21.5994,1.87667 -2.20437,-21.56842 16.3712,14.21407 10.89422,-18.74492 4.88976,21.12218 19.8316,-8.7615 -8.45941,19.96233 21.19398,4.56852 -18.57736,11.17755 z"
         transform="matrix(0.27301664,0,0,0.22975617,453.39667,353.64389)" />
    </g>
  </g>
</svg>
