<?xml version="1.0" encoding="UTF-8" standalone="no"?>
<!-- Created with Inkscape (http://www.inkscape.org/) -->

<svg
   xmlns:dc="http://purl.org/dc/elements/1.1/"
   xmlns:cc="http://creativecommons.org/ns#"
   xmlns:rdf="http://www.w3.org/1999/02/22-rdf-syntax-ns#"
   xmlns:svg="http://www.w3.org/2000/svg"
   xmlns="http://www.w3.org/2000/svg"
   xmlns:xlink="http://www.w3.org/1999/xlink"
   xmlns:sodipodi="http://sodipodi.sourceforge.net/DTD/sodipodi-0.dtd"
   xmlns:inkscape="http://www.inkscape.org/namespaces/inkscape"
   width="256"
   height="189.65141"
   id="svg4369"
   version="1.1"
   inkscape:version="0.48.2 r9819"
   sodipodi:docname="New document 3">
  <defs
     id="defs4371">
    <inkscape:path-effect
       is_visible="true"
       id="path-effect7213"
       effect="spiro" />
    <inkscape:path-effect
       fuse_tolerance="0"
       vertical_pattern="false"
       prop_units="false"
       tang_offset="0"
       normal_offset="0"
       spacing="0"
       scale_y_rel="false"
       prop_scale="1"
       copytype="single_stretched"
       pattern="m 848.95142,2.198548 0,10 10,-5 z"
       is_visible="true"
       id="path-effect7215"
       effect="skeletal" />
    <linearGradient
       inkscape:collect="always"
       xlink:href="#linearGradient7246-6"
       id="linearGradient9793"
       gradientUnits="userSpaceOnUse"
       gradientTransform="matrix(-1,0,0,1,891.04504,-224.23129)"
       x1="476.04504"
       y1="539.23126"
       x2="476.04504"
       y2="575.23126" />
    <linearGradient
       inkscape:collect="always"
       id="linearGradient7246-6">
      <stop
         style="stop-color:#fbbaf8;stop-opacity:1;"
         offset="0"
         id="stop7248-8" />
      <stop
         style="stop-color:#f11be8;stop-opacity:1"
         offset="1"
         id="stop7250-57" />
    </linearGradient>
    <linearGradient
       inkscape:collect="always"
       xlink:href="#linearGradient7246-6"
       id="linearGradient9795"
       gradientUnits="userSpaceOnUse"
       gradientTransform="matrix(-0.5,-0.8660254,-0.8660254,0.5,1151.1874,475.65145)"
       x1="476.04504"
       y1="539.23126"
       x2="476.04504"
       y2="575.23126" />
    <linearGradient
       inkscape:collect="always"
       xlink:href="#linearGradient7246-6"
       id="linearGradient9797"
       gradientUnits="userSpaceOnUse"
       gradientTransform="matrix(0.5,-0.8660254,-0.8660254,-0.5,675.14239,1050.8827)"
       x1="476.04504"
       y1="539.23126"
       x2="476.04504"
       y2="575.23126" />
    <linearGradient
       inkscape:collect="always"
       xlink:href="#linearGradient7246-6"
       id="linearGradient9799"
       gradientUnits="userSpaceOnUse"
       gradientTransform="matrix(1,0,0,-1,-61.04504,926.23129)"
       x1="476.04504"
       y1="539.23126"
       x2="476.04504"
       y2="575.23126" />
    <linearGradient
       inkscape:collect="always"
       xlink:href="#linearGradient7246-6"
       id="linearGradient9801"
       gradientUnits="userSpaceOnUse"
       gradientTransform="matrix(0.5,0.8660254,0.8660254,-0.5,-321.18743,226.34855)"
       x1="476.04504"
       y1="539.23126"
       x2="476.04504"
       y2="575.23126" />
    <linearGradient
       inkscape:collect="always"
       xlink:href="#linearGradient7246-6"
       id="linearGradient9803"
       gradientUnits="userSpaceOnUse"
       gradientTransform="matrix(-0.5,0.8660254,0.8660254,0.5,154.85761,-348.88274)"
       x1="476.04504"
       y1="539.23126"
       x2="476.04504"
       y2="575.23126" />
    <linearGradient
       inkscape:collect="always"
       xlink:href="#linearGradient7246-1"
       id="linearGradient9805"
       gradientUnits="userSpaceOnUse"
       gradientTransform="matrix(-1,0,0,1,891.04504,-224.23129)"
       x1="476.04504"
       y1="539.23126"
       x2="476.04504"
       y2="575.23126" />
    <linearGradient
       inkscape:collect="always"
       id="linearGradient7246-1">
      <stop
         style="stop-color:#fbbaf8;stop-opacity:1;"
         offset="0"
         id="stop7248-1" />
      <stop
         style="stop-color:#f11be8;stop-opacity:1"
         offset="1"
         id="stop7250-3" />
    </linearGradient>
    <linearGradient
       inkscape:collect="always"
       xlink:href="#linearGradient7246-1"
       id="linearGradient9807"
       gradientUnits="userSpaceOnUse"
       gradientTransform="matrix(-0.5,-0.8660254,-0.8660254,0.5,1151.1874,475.65145)"
       x1="476.04504"
       y1="539.23126"
       x2="476.04504"
       y2="575.23126" />
    <linearGradient
       inkscape:collect="always"
       xlink:href="#linearGradient7246-1"
       id="linearGradient9809"
       gradientUnits="userSpaceOnUse"
       gradientTransform="matrix(0.5,-0.8660254,-0.8660254,-0.5,675.14239,1050.8827)"
       x1="476.04504"
       y1="539.23126"
       x2="476.04504"
       y2="575.23126" />
    <linearGradient
       inkscape:collect="always"
       xlink:href="#linearGradient7246-1"
       id="linearGradient9811"
       gradientUnits="userSpaceOnUse"
       gradientTransform="matrix(1,0,0,-1,-61.04504,926.23129)"
       x1="476.04504"
       y1="539.23126"
       x2="476.04504"
       y2="575.23126" />
    <linearGradient
       inkscape:collect="always"
       xlink:href="#linearGradient7246-1"
       id="linearGradient9813"
       gradientUnits="userSpaceOnUse"
       gradientTransform="matrix(0.5,0.8660254,0.8660254,-0.5,-321.18743,226.34855)"
       x1="476.04504"
       y1="539.23126"
       x2="476.04504"
       y2="575.23126" />
    <linearGradient
       inkscape:collect="always"
       xlink:href="#linearGradient7246-1"
       id="linearGradient9815"
       gradientUnits="userSpaceOnUse"
       gradientTransform="matrix(-0.5,0.8660254,0.8660254,0.5,154.85761,-348.88274)"
       x1="476.04504"
       y1="539.23126"
       x2="476.04504"
       y2="575.23126" />
    <linearGradient
       inkscape:collect="always"
       xlink:href="#linearGradient7246-1"
       id="linearGradient9817"
       gradientUnits="userSpaceOnUse"
       gradientTransform="matrix(-1,0,0,1,891.04504,-224.23129)"
       x1="476.04504"
       y1="539.23126"
       x2="476.04504"
       y2="575.23126" />
    <linearGradient
       inkscape:collect="always"
       xlink:href="#linearGradient7246-1"
       id="linearGradient9819"
       gradientUnits="userSpaceOnUse"
       gradientTransform="matrix(-0.5,-0.8660254,-0.8660254,0.5,1151.1874,475.65145)"
       x1="476.04504"
       y1="539.23126"
       x2="476.04504"
       y2="575.23126" />
    <linearGradient
       inkscape:collect="always"
       xlink:href="#linearGradient7246-1"
       id="linearGradient9821"
       gradientUnits="userSpaceOnUse"
       gradientTransform="matrix(0.5,-0.8660254,-0.8660254,-0.5,675.14239,1050.8827)"
       x1="476.04504"
       y1="539.23126"
       x2="476.04504"
       y2="575.23126" />
    <linearGradient
       inkscape:collect="always"
       xlink:href="#linearGradient7246-1"
       id="linearGradient9823"
       gradientUnits="userSpaceOnUse"
       gradientTransform="matrix(1,0,0,-1,-61.04504,926.23129)"
       x1="476.04504"
       y1="539.23126"
       x2="476.04504"
       y2="575.23126" />
    <linearGradient
       inkscape:collect="always"
       xlink:href="#linearGradient7246-1"
       id="linearGradient9825"
       gradientUnits="userSpaceOnUse"
       gradientTransform="matrix(0.5,0.8660254,0.8660254,-0.5,-321.18743,226.34855)"
       x1="476.04504"
       y1="539.23126"
       x2="476.04504"
       y2="575.23126" />
    <linearGradient
       inkscape:collect="always"
       xlink:href="#linearGradient7246-1"
       id="linearGradient9827"
       gradientUnits="userSpaceOnUse"
       gradientTransform="matrix(-0.5,0.8660254,0.8660254,0.5,154.85761,-348.88274)"
       x1="476.04504"
       y1="539.23126"
       x2="476.04504"
       y2="575.23126" />
    <inkscape:path-effect
       is_visible="true"
       id="path-effect7253"
       effect="spiro" />
    <inkscape:path-effect
       fuse_tolerance="0"
       vertical_pattern="false"
       prop_units="false"
       tang_offset="0"
       normal_offset="0"
       spacing="0"
       scale_y_rel="false"
       prop_scale="1"
       copytype="single_stretched"
       pattern="m 848.95142,2.198548 0,10 10,-5 z"
       is_visible="true"
       id="path-effect7255"
       effect="skeletal" />
    <linearGradient
       inkscape:collect="always"
       xlink:href="#linearGradient7246-4"
       id="linearGradient9829"
       gradientUnits="userSpaceOnUse"
       gradientTransform="matrix(-1,0,0,1,891.04504,-224.23129)"
       x1="476.04504"
       y1="539.23126"
       x2="476.04504"
       y2="575.23126" />
    <linearGradient
       inkscape:collect="always"
       id="linearGradient7246-4">
      <stop
         style="stop-color:#fbbaf8;stop-opacity:1;"
         offset="0"
         id="stop7248-5" />
      <stop
         style="stop-color:#f11be8;stop-opacity:1"
         offset="1"
         id="stop7250-5" />
    </linearGradient>
    <linearGradient
       inkscape:collect="always"
       xlink:href="#linearGradient7246-4"
       id="linearGradient9831"
       gradientUnits="userSpaceOnUse"
       gradientTransform="matrix(-0.5,-0.8660254,-0.8660254,0.5,1151.1874,475.65145)"
       x1="476.04504"
       y1="539.23126"
       x2="476.04504"
       y2="575.23126" />
    <linearGradient
       inkscape:collect="always"
       xlink:href="#linearGradient7246-4"
       id="linearGradient9833"
       gradientUnits="userSpaceOnUse"
       gradientTransform="matrix(0.5,-0.8660254,-0.8660254,-0.5,675.14239,1050.8827)"
       x1="476.04504"
       y1="539.23126"
       x2="476.04504"
       y2="575.23126" />
    <linearGradient
       inkscape:collect="always"
       xlink:href="#linearGradient7246-4"
       id="linearGradient9835"
       gradientUnits="userSpaceOnUse"
       gradientTransform="matrix(1,0,0,-1,-61.04504,926.23129)"
       x1="476.04504"
       y1="539.23126"
       x2="476.04504"
       y2="575.23126" />
    <linearGradient
       inkscape:collect="always"
       xlink:href="#linearGradient7246-4"
       id="linearGradient9837"
       gradientUnits="userSpaceOnUse"
       gradientTransform="matrix(0.5,0.8660254,0.8660254,-0.5,-321.18743,226.34855)"
       x1="476.04504"
       y1="539.23126"
       x2="476.04504"
       y2="575.23126" />
    <linearGradient
       inkscape:collect="always"
       xlink:href="#linearGradient7246-4"
       id="linearGradient9839"
       gradientUnits="userSpaceOnUse"
       gradientTransform="matrix(-0.5,0.8660254,0.8660254,0.5,154.85761,-348.88274)"
       x1="476.04504"
       y1="539.23126"
       x2="476.04504"
       y2="575.23126" />
    <linearGradient
       inkscape:collect="always"
       xlink:href="#linearGradient7246-1"
       id="linearGradient9841"
       gradientUnits="userSpaceOnUse"
       gradientTransform="matrix(-1,0,0,1,891.04504,-224.23129)"
       x1="476.04504"
       y1="539.23126"
       x2="476.04504"
       y2="575.23126" />
    <linearGradient
       inkscape:collect="always"
       xlink:href="#linearGradient7246-1"
       id="linearGradient9843"
       gradientUnits="userSpaceOnUse"
       gradientTransform="matrix(-0.5,-0.8660254,-0.8660254,0.5,1151.1874,475.65145)"
       x1="476.04504"
       y1="539.23126"
       x2="476.04504"
       y2="575.23126" />
    <linearGradient
       inkscape:collect="always"
       xlink:href="#linearGradient7246-1"
       id="linearGradient9845"
       gradientUnits="userSpaceOnUse"
       gradientTransform="matrix(0.5,-0.8660254,-0.8660254,-0.5,675.14239,1050.8827)"
       x1="476.04504"
       y1="539.23126"
       x2="476.04504"
       y2="575.23126" />
    <linearGradient
       inkscape:collect="always"
       xlink:href="#linearGradient7246-1"
       id="linearGradient9847"
       gradientUnits="userSpaceOnUse"
       gradientTransform="matrix(1,0,0,-1,-61.04504,926.23129)"
       x1="476.04504"
       y1="539.23126"
       x2="476.04504"
       y2="575.23126" />
    <linearGradient
       inkscape:collect="always"
       xlink:href="#linearGradient7246-1"
       id="linearGradient9849"
       gradientUnits="userSpaceOnUse"
       gradientTransform="matrix(0.5,0.8660254,0.8660254,-0.5,-321.18743,226.34855)"
       x1="476.04504"
       y1="539.23126"
       x2="476.04504"
       y2="575.23126" />
    <linearGradient
       inkscape:collect="always"
       xlink:href="#linearGradient7246-1"
       id="linearGradient9851"
       gradientUnits="userSpaceOnUse"
       gradientTransform="matrix(-0.5,0.8660254,0.8660254,0.5,154.85761,-348.88274)"
       x1="476.04504"
       y1="539.23126"
       x2="476.04504"
       y2="575.23126" />
    <linearGradient
       inkscape:collect="always"
       xlink:href="#linearGradient7246"
       id="linearGradient9853"
       gradientUnits="userSpaceOnUse"
       gradientTransform="matrix(-1,0,0,1,891.04504,-224.23129)"
       x1="476.04504"
       y1="539.23126"
       x2="476.04504"
       y2="575.23126" />
    <linearGradient
       inkscape:collect="always"
       id="linearGradient7246">
      <stop
         style="stop-color:#fbbaf8;stop-opacity:1;"
         offset="0"
         id="stop7248" />
      <stop
         style="stop-color:#f11be8;stop-opacity:1"
         offset="1"
         id="stop7250" />
    </linearGradient>
    <linearGradient
       inkscape:collect="always"
       xlink:href="#linearGradient7246"
       id="linearGradient9855"
       gradientUnits="userSpaceOnUse"
       gradientTransform="matrix(-0.5,-0.8660254,-0.8660254,0.5,1151.1874,475.65145)"
       x1="476.04504"
       y1="539.23126"
       x2="476.04504"
       y2="575.23126" />
    <linearGradient
       inkscape:collect="always"
       xlink:href="#linearGradient7246"
       id="linearGradient9857"
       gradientUnits="userSpaceOnUse"
       gradientTransform="matrix(0.5,-0.8660254,-0.8660254,-0.5,675.14239,1050.8827)"
       x1="476.04504"
       y1="539.23126"
       x2="476.04504"
       y2="575.23126" />
    <linearGradient
       inkscape:collect="always"
       xlink:href="#linearGradient7246"
       id="linearGradient9859"
       gradientUnits="userSpaceOnUse"
       gradientTransform="matrix(1,0,0,-1,-61.04504,926.23129)"
       x1="476.04504"
       y1="539.23126"
       x2="476.04504"
       y2="575.23126" />
    <linearGradient
       inkscape:collect="always"
       xlink:href="#linearGradient7246"
       id="linearGradient9861"
       gradientUnits="userSpaceOnUse"
       gradientTransform="matrix(0.5,0.8660254,0.8660254,-0.5,-321.18743,226.34855)"
       x1="476.04504"
       y1="539.23126"
       x2="476.04504"
       y2="575.23126" />
    <linearGradient
       inkscape:collect="always"
       xlink:href="#linearGradient7246"
       id="linearGradient9863"
       gradientUnits="userSpaceOnUse"
       gradientTransform="matrix(-0.5,0.8660254,0.8660254,0.5,154.85761,-348.88274)"
       x1="476.04504"
       y1="539.23126"
       x2="476.04504"
       y2="575.23126" />
    <linearGradient
       inkscape:collect="always"
       xlink:href="#linearGradient7246-0"
       id="linearGradient9865"
       gradientUnits="userSpaceOnUse"
       gradientTransform="matrix(-1,0,0,1,891.04504,-224.23129)"
       x1="476.04504"
       y1="539.23126"
       x2="476.04504"
       y2="575.23126" />
    <linearGradient
       inkscape:collect="always"
       id="linearGradient7246-0">
      <stop
         style="stop-color:#fbbaf8;stop-opacity:1;"
         offset="0"
         id="stop7248-2" />
      <stop
         style="stop-color:#f11be8;stop-opacity:1"
         offset="1"
         id="stop7250-4" />
    </linearGradient>
    <linearGradient
       inkscape:collect="always"
       xlink:href="#linearGradient7246-0"
       id="linearGradient9867"
       gradientUnits="userSpaceOnUse"
       gradientTransform="matrix(-0.5,-0.8660254,-0.8660254,0.5,1151.1874,475.65145)"
       x1="476.04504"
       y1="539.23126"
       x2="476.04504"
       y2="575.23126" />
    <linearGradient
       inkscape:collect="always"
       xlink:href="#linearGradient7246-0"
       id="linearGradient9869"
       gradientUnits="userSpaceOnUse"
       gradientTransform="matrix(0.5,-0.8660254,-0.8660254,-0.5,675.14239,1050.8827)"
       x1="476.04504"
       y1="539.23126"
       x2="476.04504"
       y2="575.23126" />
    <linearGradient
       inkscape:collect="always"
       xlink:href="#linearGradient7246-0"
       id="linearGradient9871"
       gradientUnits="userSpaceOnUse"
       gradientTransform="matrix(1,0,0,-1,-61.04504,926.23129)"
       x1="476.04504"
       y1="539.23126"
       x2="476.04504"
       y2="575.23126" />
    <linearGradient
       inkscape:collect="always"
       xlink:href="#linearGradient7246-0"
       id="linearGradient9873"
       gradientUnits="userSpaceOnUse"
       gradientTransform="matrix(0.5,0.8660254,0.8660254,-0.5,-321.18743,226.34855)"
       x1="476.04504"
       y1="539.23126"
       x2="476.04504"
       y2="575.23126" />
    <linearGradient
       inkscape:collect="always"
       xlink:href="#linearGradient7246-0"
       id="linearGradient9875"
       gradientUnits="userSpaceOnUse"
       gradientTransform="matrix(-0.5,0.8660254,0.8660254,0.5,154.85761,-348.88274)"
       x1="476.04504"
       y1="539.23126"
       x2="476.04504"
       y2="575.23126" />
    <linearGradient
       inkscape:collect="always"
       xlink:href="#linearGradient7246-66"
       id="linearGradient9877"
       gradientUnits="userSpaceOnUse"
       gradientTransform="matrix(-1,0,0,1,891.04504,-224.23129)"
       x1="476.04504"
       y1="539.23126"
       x2="476.04504"
       y2="575.23126" />
    <linearGradient
       inkscape:collect="always"
       id="linearGradient7246-66">
      <stop
         style="stop-color:#fbbaf8;stop-opacity:1;"
         offset="0"
         id="stop7248-18" />
      <stop
         style="stop-color:#f11be8;stop-opacity:1"
         offset="1"
         id="stop7250-49" />
    </linearGradient>
    <linearGradient
       inkscape:collect="always"
       xlink:href="#linearGradient7246-66"
       id="linearGradient9879"
       gradientUnits="userSpaceOnUse"
       gradientTransform="matrix(-0.5,-0.8660254,-0.8660254,0.5,1151.1874,475.65145)"
       x1="476.04504"
       y1="539.23126"
       x2="476.04504"
       y2="575.23126" />
    <linearGradient
       inkscape:collect="always"
       xlink:href="#linearGradient7246-66"
       id="linearGradient9881"
       gradientUnits="userSpaceOnUse"
       gradientTransform="matrix(0.5,-0.8660254,-0.8660254,-0.5,675.14239,1050.8827)"
       x1="476.04504"
       y1="539.23126"
       x2="476.04504"
       y2="575.23126" />
    <linearGradient
       inkscape:collect="always"
       xlink:href="#linearGradient7246-66"
       id="linearGradient9883"
       gradientUnits="userSpaceOnUse"
       gradientTransform="matrix(1,0,0,-1,-61.04504,926.23129)"
       x1="476.04504"
       y1="539.23126"
       x2="476.04504"
       y2="575.23126" />
    <linearGradient
       inkscape:collect="always"
       xlink:href="#linearGradient7246-66"
       id="linearGradient9885"
       gradientUnits="userSpaceOnUse"
       gradientTransform="matrix(0.5,0.8660254,0.8660254,-0.5,-321.18743,226.34855)"
       x1="476.04504"
       y1="539.23126"
       x2="476.04504"
       y2="575.23126" />
    <linearGradient
       inkscape:collect="always"
       xlink:href="#linearGradient7246-66"
       id="linearGradient9887"
       gradientUnits="userSpaceOnUse"
       gradientTransform="matrix(-0.5,0.8660254,0.8660254,0.5,154.85761,-348.88274)"
       x1="476.04504"
       y1="539.23126"
       x2="476.04504"
       y2="575.23126" />
  </defs>
  <sodipodi:namedview
     id="base"
     pagecolor="#ffffff"
     bordercolor="#666666"
     borderopacity="1.0"
     inkscape:pageopacity="0.0"
     inkscape:pageshadow="2"
     inkscape:zoom="0.77519531"
     inkscape:cx="345.43639"
     inkscape:cy="-180.36322"
     inkscape:document-units="px"
     inkscape:current-layer="layer1"
     showgrid="false"
     fit-margin-top="0"
     fit-margin-left="0"
     fit-margin-right="0"
     fit-margin-bottom="0"
     inkscape:window-width="1366"
     inkscape:window-height="712"
     inkscape:window-x="-4"
     inkscape:window-y="-4"
     inkscape:window-maximized="1" />
  <metadata
     id="metadata4374">
    <rdf:RDF>
      <cc:Work
         rdf:about="">
        <dc:format>image/svg+xml</dc:format>
        <dc:type
           rdf:resource="http://purl.org/dc/dcmitype/StillImage" />
        <dc:title></dc:title>
      </cc:Work>
    </rdf:RDF>
  </metadata>
  <g
     inkscape:label="Layer 1"
     inkscape:groupmode="layer"
     id="layer1"
     transform="translate(-29.563613,-162.34754)">
    <g
       style="display:inline"
       transform="matrix(0.71672077,0,0,0.71672077,-646.17337,-167.34402)"
       id="g9629">
      <path
         style="fill:#008000;fill-rule:evenodd;stroke:none"
         d="m 1067.0521,721.82375 3.7986,-9.2504 c -3.1108,-1.18292 -6.1865,-2.46622 -9.2205,-3.84754 0,0 0,0 0,0 -27.3763,-12.45819 -51.2902,-33.16 -67.69193,-58.92759 0,-10e-6 0,-10e-6 0,-10e-6 -16.40544,-25.76535 -25.2891,-56.58902 -24.98685,-87.59966 -1.88049,30.95504 5.39638,62.65752 20.9259,90.03977 0,10e-6 0,10e-6 10e-6,10e-6 15.53327,27.38001 39.24057,50.30048 67.60187,65.00518 0,0 0,0 0,0 3.1387,1.62686 6.3317,3.15472 9.5729,4.58024 z"
         id="path9631"
         inkscape:path-effect="#path-effect7213;#path-effect7215"
         inkscape:original-d="m 1068.9514,717.19855 c -10.4033,-4.81079 -9.3967,2.90887 -9.3967,-4.21389 0,-70.63621 -62.12567,-101.55364 -90.60328,-150.78611"
         inkscape:connector-curvature="0"
         sodipodi:nodetypes="csc" />
      <path
         style="fill:#008000;fill-rule:evenodd;stroke:none"
         d="m 1064.1007,723.41123 9.7014,-2.42536 -44.8507,-158.78732 c 6.4387,50.37901 16.0855,102.79953 35.1493,161.21268 z"
         id="path9633"
         inkscape:connector-curvature="0"
         sodipodi:nodetypes="cccc" />
      <path
         style="fill:#008000;fill-rule:evenodd;stroke:none"
         d="m 1043.9514,622.19855 5,10 10,-70 z"
         id="path9635"
         inkscape:connector-curvature="0"
         sodipodi:nodetypes="cccc" />
      <path
         style="fill:#008000;fill-rule:evenodd;stroke:none"
         d="m 1045.0471,640.32203 3.9043,-3.12348 -59.99998,-75 z"
         id="path9637"
         inkscape:connector-curvature="0"
         sodipodi:nodetypes="cccc" />
      <path
         style="fill:#008000;fill-rule:evenodd;stroke:none"
         d="m 1064.5713,719.78719 8.7602,4.82272 c 6.5798,-12.63884 14.7441,-24.50507 24.2578,-35.22243 10.8486,-12.23889 23.6931,-23.15987 35.1083,-35.72697 11.4667,-12.54419 21.4978,-27.30758 25.0773,-44.12003 l 0,-10e-6 c 2.7122,-12.91663 1.3157,-26.54566 -3.8388,-38.49622 -5.1564,-11.94978 -14.0394,-22.149 -24.9847,-28.8457 10.6316,7.18425 18.8934,17.67072 23.3729,29.49889 4.4813,11.82739 5.1773,24.98388 2.0632,37.05313 l 0,10e-6 c -4.0156,15.75896 -23.8779,36.73446 -35.4361,48.44797 -11.6125,11.69358 -15.3011,14.47574 -27.2301,26.73245 -10.448,10.74974 -19.5925,22.81549 -27.15,35.85619 z"
         id="path9639"
         inkscape:connector-curvature="0"
         sodipodi:nodetypes="cccccccccccccc" />
      <path
         style="fill:#008000;fill-rule:evenodd;stroke:none"
         d="m 1118.9514,657.19855 5,0 c 12.8242,-32.94807 47.0541,-54.76991 78.364,-72.70533 4.938,-2.80045 9.9793,-5.36492 15.3744,-6.19129 l 0,0 c 2.6934,-0.42009 5.4577,-0.42904 8.0947,0.1633 2.6329,0.59175 5.1626,1.7727 7.1796,3.56376 2.4581,2.15272 4.2177,5.3144 6.8596,7.77741 l 0,0 c 1.3206,1.23626 2.9009,2.26812 4.6814,2.74643 1.7881,0.48176 3.7806,0.30965 5.3472,-0.6737 l 0,-1e-5 c 0.8749,-0.55528 1.581,-1.35107 2.0253,-2.26982 0.4439,-0.91893 0.6218,-1.95253 0.5165,-2.95186 -0.1055,-0.9993 -0.4936,-1.95741 -1.1003,-2.73865 -0.6069,-0.78116 -1.4296,-1.3818 -2.3424,-1.72024 0.8922,0.38955 1.6652,1.02946 2.209,1.81799 0.5439,0.78846 0.8586,1.72548 0.904,2.66656 0.046,0.94106 -0.1774,1.88848 -0.6274,2.69836 l -10e-5,0 c -0.4496,0.81006 -1.1281,1.48676 -1.9239,1.92994 -1.4153,0.79882 -3.1932,0.81952 -4.7386,0.32356 -1.5549,-0.49995 -2.9129,-1.52552 -4.0744,-2.72249 -2.3229,-2.40404 -3.8656,-5.61829 -6.4743,-8.22626 -2.1716,-2.14451 -4.9294,-3.65392 -7.8664,-4.47976 -2.9332,-0.82534 -6.0176,-1.00767 -9.0259,-0.70101 l 0,0 c -6.0083,0.62712 -11.6138,3.01526 -16.8099,5.64158 -33.068,16.53863 -65.9122,41.75657 -81.5721,76.05153 z"
         id="path9641"
         inkscape:connector-curvature="0"
         sodipodi:nodetypes="ccccccccccccccccccccccccccccc" />
      <g
         style="display:inline"
         transform="matrix(0.50464334,0,0,0.50464334,772.5926,360.83948)"
         id="g9643">
        <g
           id="g9645"
           transform="translate(93,44)">
          <path
             sodipodi:nodetypes="ccccccccccc"
             inkscape:connector-curvature="0"
             id="path9647"
             d="m 418,348 c 6,-6 7,-5 9,-12 1,-7 1.42521,-14.76214 -2,-19 -3.21388,-4.29463 -4.20389,-3.96344 -7,-6 -2,-2 -2.14639,-3.16701 -3,-5.76303 -0.85361,2.59602 -1,3.76303 -3,5.76303 -2.79611,2.03656 -3.78612,1.70537 -7,6 -3.42521,4.23786 -3,12 -2,19 2,7 3,6 9,12 2,3 1.15164,4.05055 3,6.08053 C 416.84836,352.05055 416,351 418,348 z"
             style="fill:url(#linearGradient9793);fill-opacity:1;stroke:none"
             inkscape:transform-center-y="-21.34125"
             inkscape:tile-cx="415"
             inkscape:tile-cy="351"
             inkscape:tile-w="25.429126"
             inkscape:tile-h="48.84356"
             inkscape:tile-x0="402.28544"
             inkscape:tile-y0="305.23697" />
          <path
             inkscape:tile-y0="305.23697"
             inkscape:tile-x0="402.28544"
             inkscape:transform-center-y="-21.34125"
             style="fill:url(#linearGradient9795);fill-opacity:1;stroke:none"
             d="m 419.09808,352.09808 c 8.19615,2.19615 7.83013,3.56217 14.89231,1.79423 6.56217,-2.63398 13.49699,-6.14681 15.45448,-11.23206 2.11232,-4.93061 1.33049,-5.62239 1.69615,-9.06217 0.73205,-2.73205 1.66952,-3.44234 3.49093,-5.47959 -2.67502,0.55876 -3.75888,1.01549 -6.49093,0.28343 -3.16177,-1.40322 -3.36995,-2.42619 -8.69615,-3.06217 -5.3827,-0.84739 -11.89231,3.40192 -17.45448,7.76795 -5.06218,5.23205 -3.69616,5.59807 -5.89231,13.79422 -1.59808,3.23206 -2.93206,3.02263 -3.76589,5.63835 2.68219,0.58573 3.16781,-0.67424 6.76589,-0.44219 z"
             id="path9649"
             inkscape:connector-curvature="0"
             sodipodi:nodetypes="ccccccccccc" />
          <path
             inkscape:tile-y0="305.23697"
             inkscape:tile-x0="402.28544"
             inkscape:transform-center-y="-21.34125"
             style="fill:url(#linearGradient9797);fill-opacity:1;stroke:none"
             d="m 416.09808,355.09808 c 2.19615,8.19615 0.83013,8.56217 5.89231,13.79423 5.56217,4.36602 12.07178,8.61533 17.45448,7.76794 5.3262,-0.63598 5.53438,-1.65895 8.69615,-3.06217 2.73205,-0.73205 3.81591,-0.27533 6.49093,0.28344 -1.82141,-2.03726 -2.75888,-2.74754 -3.49093,-5.4796 -0.36566,-3.43978 0.41617,-4.13156 -1.69615,-9.06217 -1.95749,-5.08525 -8.89231,-8.59808 -15.45448,-11.23205 -7.06218,-1.76795 -6.69616,-0.40193 -14.89231,1.79422 -3.59808,0.23206 -4.0837,-1.02792 -6.76589,-0.44218 0.83383,2.61571 2.16781,2.40629 3.76589,5.63834 z"
             id="path9651"
             inkscape:connector-curvature="0"
             sodipodi:nodetypes="ccccccccccc" />
          <path
             inkscape:tile-y0="305.23697"
             inkscape:tile-x0="402.28544"
             inkscape:transform-center-y="-21.34125"
             style="fill:url(#linearGradient9799);fill-opacity:1;stroke:none"
             d="m 412,354 c -6,6 -7,5 -9,12 -1,7 -1.42521,14.76214 2,19 3.21388,4.29463 4.20389,3.96344 7,6 2,2 2.14639,3.16701 3,5.76303 0.85361,-2.59602 1,-3.76303 3,-5.76303 2.79611,-2.03656 3.78612,-1.70537 7,-6 3.42521,-4.23786 3,-12 2,-19 -2,-7 -3,-6 -9,-12 -2,-3 -1.15164,-4.05055 -3,-6.08053 C 413.15164,349.94945 414,351 412,354 z"
             id="path9653"
             inkscape:connector-curvature="0"
             sodipodi:nodetypes="ccccccccccc" />
          <path
             inkscape:tile-y0="305.23697"
             inkscape:tile-x0="402.28544"
             inkscape:transform-center-y="-21.34125"
             style="fill:url(#linearGradient9801);fill-opacity:1;stroke:none"
             d="m 410.90192,349.90192 c -8.19615,-2.19615 -7.83013,-3.56218 -14.89231,-1.79423 -6.56217,2.63398 -13.49699,6.14681 -15.45448,11.23205 -2.11232,4.93062 -1.33049,5.6224 -1.69615,9.06218 -0.73205,2.73205 -1.66952,3.44234 -3.49093,5.47959 2.67502,-0.55876 3.75888,-1.01549 6.49093,-0.28343 3.16177,1.40322 3.36995,2.42619 8.69615,3.06217 5.3827,0.84739 11.89231,-3.40192 17.45448,-7.76795 5.06218,-5.23205 3.69616,-5.59807 5.89231,-13.79422 1.59808,-3.23206 2.93206,-3.02263 3.76589,-5.63835 -2.68219,-0.58573 -3.16781,0.67424 -6.76589,0.44219 z"
             id="path9655"
             inkscape:connector-curvature="0"
             sodipodi:nodetypes="ccccccccccc" />
          <path
             inkscape:tile-y0="305.23697"
             inkscape:tile-x0="402.28544"
             inkscape:transform-center-y="-21.34125"
             style="fill:url(#linearGradient9803);fill-opacity:1;stroke:none"
             d="m 413.90192,346.90192 c -2.19615,-8.19615 -0.83012,-8.56218 -5.8923,-13.79423 -5.56218,-4.36602 -12.07179,-8.61533 -17.45449,-7.76795 -5.32619,0.63599 -5.53438,1.65896 -8.69615,3.06218 -2.73205,0.73205 -3.8159,0.27533 -6.49093,-0.28344 1.82142,2.03726 2.75888,2.74754 3.49093,5.4796 0.36566,3.43978 -0.41616,4.13156 1.69615,9.06217 1.95749,5.08525 8.89231,8.59808 15.45449,11.23205 7.06218,1.76795 6.69615,0.40193 14.8923,-1.79422 3.59808,-0.23206 4.0837,1.02792 6.7659,0.44218 -0.83384,-2.61571 -2.16782,-2.40629 -3.7659,-5.63834 z"
             id="path9657"
             inkscape:connector-curvature="0"
             sodipodi:nodetypes="ccccccccccc" />
        </g>
        <path
           sodipodi:type="star"
           style="fill:#ee395c;fill-opacity:1;fill-rule:nonzero;stroke:none"
           id="path9659"
           sodipodi:sides="10"
           sodipodi:cx="200"
           sodipodi:cy="180"
           sodipodi:r1="44.721359"
           sodipodi:r2="25.827057"
           sodipodi:arg1="0.46364761"
           sodipodi:arg2="0.77780687"
           inkscape:flatsided="false"
           inkscape:rounded="0"
           inkscape:randomized="0"
           d="m 240,200 -21.5994,-1.87667 2.20437,21.56842 -16.3712,-14.21407 -10.89422,18.74492 -4.88976,-21.12218 -19.8316,8.7615 8.45941,-19.96233 -21.19398,-4.56852 18.57736,-11.17755 L 160,160 l 21.5994,1.87667 -2.20437,-21.56842 16.3712,14.21407 10.89422,-18.74492 4.88976,21.12218 19.8316,-8.7615 -8.45941,19.96233 21.19398,4.56852 -18.57736,11.17755 z"
           transform="matrix(0.27301664,0,0,0.22975617,453.39667,353.64389)" />
      </g>
      <g
         style="display:inline"
         transform="matrix(0.57744709,0,0,0.57744709,672.35987,368.84096)"
         id="g9661">
        <g
           id="g9663"
           transform="translate(93,44)">
          <path
             sodipodi:nodetypes="ccccccccccc"
             inkscape:connector-curvature="0"
             id="path9665"
             d="m 418,348 c 6,-6 7,-5 9,-12 1,-7 1.42521,-14.76214 -2,-19 -3.21388,-4.29463 -4.20389,-3.96344 -7,-6 -2,-2 -2.14639,-3.16701 -3,-5.76303 -0.85361,2.59602 -1,3.76303 -3,5.76303 -2.79611,2.03656 -3.78612,1.70537 -7,6 -3.42521,4.23786 -3,12 -2,19 2,7 3,6 9,12 2,3 1.15164,4.05055 3,6.08053 C 416.84836,352.05055 416,351 418,348 z"
             style="fill:url(#linearGradient9805);fill-opacity:1;stroke:none"
             inkscape:transform-center-y="-21.34125"
             inkscape:tile-cx="415"
             inkscape:tile-cy="351"
             inkscape:tile-w="25.429126"
             inkscape:tile-h="48.84356"
             inkscape:tile-x0="402.28544"
             inkscape:tile-y0="305.23697" />
          <path
             inkscape:tile-y0="305.23697"
             inkscape:tile-x0="402.28544"
             inkscape:transform-center-y="-21.34125"
             style="fill:url(#linearGradient9807);fill-opacity:1;stroke:none"
             d="m 419.09808,352.09808 c 8.19615,2.19615 7.83013,3.56217 14.89231,1.79423 6.56217,-2.63398 13.49699,-6.14681 15.45448,-11.23206 2.11232,-4.93061 1.33049,-5.62239 1.69615,-9.06217 0.73205,-2.73205 1.66952,-3.44234 3.49093,-5.47959 -2.67502,0.55876 -3.75888,1.01549 -6.49093,0.28343 -3.16177,-1.40322 -3.36995,-2.42619 -8.69615,-3.06217 -5.3827,-0.84739 -11.89231,3.40192 -17.45448,7.76795 -5.06218,5.23205 -3.69616,5.59807 -5.89231,13.79422 -1.59808,3.23206 -2.93206,3.02263 -3.76589,5.63835 2.68219,0.58573 3.16781,-0.67424 6.76589,-0.44219 z"
             id="path9667"
             inkscape:connector-curvature="0"
             sodipodi:nodetypes="ccccccccccc" />
          <path
             inkscape:tile-y0="305.23697"
             inkscape:tile-x0="402.28544"
             inkscape:transform-center-y="-21.34125"
             style="fill:url(#linearGradient9809);fill-opacity:1;stroke:none"
             d="m 416.09808,355.09808 c 2.19615,8.19615 0.83013,8.56217 5.89231,13.79423 5.56217,4.36602 12.07178,8.61533 17.45448,7.76794 5.3262,-0.63598 5.53438,-1.65895 8.69615,-3.06217 2.73205,-0.73205 3.81591,-0.27533 6.49093,0.28344 -1.82141,-2.03726 -2.75888,-2.74754 -3.49093,-5.4796 -0.36566,-3.43978 0.41617,-4.13156 -1.69615,-9.06217 -1.95749,-5.08525 -8.89231,-8.59808 -15.45448,-11.23205 -7.06218,-1.76795 -6.69616,-0.40193 -14.89231,1.79422 -3.59808,0.23206 -4.0837,-1.02792 -6.76589,-0.44218 0.83383,2.61571 2.16781,2.40629 3.76589,5.63834 z"
             id="path9669"
             inkscape:connector-curvature="0"
             sodipodi:nodetypes="ccccccccccc" />
          <path
             inkscape:tile-y0="305.23697"
             inkscape:tile-x0="402.28544"
             inkscape:transform-center-y="-21.34125"
             style="fill:url(#linearGradient9811);fill-opacity:1;stroke:none"
             d="m 412,354 c -6,6 -7,5 -9,12 -1,7 -1.42521,14.76214 2,19 3.21388,4.29463 4.20389,3.96344 7,6 2,2 2.14639,3.16701 3,5.76303 0.85361,-2.59602 1,-3.76303 3,-5.76303 2.79611,-2.03656 3.78612,-1.70537 7,-6 3.42521,-4.23786 3,-12 2,-19 -2,-7 -3,-6 -9,-12 -2,-3 -1.15164,-4.05055 -3,-6.08053 C 413.15164,349.94945 414,351 412,354 z"
             id="path9671"
             inkscape:connector-curvature="0"
             sodipodi:nodetypes="ccccccccccc" />
          <path
             inkscape:tile-y0="305.23697"
             inkscape:tile-x0="402.28544"
             inkscape:transform-center-y="-21.34125"
             style="fill:url(#linearGradient9813);fill-opacity:1;stroke:none"
             d="m 410.90192,349.90192 c -8.19615,-2.19615 -7.83013,-3.56218 -14.89231,-1.79423 -6.56217,2.63398 -13.49699,6.14681 -15.45448,11.23205 -2.11232,4.93062 -1.33049,5.6224 -1.69615,9.06218 -0.73205,2.73205 -1.66952,3.44234 -3.49093,5.47959 2.67502,-0.55876 3.75888,-1.01549 6.49093,-0.28343 3.16177,1.40322 3.36995,2.42619 8.69615,3.06217 5.3827,0.84739 11.89231,-3.40192 17.45448,-7.76795 5.06218,-5.23205 3.69616,-5.59807 5.89231,-13.79422 1.59808,-3.23206 2.93206,-3.02263 3.76589,-5.63835 -2.68219,-0.58573 -3.16781,0.67424 -6.76589,0.44219 z"
             id="path9673"
             inkscape:connector-curvature="0"
             sodipodi:nodetypes="ccccccccccc" />
          <path
             inkscape:tile-y0="305.23697"
             inkscape:tile-x0="402.28544"
             inkscape:transform-center-y="-21.34125"
             style="fill:url(#linearGradient9815);fill-opacity:1;stroke:none"
             d="m 413.90192,346.90192 c -2.19615,-8.19615 -0.83012,-8.56218 -5.8923,-13.79423 -5.56218,-4.36602 -12.07179,-8.61533 -17.45449,-7.76795 -5.32619,0.63599 -5.53438,1.65896 -8.69615,3.06218 -2.73205,0.73205 -3.8159,0.27533 -6.49093,-0.28344 1.82142,2.03726 2.75888,2.74754 3.49093,5.4796 0.36566,3.43978 -0.41616,4.13156 1.69615,9.06217 1.95749,5.08525 8.89231,8.59808 15.45449,11.23205 7.06218,1.76795 6.69615,0.40193 14.8923,-1.79422 3.59808,-0.23206 4.0837,1.02792 6.7659,0.44218 -0.83384,-2.61571 -2.16782,-2.40629 -3.7659,-5.63834 z"
             id="path9675"
             inkscape:connector-curvature="0"
             sodipodi:nodetypes="ccccccccccc" />
        </g>
        <path
           sodipodi:type="star"
           style="fill:#ee395c;fill-opacity:1;fill-rule:nonzero;stroke:none"
           id="path9677"
           sodipodi:sides="10"
           sodipodi:cx="200"
           sodipodi:cy="180"
           sodipodi:r1="44.721359"
           sodipodi:r2="25.827057"
           sodipodi:arg1="0.46364761"
           sodipodi:arg2="0.77780687"
           inkscape:flatsided="false"
           inkscape:rounded="0"
           inkscape:randomized="0"
           d="m 240,200 -21.5994,-1.87667 2.20437,21.56842 -16.3712,-14.21407 -10.89422,18.74492 -4.88976,-21.12218 -19.8316,8.7615 8.45941,-19.96233 -21.19398,-4.56852 18.57736,-11.17755 L 160,160 l 21.5994,1.87667 -2.20437,-21.56842 16.3712,14.21407 10.89422,-18.74492 4.88976,21.12218 19.8316,-8.7615 -8.45941,19.96233 21.19398,4.56852 -18.57736,11.17755 z"
           transform="matrix(0.27301664,0,0,0.22975617,453.39667,353.64389)" />
      </g>
      <g
         id="g9679"
         transform="matrix(0.57744709,0,0,0.57744709,890.66087,258.33413)"
         style="display:inline">
        <g
           transform="translate(93,44)"
           id="g9681">
          <path
             inkscape:tile-y0="305.23697"
             inkscape:tile-x0="402.28544"
             inkscape:tile-h="48.84356"
             inkscape:tile-w="25.429126"
             inkscape:tile-cy="351"
             inkscape:tile-cx="415"
             inkscape:transform-center-y="-21.34125"
             style="fill:url(#linearGradient9817);fill-opacity:1;stroke:none"
             d="m 418,348 c 6,-6 7,-5 9,-12 1,-7 1.42521,-14.76214 -2,-19 -3.21388,-4.29463 -4.20389,-3.96344 -7,-6 -2,-2 -2.14639,-3.16701 -3,-5.76303 -0.85361,2.59602 -1,3.76303 -3,5.76303 -2.79611,2.03656 -3.78612,1.70537 -7,6 -3.42521,4.23786 -3,12 -2,19 2,7 3,6 9,12 2,3 1.15164,4.05055 3,6.08053 C 416.84836,352.05055 416,351 418,348 z"
             id="path9683"
             inkscape:connector-curvature="0"
             sodipodi:nodetypes="ccccccccccc" />
          <path
             sodipodi:nodetypes="ccccccccccc"
             inkscape:connector-curvature="0"
             id="path9685"
             d="m 419.09808,352.09808 c 8.19615,2.19615 7.83013,3.56217 14.89231,1.79423 6.56217,-2.63398 13.49699,-6.14681 15.45448,-11.23206 2.11232,-4.93061 1.33049,-5.62239 1.69615,-9.06217 0.73205,-2.73205 1.66952,-3.44234 3.49093,-5.47959 -2.67502,0.55876 -3.75888,1.01549 -6.49093,0.28343 -3.16177,-1.40322 -3.36995,-2.42619 -8.69615,-3.06217 -5.3827,-0.84739 -11.89231,3.40192 -17.45448,7.76795 -5.06218,5.23205 -3.69616,5.59807 -5.89231,13.79422 -1.59808,3.23206 -2.93206,3.02263 -3.76589,5.63835 2.68219,0.58573 3.16781,-0.67424 6.76589,-0.44219 z"
             style="fill:url(#linearGradient9819);fill-opacity:1;stroke:none"
             inkscape:transform-center-y="-21.34125"
             inkscape:tile-x0="402.28544"
             inkscape:tile-y0="305.23697" />
          <path
             sodipodi:nodetypes="ccccccccccc"
             inkscape:connector-curvature="0"
             id="path9687"
             d="m 416.09808,355.09808 c 2.19615,8.19615 0.83013,8.56217 5.89231,13.79423 5.56217,4.36602 12.07178,8.61533 17.45448,7.76794 5.3262,-0.63598 5.53438,-1.65895 8.69615,-3.06217 2.73205,-0.73205 3.81591,-0.27533 6.49093,0.28344 -1.82141,-2.03726 -2.75888,-2.74754 -3.49093,-5.4796 -0.36566,-3.43978 0.41617,-4.13156 -1.69615,-9.06217 -1.95749,-5.08525 -8.89231,-8.59808 -15.45448,-11.23205 -7.06218,-1.76795 -6.69616,-0.40193 -14.89231,1.79422 -3.59808,0.23206 -4.0837,-1.02792 -6.76589,-0.44218 0.83383,2.61571 2.16781,2.40629 3.76589,5.63834 z"
             style="fill:url(#linearGradient9821);fill-opacity:1;stroke:none"
             inkscape:transform-center-y="-21.34125"
             inkscape:tile-x0="402.28544"
             inkscape:tile-y0="305.23697" />
          <path
             sodipodi:nodetypes="ccccccccccc"
             inkscape:connector-curvature="0"
             id="path9689"
             d="m 412,354 c -6,6 -7,5 -9,12 -1,7 -1.42521,14.76214 2,19 3.21388,4.29463 4.20389,3.96344 7,6 2,2 2.14639,3.16701 3,5.76303 0.85361,-2.59602 1,-3.76303 3,-5.76303 2.79611,-2.03656 3.78612,-1.70537 7,-6 3.42521,-4.23786 3,-12 2,-19 -2,-7 -3,-6 -9,-12 -2,-3 -1.15164,-4.05055 -3,-6.08053 C 413.15164,349.94945 414,351 412,354 z"
             style="fill:url(#linearGradient9823);fill-opacity:1;stroke:none"
             inkscape:transform-center-y="-21.34125"
             inkscape:tile-x0="402.28544"
             inkscape:tile-y0="305.23697" />
          <path
             sodipodi:nodetypes="ccccccccccc"
             inkscape:connector-curvature="0"
             id="path9691"
             d="m 410.90192,349.90192 c -8.19615,-2.19615 -7.83013,-3.56218 -14.89231,-1.79423 -6.56217,2.63398 -13.49699,6.14681 -15.45448,11.23205 -2.11232,4.93062 -1.33049,5.6224 -1.69615,9.06218 -0.73205,2.73205 -1.66952,3.44234 -3.49093,5.47959 2.67502,-0.55876 3.75888,-1.01549 6.49093,-0.28343 3.16177,1.40322 3.36995,2.42619 8.69615,3.06217 5.3827,0.84739 11.89231,-3.40192 17.45448,-7.76795 5.06218,-5.23205 3.69616,-5.59807 5.89231,-13.79422 1.59808,-3.23206 2.93206,-3.02263 3.76589,-5.63835 -2.68219,-0.58573 -3.16781,0.67424 -6.76589,0.44219 z"
             style="fill:url(#linearGradient9825);fill-opacity:1;stroke:none"
             inkscape:transform-center-y="-21.34125"
             inkscape:tile-x0="402.28544"
             inkscape:tile-y0="305.23697" />
          <path
             sodipodi:nodetypes="ccccccccccc"
             inkscape:connector-curvature="0"
             id="path9693"
             d="m 413.90192,346.90192 c -2.19615,-8.19615 -0.83012,-8.56218 -5.8923,-13.79423 -5.56218,-4.36602 -12.07179,-8.61533 -17.45449,-7.76795 -5.32619,0.63599 -5.53438,1.65896 -8.69615,3.06218 -2.73205,0.73205 -3.8159,0.27533 -6.49093,-0.28344 1.82142,2.03726 2.75888,2.74754 3.49093,5.4796 0.36566,3.43978 -0.41616,4.13156 1.69615,9.06217 1.95749,5.08525 8.89231,8.59808 15.45449,11.23205 7.06218,1.76795 6.69615,0.40193 14.8923,-1.79422 3.59808,-0.23206 4.0837,1.02792 6.7659,0.44218 -0.83384,-2.61571 -2.16782,-2.40629 -3.7659,-5.63834 z"
             style="fill:url(#linearGradient9827);fill-opacity:1;stroke:none"
             inkscape:transform-center-y="-21.34125"
             inkscape:tile-x0="402.28544"
             inkscape:tile-y0="305.23697" />
        </g>
        <path
           transform="matrix(0.27301664,0,0,0.22975617,453.39667,353.64389)"
           d="m 240,200 -21.5994,-1.87667 2.20437,21.56842 -16.3712,-14.21407 -10.89422,18.74492 -4.88976,-21.12218 -19.8316,8.7615 8.45941,-19.96233 -21.19398,-4.56852 18.57736,-11.17755 L 160,160 l 21.5994,1.87667 -2.20437,-21.56842 16.3712,14.21407 10.89422,-18.74492 4.88976,21.12218 19.8316,-8.7615 -8.45941,19.96233 21.19398,4.56852 -18.57736,11.17755 z"
           inkscape:randomized="0"
           inkscape:rounded="0"
           inkscape:flatsided="false"
           sodipodi:arg2="0.77780687"
           sodipodi:arg1="0.46364761"
           sodipodi:r2="25.827057"
           sodipodi:r1="44.721359"
           sodipodi:cy="180"
           sodipodi:cx="200"
           sodipodi:sides="10"
           id="path9695"
           style="fill:#ee395c;fill-opacity:1;fill-rule:nonzero;stroke:none"
           sodipodi:type="star" />
      </g>
      <path
         style="fill:#008000;fill-rule:evenodd;stroke:none"
         d="m 1051.0037,497.63916 -4.1046,9.11878 c 13.2455,5.79233 24.5209,16.43131 31.0935,29.424 6.588,12.98507 8.54,28.46306 5.3314,42.77231 -2.7308,12.56008 -9.5211,24.34541 -15.7795,36.63414 0,0 0,0 0,10e-6 -6.3743,12.25315 -12.2748,25.68044 -12.8144,40.22686 -0.2465,9.54847 1.8547,18.72986 4.3302,27.4496 2.4368,8.72478 5.2145,17.16149 6.4306,25.71401 1.5599,4.21583 2.6967,8.49687 3.4053,12.7729 -4.0777,-16.84447 -1.5322,-35.84449 7.2568,-51.60463 6.7358,-13.20748 17.7813,-23.98302 28.6887,-34.72066 0,-10e-6 0,-10e-6 0,-2e-5 10.9487,-10.70627 22.144,-21.91211 29.0679,-35.89929 6.6867,-13.63162 8.7988,-28.87382 9.6423,-43.78908 0.8587,-14.91155 0.5779,-29.84062 2.8304,-44.49375 0.8053,-5.1915 1.9422,-10.41122 4.6537,-14.83514 1.3531,-2.2123 3.0885,-4.20772 5.1973,-5.70644 2.1077,-1.49778 4.5984,-2.49826 7.1775,-2.69573 2.5005,-0.19517 5.089,0.36249 7.6665,0.0258 1.2897,-0.16803 2.5756,-0.58221 3.6265,-1.36635 1.0527,-0.78517 1.8351,-1.97777 1.961,-3.28677 0,-1e-5 0,-2e-5 0,-3e-5 0.094,-1.00054 -0.21,-2.0268 -0.8269,-2.81094 -0.6172,-0.78388 -1.5389,-1.31464 -2.5191,-1.45643 -0.9804,-0.14149 -2.0074,0.10769 -2.8094,0.67655 -0.8019,0.569 -1.3706,1.45179 -1.558,2.40966 0.2052,-0.95422 0.7886,-1.81924 1.5891,-2.36497 0.8004,-0.54585 1.8127,-0.76897 2.7617,-0.61364 0.949,0.15503 1.8305,0.6877 2.4065,1.44865 0.5764,0.76067 0.846,1.74766 0.7395,2.68881 -0.1362,1.23315 -0.9087,2.34823 -1.9155,3.07621 -1.0098,0.72985 -2.251,1.09822 -3.4993,1.24163 -2.4993,0.28635 -5.0539,-0.32036 -7.6566,-0.16999 -2.6858,0.15903 -5.2947,1.1434 -7.5153,2.66428 0,0 0,10e-6 0,10e-6 -2.2198,1.52019 -4.0618,3.55238 -5.5019,5.81769 -2.8748,4.53127 -4.1613,9.85576 -5.0547,15.08143 -2.5392,14.73241 -2.5458,29.74545 -3.6705,44.5414 -1.1399,14.79102 -3.4697,29.72344 -10.1824,42.67851 -6.8509,13.34449 -18.016,24.01483 -29.1115,34.54101 -10e-5,1e-5 -10e-5,1e-5 -10e-5,2e-5 -11.137,10.49492 -22.6173,21.36258 -30.1336,35.2412 -8.1822,16.49385 -9.4757,36.47398 -3.2002,54.57453 1.0933,-4.80464 1.8136,-9.63812 2.1621,-14.43002 -1.1748,-9.22605 -3.8473,-17.98607 -6.0955,-26.5773 -2.2095,-8.59605 -4.0708,-17.18444 -3.6189,-25.56075 0.5252,-12.78046 6.3943,-25.04412 12.7246,-37.00843 6.447,-11.93017 13.6788,-24.1638 17.1823,-38.23291 0,0 0,-10e-6 0,-10e-6 3.9255,-16.16332 2.0903,-33.62414 -5.1858,-48.69726 -7.2914,-15.06552 -19.8785,-27.4458 -35.1717,-34.49949 z"
         id="path9697"
         inkscape:path-effect="#path-effect7253;#path-effect7255"
         inkscape:original-d="m 1048.9514,502.19855 c 5.9086,19.49847 24.134,49.18202 38.3912,77.69653 14.0195,28.03901 -21.9744,61.49921 -29.2504,76.05118 -9.0605,18.12092 8.2361,38.18385 10.2376,52.65083 0.622,4.49573 0.4144,9.06764 0.6216,13.60146 6.2237,-16.68294 5.2285,-35.00836 5.2285,-53.08958 0,-35.29595 39.0317,-50.73182 58.5009,-70.2011 19.0164,-19.01636 -4.5631,-70.02554 13.1628,-87.75137 5.9647,-5.96477 11.5855,-17.43559 17.5502,-23.40036 2.7199,-2.71986 14.6074,-4.11239 13.1627,-4.38757 -2.5195,-0.47992 -5.07,-0.78001 -7.6051,-1.17002"
         inkscape:connector-curvature="0" />
      <g
         style="display:inline"
         id="g9699"
         transform="matrix(0.77526289,0,0,0.77526289,712.79208,218.2955)">
        <g
           transform="translate(93,44)"
           id="g9701">
          <path
             inkscape:tile-y0="305.23697"
             inkscape:tile-x0="402.28544"
             inkscape:tile-h="48.84356"
             inkscape:tile-w="25.429126"
             inkscape:tile-cy="351"
             inkscape:tile-cx="415"
             inkscape:transform-center-y="-21.34125"
             style="fill:url(#linearGradient9829);fill-opacity:1;stroke:none"
             d="m 418,348 c 6,-6 7,-5 9,-12 1,-7 1.42521,-14.76214 -2,-19 -3.21388,-4.29463 -4.20389,-3.96344 -7,-6 -2,-2 -2.14639,-3.16701 -3,-5.76303 -0.85361,2.59602 -1,3.76303 -3,5.76303 -2.79611,2.03656 -3.78612,1.70537 -7,6 -3.42521,4.23786 -3,12 -2,19 2,7 3,6 9,12 2,3 1.15164,4.05055 3,6.08053 C 416.84836,352.05055 416,351 418,348 z"
             id="path9703"
             inkscape:connector-curvature="0"
             sodipodi:nodetypes="ccccccccccc" />
          <path
             sodipodi:nodetypes="ccccccccccc"
             inkscape:connector-curvature="0"
             id="path9705"
             d="m 419.09808,352.09808 c 8.19615,2.19615 7.83013,3.56217 14.89231,1.79423 6.56217,-2.63398 13.49699,-6.14681 15.45448,-11.23206 2.11232,-4.93061 1.33049,-5.62239 1.69615,-9.06217 0.73205,-2.73205 1.66952,-3.44234 3.49093,-5.47959 -2.67502,0.55876 -3.75888,1.01549 -6.49093,0.28343 -3.16177,-1.40322 -3.36995,-2.42619 -8.69615,-3.06217 -5.3827,-0.84739 -11.89231,3.40192 -17.45448,7.76795 -5.06218,5.23205 -3.69616,5.59807 -5.89231,13.79422 -1.59808,3.23206 -2.93206,3.02263 -3.76589,5.63835 2.68219,0.58573 3.16781,-0.67424 6.76589,-0.44219 z"
             style="fill:url(#linearGradient9831);fill-opacity:1;stroke:none"
             inkscape:transform-center-y="-21.34125"
             inkscape:tile-x0="402.28544"
             inkscape:tile-y0="305.23697" />
          <path
             sodipodi:nodetypes="ccccccccccc"
             inkscape:connector-curvature="0"
             id="path9707"
             d="m 416.09808,355.09808 c 2.19615,8.19615 0.83013,8.56217 5.89231,13.79423 5.56217,4.36602 12.07178,8.61533 17.45448,7.76794 5.3262,-0.63598 5.53438,-1.65895 8.69615,-3.06217 2.73205,-0.73205 3.81591,-0.27533 6.49093,0.28344 -1.82141,-2.03726 -2.75888,-2.74754 -3.49093,-5.4796 -0.36566,-3.43978 0.41617,-4.13156 -1.69615,-9.06217 -1.95749,-5.08525 -8.89231,-8.59808 -15.45448,-11.23205 -7.06218,-1.76795 -6.69616,-0.40193 -14.89231,1.79422 -3.59808,0.23206 -4.0837,-1.02792 -6.76589,-0.44218 0.83383,2.61571 2.16781,2.40629 3.76589,5.63834 z"
             style="fill:url(#linearGradient9833);fill-opacity:1;stroke:none"
             inkscape:transform-center-y="-21.34125"
             inkscape:tile-x0="402.28544"
             inkscape:tile-y0="305.23697" />
          <path
             sodipodi:nodetypes="ccccccccccc"
             inkscape:connector-curvature="0"
             id="path9709"
             d="m 412,354 c -6,6 -7,5 -9,12 -1,7 -1.42521,14.76214 2,19 3.21388,4.29463 4.20389,3.96344 7,6 2,2 2.14639,3.16701 3,5.76303 0.85361,-2.59602 1,-3.76303 3,-5.76303 2.79611,-2.03656 3.78612,-1.70537 7,-6 3.42521,-4.23786 3,-12 2,-19 -2,-7 -3,-6 -9,-12 -2,-3 -1.15164,-4.05055 -3,-6.08053 C 413.15164,349.94945 414,351 412,354 z"
             style="fill:url(#linearGradient9835);fill-opacity:1;stroke:none"
             inkscape:transform-center-y="-21.34125"
             inkscape:tile-x0="402.28544"
             inkscape:tile-y0="305.23697" />
          <path
             sodipodi:nodetypes="ccccccccccc"
             inkscape:connector-curvature="0"
             id="path9711"
             d="m 410.90192,349.90192 c -8.19615,-2.19615 -7.83013,-3.56218 -14.89231,-1.79423 -6.56217,2.63398 -13.49699,6.14681 -15.45448,11.23205 -2.11232,4.93062 -1.33049,5.6224 -1.69615,9.06218 -0.73205,2.73205 -1.66952,3.44234 -3.49093,5.47959 2.67502,-0.55876 3.75888,-1.01549 6.49093,-0.28343 3.16177,1.40322 3.36995,2.42619 8.69615,3.06217 5.3827,0.84739 11.89231,-3.40192 17.45448,-7.76795 5.06218,-5.23205 3.69616,-5.59807 5.89231,-13.79422 1.59808,-3.23206 2.93206,-3.02263 3.76589,-5.63835 -2.68219,-0.58573 -3.16781,0.67424 -6.76589,0.44219 z"
             style="fill:url(#linearGradient9837);fill-opacity:1;stroke:none"
             inkscape:transform-center-y="-21.34125"
             inkscape:tile-x0="402.28544"
             inkscape:tile-y0="305.23697" />
          <path
             sodipodi:nodetypes="ccccccccccc"
             inkscape:connector-curvature="0"
             id="path9713"
             d="m 413.90192,346.90192 c -2.19615,-8.19615 -0.83012,-8.56218 -5.8923,-13.79423 -5.56218,-4.36602 -12.07179,-8.61533 -17.45449,-7.76795 -5.32619,0.63599 -5.53438,1.65896 -8.69615,3.06218 -2.73205,0.73205 -3.8159,0.27533 -6.49093,-0.28344 1.82142,2.03726 2.75888,2.74754 3.49093,5.4796 0.36566,3.43978 -0.41616,4.13156 1.69615,9.06217 1.95749,5.08525 8.89231,8.59808 15.45449,11.23205 7.06218,1.76795 6.69615,0.40193 14.8923,-1.79422 3.59808,-0.23206 4.0837,1.02792 6.7659,0.44218 -0.83384,-2.61571 -2.16782,-2.40629 -3.7659,-5.63834 z"
             style="fill:url(#linearGradient9839);fill-opacity:1;stroke:none"
             inkscape:transform-center-y="-21.34125"
             inkscape:tile-x0="402.28544"
             inkscape:tile-y0="305.23697" />
        </g>
        <path
           transform="matrix(0.27301664,0,0,0.22975617,453.39667,353.64389)"
           d="m 240,200 -21.5994,-1.87667 2.20437,21.56842 -16.3712,-14.21407 -10.89422,18.74492 -4.88976,-21.12218 -19.8316,8.7615 8.45941,-19.96233 -21.19398,-4.56852 18.57736,-11.17755 L 160,160 l 21.5994,1.87667 -2.20437,-21.56842 16.3712,14.21407 10.89422,-18.74492 4.88976,21.12218 19.8316,-8.7615 -8.45941,19.96233 21.19398,4.56852 -18.57736,11.17755 z"
           inkscape:randomized="0"
           inkscape:rounded="0"
           inkscape:flatsided="false"
           sodipodi:arg2="0.77780687"
           sodipodi:arg1="0.46364761"
           sodipodi:r2="25.827057"
           sodipodi:r1="44.721359"
           sodipodi:cy="180"
           sodipodi:cx="200"
           sodipodi:sides="10"
           id="path9715"
           style="fill:#ee395c;fill-opacity:1;fill-rule:nonzero;stroke:none"
           sodipodi:type="star" />
      </g>
      <g
         style="display:inline"
         transform="matrix(0.57744709,0,0,0.57744709,762.53766,262.76866)"
         id="g9717">
        <g
           id="g9719"
           transform="translate(93,44)">
          <path
             sodipodi:nodetypes="ccccccccccc"
             inkscape:connector-curvature="0"
             id="path9721"
             d="m 418,348 c 6,-6 7,-5 9,-12 1,-7 1.42521,-14.76214 -2,-19 -3.21388,-4.29463 -4.20389,-3.96344 -7,-6 -2,-2 -2.14639,-3.16701 -3,-5.76303 -0.85361,2.59602 -1,3.76303 -3,5.76303 -2.79611,2.03656 -3.78612,1.70537 -7,6 -3.42521,4.23786 -3,12 -2,19 2,7 3,6 9,12 2,3 1.15164,4.05055 3,6.08053 C 416.84836,352.05055 416,351 418,348 z"
             style="fill:url(#linearGradient9841);fill-opacity:1;stroke:none"
             inkscape:transform-center-y="-21.34125"
             inkscape:tile-cx="415"
             inkscape:tile-cy="351"
             inkscape:tile-w="25.429126"
             inkscape:tile-h="48.84356"
             inkscape:tile-x0="402.28544"
             inkscape:tile-y0="305.23697" />
          <path
             inkscape:tile-y0="305.23697"
             inkscape:tile-x0="402.28544"
             inkscape:transform-center-y="-21.34125"
             style="fill:url(#linearGradient9843);fill-opacity:1;stroke:none"
             d="m 419.09808,352.09808 c 8.19615,2.19615 7.83013,3.56217 14.89231,1.79423 6.56217,-2.63398 13.49699,-6.14681 15.45448,-11.23206 2.11232,-4.93061 1.33049,-5.62239 1.69615,-9.06217 0.73205,-2.73205 1.66952,-3.44234 3.49093,-5.47959 -2.67502,0.55876 -3.75888,1.01549 -6.49093,0.28343 -3.16177,-1.40322 -3.36995,-2.42619 -8.69615,-3.06217 -5.3827,-0.84739 -11.89231,3.40192 -17.45448,7.76795 -5.06218,5.23205 -3.69616,5.59807 -5.89231,13.79422 -1.59808,3.23206 -2.93206,3.02263 -3.76589,5.63835 2.68219,0.58573 3.16781,-0.67424 6.76589,-0.44219 z"
             id="path9723"
             inkscape:connector-curvature="0"
             sodipodi:nodetypes="ccccccccccc" />
          <path
             inkscape:tile-y0="305.23697"
             inkscape:tile-x0="402.28544"
             inkscape:transform-center-y="-21.34125"
             style="fill:url(#linearGradient9845);fill-opacity:1;stroke:none"
             d="m 416.09808,355.09808 c 2.19615,8.19615 0.83013,8.56217 5.89231,13.79423 5.56217,4.36602 12.07178,8.61533 17.45448,7.76794 5.3262,-0.63598 5.53438,-1.65895 8.69615,-3.06217 2.73205,-0.73205 3.81591,-0.27533 6.49093,0.28344 -1.82141,-2.03726 -2.75888,-2.74754 -3.49093,-5.4796 -0.36566,-3.43978 0.41617,-4.13156 -1.69615,-9.06217 -1.95749,-5.08525 -8.89231,-8.59808 -15.45448,-11.23205 -7.06218,-1.76795 -6.69616,-0.40193 -14.89231,1.79422 -3.59808,0.23206 -4.0837,-1.02792 -6.76589,-0.44218 0.83383,2.61571 2.16781,2.40629 3.76589,5.63834 z"
             id="path9725"
             inkscape:connector-curvature="0"
             sodipodi:nodetypes="ccccccccccc" />
          <path
             inkscape:tile-y0="305.23697"
             inkscape:tile-x0="402.28544"
             inkscape:transform-center-y="-21.34125"
             style="fill:url(#linearGradient9847);fill-opacity:1;stroke:none"
             d="m 412,354 c -6,6 -7,5 -9,12 -1,7 -1.42521,14.76214 2,19 3.21388,4.29463 4.20389,3.96344 7,6 2,2 2.14639,3.16701 3,5.76303 0.85361,-2.59602 1,-3.76303 3,-5.76303 2.79611,-2.03656 3.78612,-1.70537 7,-6 3.42521,-4.23786 3,-12 2,-19 -2,-7 -3,-6 -9,-12 -2,-3 -1.15164,-4.05055 -3,-6.08053 C 413.15164,349.94945 414,351 412,354 z"
             id="path9727"
             inkscape:connector-curvature="0"
             sodipodi:nodetypes="ccccccccccc" />
          <path
             inkscape:tile-y0="305.23697"
             inkscape:tile-x0="402.28544"
             inkscape:transform-center-y="-21.34125"
             style="fill:url(#linearGradient9849);fill-opacity:1;stroke:none"
             d="m 410.90192,349.90192 c -8.19615,-2.19615 -7.83013,-3.56218 -14.89231,-1.79423 -6.56217,2.63398 -13.49699,6.14681 -15.45448,11.23205 -2.11232,4.93062 -1.33049,5.6224 -1.69615,9.06218 -0.73205,2.73205 -1.66952,3.44234 -3.49093,5.47959 2.67502,-0.55876 3.75888,-1.01549 6.49093,-0.28343 3.16177,1.40322 3.36995,2.42619 8.69615,3.06217 5.3827,0.84739 11.89231,-3.40192 17.45448,-7.76795 5.06218,-5.23205 3.69616,-5.59807 5.89231,-13.79422 1.59808,-3.23206 2.93206,-3.02263 3.76589,-5.63835 -2.68219,-0.58573 -3.16781,0.67424 -6.76589,0.44219 z"
             id="path9729"
             inkscape:connector-curvature="0"
             sodipodi:nodetypes="ccccccccccc" />
          <path
             inkscape:tile-y0="305.23697"
             inkscape:tile-x0="402.28544"
             inkscape:transform-center-y="-21.34125"
             style="fill:url(#linearGradient9851);fill-opacity:1;stroke:none"
             d="m 413.90192,346.90192 c -2.19615,-8.19615 -0.83012,-8.56218 -5.8923,-13.79423 -5.56218,-4.36602 -12.07179,-8.61533 -17.45449,-7.76795 -5.32619,0.63599 -5.53438,1.65896 -8.69615,3.06218 -2.73205,0.73205 -3.8159,0.27533 -6.49093,-0.28344 1.82142,2.03726 2.75888,2.74754 3.49093,5.4796 0.36566,3.43978 -0.41616,4.13156 1.69615,9.06217 1.95749,5.08525 8.89231,8.59808 15.45449,11.23205 7.06218,1.76795 6.69615,0.40193 14.8923,-1.79422 3.59808,-0.23206 4.0837,1.02792 6.7659,0.44218 -0.83384,-2.61571 -2.16782,-2.40629 -3.7659,-5.63834 z"
             id="path9731"
             inkscape:connector-curvature="0"
             sodipodi:nodetypes="ccccccccccc" />
        </g>
        <path
           sodipodi:type="star"
           style="fill:#ee395c;fill-opacity:1;fill-rule:nonzero;stroke:none"
           id="path9733"
           sodipodi:sides="10"
           sodipodi:cx="200"
           sodipodi:cy="180"
           sodipodi:r1="44.721359"
           sodipodi:r2="25.827057"
           sodipodi:arg1="0.46364761"
           sodipodi:arg2="0.77780687"
           inkscape:flatsided="false"
           inkscape:rounded="0"
           inkscape:randomized="0"
           d="m 240,200 -21.5994,-1.87667 2.20437,21.56842 -16.3712,-14.21407 -10.89422,18.74492 -4.88976,-21.12218 -19.8316,8.7615 8.45941,-19.96233 -21.19398,-4.56852 18.57736,-11.17755 L 160,160 l 21.5994,1.87667 -2.20437,-21.56842 16.3712,14.21407 10.89422,-18.74492 4.88976,21.12218 19.8316,-8.7615 -8.45941,19.96233 21.19398,4.56852 -18.57736,11.17755 z"
           transform="matrix(0.27301664,0,0,0.22975617,453.39667,353.64389)" />
      </g>
      <path
         style="fill:#008000;fill-rule:evenodd;stroke:none"
         d="m 1172.9645,545.18099 -8.0262,-5.96488 c -2.8092,3.86196 -5.9293,7.5045 -9.32,10.87847 -8.4653,8.46913 -18.7778,15.26216 -29.5321,21.50717 -11.2308,6.46788 -23.3008,12.5315 -33.991,21.17365 0,10e-6 0,10e-6 0,2e-5 -15.9267,12.96345 -27.2896,31.20809 -31.9097,51.08384 -3.4934,19.74696 -0.3649,40.89461 8.87,59.22321 2.7596,-9.7892 7.8131,-19.17558 14.5336,-27.252 5.8851,-7.97305 13.5574,-14.68266 22.3689,-19.23662 l 0,0 c 11.8463,-6.18171 29.4481,-6.1832 42.9934,-9.3953 13.5742,-3.14746 24.2517,-5.59222 35,-15 l 5,-5 c 6.7321,-5.96626 5.4821,-12.51192 10,-20 23.2989,-38.48634 40.6942,-81.13412 50,-125 -10.1549,43.67714 -27.6826,85.55726 -51.5665,123.33552 -4.6519,7.3336 -9.5508,14.54467 -15.9979,19.98345 -10.1834,8.70608 -23.7378,12.54884 -37.1672,15.48847 -13.4608,2.87555 -27.5245,5.07472 -40.392,11.36764 0,10e-6 0,10e-6 0,10e-6 -9.5836,4.7312 -17.9811,11.76614 -24.4936,20.25182 -5.6772,8.38234 -9.3991,18.2351 -10.4869,28.68917 -6.8324,-17.42762 -7.5198,-37.43952 -1.793,-55.79315 4.6002,-18.22483 15.4497,-34.84097 30.161,-46.33121 0,-1e-5 0,-1e-5 0,-1e-5 9.8547,-7.75583 21.6304,-13.31257 33.2851,-19.77699 11.2142,-6.16917 22.2914,-13.22271 31.8939,-22.36851 3.8279,-3.66381 7.3658,-7.63397 10.5702,-11.86377 z"
         id="path9735"
         inkscape:connector-curvature="0"
         sodipodi:nodetypes="ccccccccccccccccccccccccccccc" />
      <path
         style="fill:#008000;fill-rule:evenodd;stroke:none"
         d="m 1188.9514,622.19855 0,5 100,-65 z"
         id="path9737"
         inkscape:connector-curvature="0"
         sodipodi:nodetypes="cccc" />
      <g
         transform="matrix(0.70880106,0,0,0.70880106,857.38609,292.85415)"
         id="g9739">
        <g
           id="g9741"
           transform="translate(93,44)">
          <path
             sodipodi:nodetypes="ccccccccccc"
             inkscape:connector-curvature="0"
             id="path9743"
             d="m 418,348 c 6,-6 7,-5 9,-12 1,-7 1.42521,-14.76214 -2,-19 -3.21388,-4.29463 -4.20389,-3.96344 -7,-6 -2,-2 -2.14639,-3.16701 -3,-5.76303 -0.85361,2.59602 -1,3.76303 -3,5.76303 -2.79611,2.03656 -3.78612,1.70537 -7,6 -3.42521,4.23786 -3,12 -2,19 2,7 3,6 9,12 2,3 1.15164,4.05055 3,6.08053 C 416.84836,352.05055 416,351 418,348 z"
             style="fill:url(#linearGradient9853);fill-opacity:1;stroke:none"
             inkscape:transform-center-y="-21.34125"
             inkscape:tile-cx="415"
             inkscape:tile-cy="351"
             inkscape:tile-w="25.429126"
             inkscape:tile-h="48.84356"
             inkscape:tile-x0="402.28544"
             inkscape:tile-y0="305.23697" />
          <path
             inkscape:tile-y0="305.23697"
             inkscape:tile-x0="402.28544"
             inkscape:transform-center-y="-21.34125"
             style="fill:url(#linearGradient9855);fill-opacity:1;stroke:none"
             d="m 419.09808,352.09808 c 8.19615,2.19615 7.83013,3.56217 14.89231,1.79423 6.56217,-2.63398 13.49699,-6.14681 15.45448,-11.23206 2.11232,-4.93061 1.33049,-5.62239 1.69615,-9.06217 0.73205,-2.73205 1.66952,-3.44234 3.49093,-5.47959 -2.67502,0.55876 -3.75888,1.01549 -6.49093,0.28343 -3.16177,-1.40322 -3.36995,-2.42619 -8.69615,-3.06217 -5.3827,-0.84739 -11.89231,3.40192 -17.45448,7.76795 -5.06218,5.23205 -3.69616,5.59807 -5.89231,13.79422 -1.59808,3.23206 -2.93206,3.02263 -3.76589,5.63835 2.68219,0.58573 3.16781,-0.67424 6.76589,-0.44219 z"
             id="path9745"
             inkscape:connector-curvature="0"
             sodipodi:nodetypes="ccccccccccc" />
          <path
             inkscape:tile-y0="305.23697"
             inkscape:tile-x0="402.28544"
             inkscape:transform-center-y="-21.34125"
             style="fill:url(#linearGradient9857);fill-opacity:1;stroke:none"
             d="m 416.09808,355.09808 c 2.19615,8.19615 0.83013,8.56217 5.89231,13.79423 5.56217,4.36602 12.07178,8.61533 17.45448,7.76794 5.3262,-0.63598 5.53438,-1.65895 8.69615,-3.06217 2.73205,-0.73205 3.81591,-0.27533 6.49093,0.28344 -1.82141,-2.03726 -2.75888,-2.74754 -3.49093,-5.4796 -0.36566,-3.43978 0.41617,-4.13156 -1.69615,-9.06217 -1.95749,-5.08525 -8.89231,-8.59808 -15.45448,-11.23205 -7.06218,-1.76795 -6.69616,-0.40193 -14.89231,1.79422 -3.59808,0.23206 -4.0837,-1.02792 -6.76589,-0.44218 0.83383,2.61571 2.16781,2.40629 3.76589,5.63834 z"
             id="path9747"
             inkscape:connector-curvature="0"
             sodipodi:nodetypes="ccccccccccc" />
          <path
             inkscape:tile-y0="305.23697"
             inkscape:tile-x0="402.28544"
             inkscape:transform-center-y="-21.34125"
             style="fill:url(#linearGradient9859);fill-opacity:1;stroke:none"
             d="m 412,354 c -6,6 -7,5 -9,12 -1,7 -1.42521,14.76214 2,19 3.21388,4.29463 4.20389,3.96344 7,6 2,2 2.14639,3.16701 3,5.76303 0.85361,-2.59602 1,-3.76303 3,-5.76303 2.79611,-2.03656 3.78612,-1.70537 7,-6 3.42521,-4.23786 3,-12 2,-19 -2,-7 -3,-6 -9,-12 -2,-3 -1.15164,-4.05055 -3,-6.08053 C 413.15164,349.94945 414,351 412,354 z"
             id="path9749"
             inkscape:connector-curvature="0"
             sodipodi:nodetypes="ccccccccccc" />
          <path
             inkscape:tile-y0="305.23697"
             inkscape:tile-x0="402.28544"
             inkscape:transform-center-y="-21.34125"
             style="fill:url(#linearGradient9861);fill-opacity:1;stroke:none"
             d="m 410.90192,349.90192 c -8.19615,-2.19615 -7.83013,-3.56218 -14.89231,-1.79423 -6.56217,2.63398 -13.49699,6.14681 -15.45448,11.23205 -2.11232,4.93062 -1.33049,5.6224 -1.69615,9.06218 -0.73205,2.73205 -1.66952,3.44234 -3.49093,5.47959 2.67502,-0.55876 3.75888,-1.01549 6.49093,-0.28343 3.16177,1.40322 3.36995,2.42619 8.69615,3.06217 5.3827,0.84739 11.89231,-3.40192 17.45448,-7.76795 5.06218,-5.23205 3.69616,-5.59807 5.89231,-13.79422 1.59808,-3.23206 2.93206,-3.02263 3.76589,-5.63835 -2.68219,-0.58573 -3.16781,0.67424 -6.76589,0.44219 z"
             id="path9751"
             inkscape:connector-curvature="0"
             sodipodi:nodetypes="ccccccccccc" />
          <path
             inkscape:tile-y0="305.23697"
             inkscape:tile-x0="402.28544"
             inkscape:transform-center-y="-21.34125"
             style="fill:url(#linearGradient9863);fill-opacity:1;stroke:none"
             d="m 413.90192,346.90192 c -2.19615,-8.19615 -0.83012,-8.56218 -5.8923,-13.79423 -5.56218,-4.36602 -12.07179,-8.61533 -17.45449,-7.76795 -5.32619,0.63599 -5.53438,1.65896 -8.69615,3.06218 -2.73205,0.73205 -3.8159,0.27533 -6.49093,-0.28344 1.82142,2.03726 2.75888,2.74754 3.49093,5.4796 0.36566,3.43978 -0.41616,4.13156 1.69615,9.06217 1.95749,5.08525 8.89231,8.59808 15.45449,11.23205 7.06218,1.76795 6.69615,0.40193 14.8923,-1.79422 3.59808,-0.23206 4.0837,1.02792 6.7659,0.44218 -0.83384,-2.61571 -2.16782,-2.40629 -3.7659,-5.63834 z"
             id="path9753"
             inkscape:connector-curvature="0"
             sodipodi:nodetypes="ccccccccccc" />
        </g>
        <path
           sodipodi:type="star"
           style="fill:#ee395c;fill-opacity:1;fill-rule:nonzero;stroke:none"
           id="path9755"
           sodipodi:sides="10"
           sodipodi:cx="200"
           sodipodi:cy="180"
           sodipodi:r1="44.721359"
           sodipodi:r2="25.827057"
           sodipodi:arg1="0.46364761"
           sodipodi:arg2="0.77780687"
           inkscape:flatsided="false"
           inkscape:rounded="0"
           inkscape:randomized="0"
           d="m 240,200 -21.5994,-1.87667 2.20437,21.56842 -16.3712,-14.21407 -10.89422,18.74492 -4.88976,-21.12218 -19.8316,8.7615 8.45941,-19.96233 -21.19398,-4.56852 18.57736,-11.17755 L 160,160 l 21.5994,1.87667 -2.20437,-21.56842 16.3712,14.21407 10.89422,-18.74492 4.88976,21.12218 19.8316,-8.7615 -8.45941,19.96233 21.19398,4.56852 -18.57736,11.17755 z"
           transform="matrix(0.27301664,0,0,0.22975617,453.39667,353.64389)" />
      </g>
      <g
         style="display:inline"
         id="g9757"
         transform="matrix(0.39984806,0,0,0.39984806,1081.0304,418.26085)">
        <g
           transform="translate(93,44)"
           id="g9759">
          <path
             inkscape:tile-y0="305.23697"
             inkscape:tile-x0="402.28544"
             inkscape:tile-h="48.84356"
             inkscape:tile-w="25.429126"
             inkscape:tile-cy="351"
             inkscape:tile-cx="415"
             inkscape:transform-center-y="-21.34125"
             style="fill:url(#linearGradient9865);fill-opacity:1;stroke:none"
             d="m 418,348 c 6,-6 7,-5 9,-12 1,-7 1.42521,-14.76214 -2,-19 -3.21388,-4.29463 -4.20389,-3.96344 -7,-6 -2,-2 -2.14639,-3.16701 -3,-5.76303 -0.85361,2.59602 -1,3.76303 -3,5.76303 -2.79611,2.03656 -3.78612,1.70537 -7,6 -3.42521,4.23786 -3,12 -2,19 2,7 3,6 9,12 2,3 1.15164,4.05055 3,6.08053 C 416.84836,352.05055 416,351 418,348 z"
             id="path9761"
             inkscape:connector-curvature="0"
             sodipodi:nodetypes="ccccccccccc" />
          <path
             sodipodi:nodetypes="ccccccccccc"
             inkscape:connector-curvature="0"
             id="path9763"
             d="m 419.09808,352.09808 c 8.19615,2.19615 7.83013,3.56217 14.89231,1.79423 6.56217,-2.63398 13.49699,-6.14681 15.45448,-11.23206 2.11232,-4.93061 1.33049,-5.62239 1.69615,-9.06217 0.73205,-2.73205 1.66952,-3.44234 3.49093,-5.47959 -2.67502,0.55876 -3.75888,1.01549 -6.49093,0.28343 -3.16177,-1.40322 -3.36995,-2.42619 -8.69615,-3.06217 -5.3827,-0.84739 -11.89231,3.40192 -17.45448,7.76795 -5.06218,5.23205 -3.69616,5.59807 -5.89231,13.79422 -1.59808,3.23206 -2.93206,3.02263 -3.76589,5.63835 2.68219,0.58573 3.16781,-0.67424 6.76589,-0.44219 z"
             style="fill:url(#linearGradient9867);fill-opacity:1;stroke:none"
             inkscape:transform-center-y="-21.34125"
             inkscape:tile-x0="402.28544"
             inkscape:tile-y0="305.23697" />
          <path
             sodipodi:nodetypes="ccccccccccc"
             inkscape:connector-curvature="0"
             id="path9765"
             d="m 416.09808,355.09808 c 2.19615,8.19615 0.83013,8.56217 5.89231,13.79423 5.56217,4.36602 12.07178,8.61533 17.45448,7.76794 5.3262,-0.63598 5.53438,-1.65895 8.69615,-3.06217 2.73205,-0.73205 3.81591,-0.27533 6.49093,0.28344 -1.82141,-2.03726 -2.75888,-2.74754 -3.49093,-5.4796 -0.36566,-3.43978 0.41617,-4.13156 -1.69615,-9.06217 -1.95749,-5.08525 -8.89231,-8.59808 -15.45448,-11.23205 -7.06218,-1.76795 -6.69616,-0.40193 -14.89231,1.79422 -3.59808,0.23206 -4.0837,-1.02792 -6.76589,-0.44218 0.83383,2.61571 2.16781,2.40629 3.76589,5.63834 z"
             style="fill:url(#linearGradient9869);fill-opacity:1;stroke:none"
             inkscape:transform-center-y="-21.34125"
             inkscape:tile-x0="402.28544"
             inkscape:tile-y0="305.23697" />
          <path
             sodipodi:nodetypes="ccccccccccc"
             inkscape:connector-curvature="0"
             id="path9767"
             d="m 412,354 c -6,6 -7,5 -9,12 -1,7 -1.42521,14.76214 2,19 3.21388,4.29463 4.20389,3.96344 7,6 2,2 2.14639,3.16701 3,5.76303 0.85361,-2.59602 1,-3.76303 3,-5.76303 2.79611,-2.03656 3.78612,-1.70537 7,-6 3.42521,-4.23786 3,-12 2,-19 -2,-7 -3,-6 -9,-12 -2,-3 -1.15164,-4.05055 -3,-6.08053 C 413.15164,349.94945 414,351 412,354 z"
             style="fill:url(#linearGradient9871);fill-opacity:1;stroke:none"
             inkscape:transform-center-y="-21.34125"
             inkscape:tile-x0="402.28544"
             inkscape:tile-y0="305.23697" />
          <path
             sodipodi:nodetypes="ccccccccccc"
             inkscape:connector-curvature="0"
             id="path9769"
             d="m 410.90192,349.90192 c -8.19615,-2.19615 -7.83013,-3.56218 -14.89231,-1.79423 -6.56217,2.63398 -13.49699,6.14681 -15.45448,11.23205 -2.11232,4.93062 -1.33049,5.6224 -1.69615,9.06218 -0.73205,2.73205 -1.66952,3.44234 -3.49093,5.47959 2.67502,-0.55876 3.75888,-1.01549 6.49093,-0.28343 3.16177,1.40322 3.36995,2.42619 8.69615,3.06217 5.3827,0.84739 11.89231,-3.40192 17.45448,-7.76795 5.06218,-5.23205 3.69616,-5.59807 5.89231,-13.79422 1.59808,-3.23206 2.93206,-3.02263 3.76589,-5.63835 -2.68219,-0.58573 -3.16781,0.67424 -6.76589,0.44219 z"
             style="fill:url(#linearGradient9873);fill-opacity:1;stroke:none"
             inkscape:transform-center-y="-21.34125"
             inkscape:tile-x0="402.28544"
             inkscape:tile-y0="305.23697" />
          <path
             sodipodi:nodetypes="ccccccccccc"
             inkscape:connector-curvature="0"
             id="path9771"
             d="m 413.90192,346.90192 c -2.19615,-8.19615 -0.83012,-8.56218 -5.8923,-13.79423 -5.56218,-4.36602 -12.07179,-8.61533 -17.45449,-7.76795 -5.32619,0.63599 -5.53438,1.65896 -8.69615,3.06218 -2.73205,0.73205 -3.8159,0.27533 -6.49093,-0.28344 1.82142,2.03726 2.75888,2.74754 3.49093,5.4796 0.36566,3.43978 -0.41616,4.13156 1.69615,9.06217 1.95749,5.08525 8.89231,8.59808 15.45449,11.23205 7.06218,1.76795 6.69615,0.40193 14.8923,-1.79422 3.59808,-0.23206 4.0837,1.02792 6.7659,0.44218 -0.83384,-2.61571 -2.16782,-2.40629 -3.7659,-5.63834 z"
             style="fill:url(#linearGradient9875);fill-opacity:1;stroke:none"
             inkscape:transform-center-y="-21.34125"
             inkscape:tile-x0="402.28544"
             inkscape:tile-y0="305.23697" />
        </g>
        <path
           transform="matrix(0.27301664,0,0,0.22975617,453.39667,353.64389)"
           d="m 240,200 -21.5994,-1.87667 2.20437,21.56842 -16.3712,-14.21407 -10.89422,18.74492 -4.88976,-21.12218 -19.8316,8.7615 8.45941,-19.96233 -21.19398,-4.56852 18.57736,-11.17755 L 160,160 l 21.5994,1.87667 -2.20437,-21.56842 16.3712,14.21407 10.89422,-18.74492 4.88976,21.12218 19.8316,-8.7615 -8.45941,19.96233 21.19398,4.56852 -18.57736,11.17755 z"
           inkscape:randomized="0"
           inkscape:rounded="0"
           inkscape:flatsided="false"
           sodipodi:arg2="0.77780687"
           sodipodi:arg1="0.46364761"
           sodipodi:r2="25.827057"
           sodipodi:r1="44.721359"
           sodipodi:cy="180"
           sodipodi:cx="200"
           sodipodi:sides="10"
           id="path9773"
           style="fill:#ee395c;fill-opacity:1;fill-rule:nonzero;stroke:none"
           sodipodi:type="star" />
      </g>
      <g
         style="display:inline"
         id="g9775"
         transform="matrix(0.39984806,0,0,0.39984806,968.61658,384.61193)">
        <g
           transform="translate(93,44)"
           id="g9777">
          <path
             inkscape:tile-y0="305.23697"
             inkscape:tile-x0="402.28544"
             inkscape:tile-h="48.84356"
             inkscape:tile-w="25.429126"
             inkscape:tile-cy="351"
             inkscape:tile-cx="415"
             inkscape:transform-center-y="-21.34125"
             style="fill:url(#linearGradient9877);fill-opacity:1;stroke:none"
             d="m 418,348 c 6,-6 7,-5 9,-12 1,-7 1.42521,-14.76214 -2,-19 -3.21388,-4.29463 -4.20389,-3.96344 -7,-6 -2,-2 -2.14639,-3.16701 -3,-5.76303 -0.85361,2.59602 -1,3.76303 -3,5.76303 -2.79611,2.03656 -3.78612,1.70537 -7,6 -3.42521,4.23786 -3,12 -2,19 2,7 3,6 9,12 2,3 1.15164,4.05055 3,6.08053 C 416.84836,352.05055 416,351 418,348 z"
             id="path9779"
             inkscape:connector-curvature="0"
             sodipodi:nodetypes="ccccccccccc" />
          <path
             sodipodi:nodetypes="ccccccccccc"
             inkscape:connector-curvature="0"
             id="path9781"
             d="m 419.09808,352.09808 c 8.19615,2.19615 7.83013,3.56217 14.89231,1.79423 6.56217,-2.63398 13.49699,-6.14681 15.45448,-11.23206 2.11232,-4.93061 1.33049,-5.62239 1.69615,-9.06217 0.73205,-2.73205 1.66952,-3.44234 3.49093,-5.47959 -2.67502,0.55876 -3.75888,1.01549 -6.49093,0.28343 -3.16177,-1.40322 -3.36995,-2.42619 -8.69615,-3.06217 -5.3827,-0.84739 -11.89231,3.40192 -17.45448,7.76795 -5.06218,5.23205 -3.69616,5.59807 -5.89231,13.79422 -1.59808,3.23206 -2.93206,3.02263 -3.76589,5.63835 2.68219,0.58573 3.16781,-0.67424 6.76589,-0.44219 z"
             style="fill:url(#linearGradient9879);fill-opacity:1;stroke:none"
             inkscape:transform-center-y="-21.34125"
             inkscape:tile-x0="402.28544"
             inkscape:tile-y0="305.23697" />
          <path
             sodipodi:nodetypes="ccccccccccc"
             inkscape:connector-curvature="0"
             id="path9783"
             d="m 416.09808,355.09808 c 2.19615,8.19615 0.83013,8.56217 5.89231,13.79423 5.56217,4.36602 12.07178,8.61533 17.45448,7.76794 5.3262,-0.63598 5.53438,-1.65895 8.69615,-3.06217 2.73205,-0.73205 3.81591,-0.27533 6.49093,0.28344 -1.82141,-2.03726 -2.75888,-2.74754 -3.49093,-5.4796 -0.36566,-3.43978 0.41617,-4.13156 -1.69615,-9.06217 -1.95749,-5.08525 -8.89231,-8.59808 -15.45448,-11.23205 -7.06218,-1.76795 -6.69616,-0.40193 -14.89231,1.79422 -3.59808,0.23206 -4.0837,-1.02792 -6.76589,-0.44218 0.83383,2.61571 2.16781,2.40629 3.76589,5.63834 z"
             style="fill:url(#linearGradient9881);fill-opacity:1;stroke:none"
             inkscape:transform-center-y="-21.34125"
             inkscape:tile-x0="402.28544"
             inkscape:tile-y0="305.23697" />
          <path
             sodipodi:nodetypes="ccccccccccc"
             inkscape:connector-curvature="0"
             id="path9785"
             d="m 412,354 c -6,6 -7,5 -9,12 -1,7 -1.42521,14.76214 2,19 3.21388,4.29463 4.20389,3.96344 7,6 2,2 2.14639,3.16701 3,5.76303 0.85361,-2.59602 1,-3.76303 3,-5.76303 2.79611,-2.03656 3.78612,-1.70537 7,-6 3.42521,-4.23786 3,-12 2,-19 -2,-7 -3,-6 -9,-12 -2,-3 -1.15164,-4.05055 -3,-6.08053 C 413.15164,349.94945 414,351 412,354 z"
             style="fill:url(#linearGradient9883);fill-opacity:1;stroke:none"
             inkscape:transform-center-y="-21.34125"
             inkscape:tile-x0="402.28544"
             inkscape:tile-y0="305.23697" />
          <path
             sodipodi:nodetypes="ccccccccccc"
             inkscape:connector-curvature="0"
             id="path9787"
             d="m 410.90192,349.90192 c -8.19615,-2.19615 -7.83013,-3.56218 -14.89231,-1.79423 -6.56217,2.63398 -13.49699,6.14681 -15.45448,11.23205 -2.11232,4.93062 -1.33049,5.6224 -1.69615,9.06218 -0.73205,2.73205 -1.66952,3.44234 -3.49093,5.47959 2.67502,-0.55876 3.75888,-1.01549 6.49093,-0.28343 3.16177,1.40322 3.36995,2.42619 8.69615,3.06217 5.3827,0.84739 11.89231,-3.40192 17.45448,-7.76795 5.06218,-5.23205 3.69616,-5.59807 5.89231,-13.79422 1.59808,-3.23206 2.93206,-3.02263 3.76589,-5.63835 -2.68219,-0.58573 -3.16781,0.67424 -6.76589,0.44219 z"
             style="fill:url(#linearGradient9885);fill-opacity:1;stroke:none"
             inkscape:transform-center-y="-21.34125"
             inkscape:tile-x0="402.28544"
             inkscape:tile-y0="305.23697" />
          <path
             sodipodi:nodetypes="ccccccccccc"
             inkscape:connector-curvature="0"
             id="path9789"
             d="m 413.90192,346.90192 c -2.19615,-8.19615 -0.83012,-8.56218 -5.8923,-13.79423 -5.56218,-4.36602 -12.07179,-8.61533 -17.45449,-7.76795 -5.32619,0.63599 -5.53438,1.65896 -8.69615,3.06218 -2.73205,0.73205 -3.8159,0.27533 -6.49093,-0.28344 1.82142,2.03726 2.75888,2.74754 3.49093,5.4796 0.36566,3.43978 -0.41616,4.13156 1.69615,9.06217 1.95749,5.08525 8.89231,8.59808 15.45449,11.23205 7.06218,1.76795 6.69615,0.40193 14.8923,-1.79422 3.59808,-0.23206 4.0837,1.02792 6.7659,0.44218 -0.83384,-2.61571 -2.16782,-2.40629 -3.7659,-5.63834 z"
             style="fill:url(#linearGradient9887);fill-opacity:1;stroke:none"
             inkscape:transform-center-y="-21.34125"
             inkscape:tile-x0="402.28544"
             inkscape:tile-y0="305.23697" />
        </g>
        <path
           transform="matrix(0.27301664,0,0,0.22975617,453.39667,353.64389)"
           d="m 240,200 -21.5994,-1.87667 2.20437,21.56842 -16.3712,-14.21407 -10.89422,18.74492 -4.88976,-21.12218 -19.8316,8.7615 8.45941,-19.96233 -21.19398,-4.56852 18.57736,-11.17755 L 160,160 l 21.5994,1.87667 -2.20437,-21.56842 16.3712,14.21407 10.89422,-18.74492 4.88976,21.12218 19.8316,-8.7615 -8.45941,19.96233 21.19398,4.56852 -18.57736,11.17755 z"
           inkscape:randomized="0"
           inkscape:rounded="0"
           inkscape:flatsided="false"
           sodipodi:arg2="0.77780687"
           sodipodi:arg1="0.46364761"
           sodipodi:r2="25.827057"
           sodipodi:r1="44.721359"
           sodipodi:cy="180"
           sodipodi:cx="200"
           sodipodi:sides="10"
           id="path9791"
           style="fill:#ee395c;fill-opacity:1;fill-rule:nonzero;stroke:none"
           sodipodi:type="star" />
      </g>
    </g>
  </g>
</svg>
