<?xml version="1.0" encoding="UTF-8" standalone="no"?>
<!-- Created with Inkscape (http://www.inkscape.org/) -->

<svg
   xmlns:dc="http://purl.org/dc/elements/1.1/"
   xmlns:cc="http://creativecommons.org/ns#"
   xmlns:rdf="http://www.w3.org/1999/02/22-rdf-syntax-ns#"
   xmlns:svg="http://www.w3.org/2000/svg"
   xmlns="http://www.w3.org/2000/svg"
   xmlns:sodipodi="http://sodipodi.sourceforge.net/DTD/sodipodi-0.dtd"
   xmlns:inkscape="http://www.inkscape.org/namespaces/inkscape"
   width="105.1684"
   height="37.030842"
   id="svg2987"
   version="1.1"
   inkscape:version="0.48.2 r9819"
   sodipodi:docname="MenuItemCifre.svg">
  <defs
     id="defs2989" />
  <sodipodi:namedview
     id="base"
     pagecolor="#ffffff"
     bordercolor="#666666"
     borderopacity="1.0"
     inkscape:pageopacity="0.0"
     inkscape:pageshadow="2"
     inkscape:zoom="2.8031533"
     inkscape:cx="-4.4075968"
     inkscape:cy="6.7429632"
     inkscape:document-units="px"
     inkscape:current-layer="layer1"
     showgrid="false"
     fit-margin-top="0"
     fit-margin-left="0"
     fit-margin-right="0"
     fit-margin-bottom="0"
     inkscape:window-width="1680"
     inkscape:window-height="954"
     inkscape:window-x="-8"
     inkscape:window-y="-8"
     inkscape:window-maximized="1" />
  <metadata
     id="metadata2992">
    <rdf:RDF>
      <cc:Work
         rdf:about="">
        <dc:format>image/svg+xml</dc:format>
        <dc:type
           rdf:resource="http://purl.org/dc/dcmitype/StillImage" />
        <dc:title />
      </cc:Work>
    </rdf:RDF>
  </metadata>
  <g
     inkscape:label="Calque 1"
     inkscape:groupmode="layer"
     id="layer1"
     transform="translate(-11.629198,-890.97192)">
    <rect
       style="fill:#008000;fill-rule:evenodd;stroke:#6bc07c;stroke-width:0.99999994px;stroke-linecap:butt;stroke-linejoin:miter;stroke-opacity:1"
       id="rect2995"
       width="104.1684"
       height="36.030842"
       x="12.129198"
       y="891.47192"
       ry="11.109512" />
    <g
       transform="scale(1.0860383,0.92077784)"
       style="font-size:26.87817192px;font-style:normal;font-weight:normal;line-height:125%;letter-spacing:0px;word-spacing:0px;fill:#ffffff;fill-opacity:1;stroke:none;font-family:Bitstream Vera Sans"
       id="text3765">
      <path
         d="m 46.422139,989.54736 2.546077,0.64308 c -0.533731,2.09111 -1.493977,3.68569 -2.880741,4.78374 -1.386795,1.09805 -3.081991,1.64707 -5.085592,1.64707 -2.073617,0 -3.760063,-0.42215 -5.059343,-1.26647 -1.299291,-0.84432 -2.287973,-2.06705 -2.966049,-3.66819 -0.67808,-1.60113 -1.017119,-3.32039 -1.017118,-5.15777 -1e-6,-2.00361 0.382785,-3.7513 1.14836,-5.24308 0.765569,-1.49176 1.854869,-2.62481 3.267902,-3.39915 1.413022,-0.7743 2.968227,-1.16146 4.66562,-1.16148 1.924857,2e-5 3.543495,0.48998 4.85592,1.4699 1.312394,0.97995 2.226706,2.35798 2.742939,4.13409 l -2.506705,0.59059 c -0.446235,-1.39989 -1.09369,-2.4192 -1.942368,-3.05792 -0.848705,-0.63869 -1.916131,-0.95804 -3.202282,-0.95806 -1.478658,2e-5 -2.714511,0.35437 -3.70756,1.06305 -0.993063,0.70872 -1.690828,1.66022 -2.093295,2.8545 -0.402477,1.1943 -0.603713,2.42578 -0.603709,3.69443 -4e-6,1.63615 0.238417,3.06449 0.715263,4.28502 0.476838,1.22055 1.218349,2.13267 2.224537,2.73638 1.006173,0.60371 2.095473,0.90556 3.267902,0.90556 1.426142,0 2.633558,-0.41122 3.622254,-1.23366 0.988668,-0.82244 1.657997,-2.04298 2.007988,-3.66163 z"
         style=""
         id="path2986" />
      <path
         d="m 51.829272,979.7699 0,-2.71669 2.362339,0 0,2.71669 z m 0,16.52325 0,-13.9378 2.362339,0 0,13.9378 z"
         style=""
         id="path2988" />
      <path
         d="m 58.365077,996.29315 0,-12.10043 -2.086733,0 0,-1.83737 2.086733,0 0,-1.48302 c -2e-6,-0.93617 0.08312,-1.63175 0.249358,-2.08674 0.227482,-0.61244 0.627767,-1.10897 1.200856,-1.48958 0.573082,-0.38058 1.375839,-0.57088 2.408274,-0.5709 0.664948,2e-5 1.399897,0.0788 2.20485,0.23623 l -0.354351,2.06049 c -0.489974,-0.0875 -0.953692,-0.13123 -1.391156,-0.13124 -0.717457,10e-6 -1.224922,0.15313 -1.522396,0.45934 -0.297485,0.30625 -0.446224,0.87933 -0.44622,1.71926 l 0,1.28616 2.716691,0 0,1.83737 -2.716691,0 0,12.10043 z"
         style=""
         id="path2990" />
      <path
         d="m 65.228987,996.29315 0,-13.9378 2.126105,0 0,2.11298 c 0.542459,-0.98867 1.043362,-1.6405 1.50271,-1.95549 0.459338,-0.31497 0.964616,-0.47245 1.515835,-0.47247 0.796188,2e-5 1.605507,0.25375 2.42796,0.7612 l -0.813695,2.19173 c -0.577469,-0.34122 -1.154929,-0.51183 -1.732382,-0.51184 -0.516221,10e-6 -0.979939,0.15531 -1.391156,0.4659 -0.411227,0.31062 -0.704331,0.74152 -0.879315,1.29273 -0.262486,0.83995 -0.393727,1.75863 -0.393723,2.75606 l 0,7.297 z"
         style=""
         id="path2992" />
      <path
         d="m 83.773348,991.80471 2.441084,0.30185 c -0.384987,1.42616 -1.098063,2.53296 -2.13923,3.3204 -1.04119,0.78745 -2.371098,1.18117 -3.989728,1.18117 -2.038617,0 -3.655068,-0.62777 -4.849358,-1.88331 -1.194295,-1.25554 -1.791442,-3.01635 -1.791441,-5.28245 -10e-7,-2.34483 0.603708,-4.16471 1.811127,-5.45963 1.207414,-1.2949 2.773556,-1.94235 4.698431,-1.94237 1.863613,2e-5 3.386008,0.63435 4.567189,1.903 1.181156,1.26867 1.771741,3.05355 1.771754,5.35463 -1.3e-5,0.14 -0.0044,0.34999 -0.01312,0.62996 l -10.394293,0 c 0.08749,1.53115 0.520586,2.70357 1.299287,3.51726 0.778691,0.8137 1.749874,1.22054 2.913552,1.22054 0.866182,0 1.605506,-0.22748 2.217974,-0.68245 0.612448,-0.45497 1.098039,-1.18117 1.456776,-2.1786 z m -7.756348,-3.81912 7.782596,0 c -0.105004,-1.17241 -0.402484,-2.05172 -0.892439,-2.63794 -0.752459,-0.90993 -1.728017,-1.3649 -2.926676,-1.36491 -1.084933,10e-6 -1.997057,0.36311 -2.736377,1.0893 -0.739328,0.72621 -1.148363,1.69739 -1.227104,2.91355 z"
         style=""
         id="path2994" />
    </g>
  </g>
</svg>
