<?xml version="1.0" encoding="UTF-8" standalone="no"?>
<!-- Created with Inkscape (http://www.inkscape.org/) -->

<svg
   xmlns:dc="http://purl.org/dc/elements/1.1/"
   xmlns:cc="http://creativecommons.org/ns#"
   xmlns:rdf="http://www.w3.org/1999/02/22-rdf-syntax-ns#"
   xmlns:svg="http://www.w3.org/2000/svg"
   xmlns="http://www.w3.org/2000/svg"
   xmlns:sodipodi="http://sodipodi.sourceforge.net/DTD/sodipodi-0.dtd"
   xmlns:inkscape="http://www.inkscape.org/namespaces/inkscape"
   width="105.1684"
   height="37.030842"
   id="svg2987"
   version="1.1"
   inkscape:version="0.48.2 r9819"
   sodipodi:docname="MenuItemLettere.svg">
  <defs
     id="defs2989" />
  <sodipodi:namedview
     id="base"
     pagecolor="#ffffff"
     bordercolor="#666666"
     borderopacity="1.0"
     inkscape:pageopacity="0.0"
     inkscape:pageshadow="2"
     inkscape:zoom="11.212613"
     inkscape:cx="56.038756"
     inkscape:cy="-3.4122208"
     inkscape:document-units="px"
     inkscape:current-layer="text3765"
     showgrid="false"
     fit-margin-top="0"
     fit-margin-left="0"
     fit-margin-right="0"
     fit-margin-bottom="0"
     inkscape:window-width="1680"
     inkscape:window-height="954"
     inkscape:window-x="-8"
     inkscape:window-y="-8"
     inkscape:window-maximized="1" />
  <metadata
     id="metadata2992">
    <rdf:RDF>
      <cc:Work
         rdf:about="">
        <dc:format>image/svg+xml</dc:format>
        <dc:type
           rdf:resource="http://purl.org/dc/dcmitype/StillImage" />
        <dc:title />
      </cc:Work>
    </rdf:RDF>
  </metadata>
  <g
     inkscape:label="Calque 1"
     inkscape:groupmode="layer"
     id="layer1"
     transform="translate(-11.629198,-890.97192)">
    <rect
       style="fill:#008000;fill-rule:evenodd;stroke:#6bc07c;stroke-width:0.99999994px;stroke-linecap:butt;stroke-linejoin:miter;stroke-opacity:1"
       id="rect2995"
       width="104.1684"
       height="36.030842"
       x="12.129198"
       y="891.47192"
       ry="11.109512" />
    <g
       transform="scale(1.0860383,0.92077784)"
       style="font-size:26.87817192px;font-style:normal;font-weight:normal;line-height:125%;letter-spacing:0px;word-spacing:0px;fill:#ffffff;fill-opacity:1;stroke:none;font-family:Bitstream Vera Sans"
       id="text3765">
      <path
         d="m 19.204118,996.29315 0,-19.23994 2.546077,0 0,16.96947 9.475606,0 0,2.27047 z"
         style=""
         id="path2986" />
      <path
         d="m 43.509965,991.80471 2.441084,0.30185 c -0.384987,1.42616 -1.098063,2.53296 -2.13923,3.3204 -1.041189,0.78745 -2.371098,1.18117 -3.989728,1.18117 -2.038617,0 -3.655068,-0.62777 -4.849358,-1.88331 -1.194295,-1.25554 -1.791442,-3.01635 -1.791441,-5.28245 -10e-7,-2.34483 0.603708,-4.16471 1.811127,-5.45963 1.207414,-1.2949 2.773556,-1.94235 4.698431,-1.94237 1.863613,2e-5 3.386008,0.63435 4.567189,1.903 1.181156,1.26867 1.771741,3.05355 1.771754,5.35463 -1.3e-5,0.14 -0.0044,0.34999 -0.01312,0.62996 l -10.394293,0 c 0.08749,1.53115 0.520586,2.70357 1.299287,3.51726 0.778691,0.8137 1.749874,1.22054 2.913552,1.22054 0.866182,0 1.605506,-0.22748 2.217974,-0.68245 0.612448,-0.45497 1.098039,-1.18117 1.456776,-2.1786 z m -7.756348,-3.81912 7.782596,0 c -0.105004,-1.17241 -0.402483,-2.05172 -0.892439,-2.63794 -0.752459,-0.90993 -1.728016,-1.3649 -2.926676,-1.36491 -1.084933,10e-6 -1.997057,0.36311 -2.736377,1.0893 -0.739328,0.72621 -1.148363,1.69739 -1.227104,2.91355 z"
         style=""
         id="path2988" />
      <path
         d="m 54.087995,994.18017 0.341227,2.08673 c -0.664962,0.13999 -1.25992,0.20999 -1.784879,0.20999 -0.857446,0 -1.5224,-0.13562 -1.994864,-0.40685 -0.472471,-0.27123 -0.804948,-0.62777 -0.997432,-1.06961 -0.192489,-0.44185 -0.288733,-1.37147 -0.288731,-2.78888 l 0,-8.01883 -1.732382,0 0,-1.83737 1.732382,0 0,-3.45164 2.349216,-1.4174 0,4.86904 2.375463,0 0,1.83737 -2.375463,0 0,8.15008 c -5e-6,0.6737 0.04155,1.1068 0.124679,1.29928 0.08311,0.19249 0.21873,0.34561 0.406847,0.45935 0.188107,0.11374 0.457151,0.17061 0.807133,0.17061 0.262476,0 0.608077,-0.0306 1.036804,-0.0919 z"
         style=""
         id="path2990" />
      <path
         d="m 61.542488,994.18017 0.341226,2.08673 c -0.664961,0.13999 -1.25992,0.20999 -1.784878,0.20999 -0.857447,0 -1.522401,-0.13562 -1.994865,-0.40685 -0.47247,-0.27123 -0.804947,-0.62777 -0.997432,-1.06961 -0.192489,-0.44185 -0.288732,-1.37147 -0.28873,-2.78888 l 0,-8.01883 -1.732382,0 0,-1.83737 1.732382,0 0,-3.45164 2.349215,-1.4174 0,4.86904 2.375464,0 0,1.83737 -2.375464,0 0,8.15008 c -4e-6,0.6737 0.04156,1.1068 0.124679,1.29928 0.08311,0.19249 0.21873,0.34561 0.406848,0.45935 0.188106,0.11374 0.45715,0.17061 0.807132,0.17061 0.262476,0 0.608077,-0.0306 1.036805,-0.0919 z"
         style=""
         id="path2992" />
      <path
         d="m 73.380434,991.80471 2.441084,0.30185 c -0.384987,1.42616 -1.098063,2.53296 -2.13923,3.3204 -1.041189,0.78745 -2.371098,1.18117 -3.989728,1.18117 -2.038617,0 -3.655068,-0.62777 -4.849358,-1.88331 -1.194295,-1.25554 -1.791442,-3.01635 -1.791441,-5.28245 -10e-7,-2.34483 0.603708,-4.16471 1.811127,-5.45963 1.207414,-1.2949 2.773556,-1.94235 4.698431,-1.94237 1.863614,2e-5 3.386009,0.63435 4.567189,1.903 1.181156,1.26867 1.771741,3.05355 1.771755,5.35463 -1.4e-5,0.14 -0.0044,0.34999 -0.01313,0.62996 l -10.394293,0 c 0.08749,1.53115 0.520586,2.70357 1.299287,3.51726 0.778692,0.8137 1.749875,1.22054 2.913552,1.22054 0.866182,0 1.605506,-0.22748 2.217974,-0.68245 0.612448,-0.45497 1.098039,-1.18117 1.456776,-2.1786 z m -7.756348,-3.81912 7.782596,0 c -0.105004,-1.17241 -0.402483,-2.05172 -0.892439,-2.63794 -0.752459,-0.90993 -1.728016,-1.3649 -2.926676,-1.36491 -1.084933,10e-6 -1.997057,0.36311 -2.736376,1.0893 -0.739329,0.72621 -1.148364,1.69739 -1.227105,2.91355 z"
         style=""
         id="path2994" />
      <path
         d="m 78.774443,996.29315 0,-13.9378 2.126105,0 0,2.11298 c 0.542459,-0.98867 1.043362,-1.6405 1.50271,-1.95549 0.459338,-0.31497 0.964616,-0.47245 1.515835,-0.47247 0.796188,2e-5 1.605507,0.25375 2.42796,0.7612 l -0.813695,2.19173 c -0.577469,-0.34122 -1.154929,-0.51183 -1.732382,-0.51184 -0.516221,10e-6 -0.979939,0.15531 -1.391156,0.4659 -0.411227,0.31062 -0.704331,0.74152 -0.879315,1.29273 -0.262486,0.83995 -0.393727,1.75863 -0.393723,2.75606 l 0,7.297 z"
         style=""
         id="path2996" />
      <path
         d="m 97.318808,991.80471 2.441083,0.30185 c -0.384987,1.42616 -1.098062,2.53296 -2.139229,3.3204 -1.04119,0.78745 -2.371098,1.18117 -3.989729,1.18117 -2.038617,0 -3.655068,-0.62777 -4.849357,-1.88331 -1.194296,-1.25554 -1.791442,-3.01635 -1.791441,-5.28245 -10e-7,-2.34483 0.603707,-4.16471 1.811127,-5.45963 1.207414,-1.2949 2.773556,-1.94235 4.69843,-1.94237 1.863614,2e-5 3.386009,0.63435 4.56719,1.903 1.181156,1.26867 1.77174,3.05355 1.771754,5.35463 -1.4e-5,0.14 -0.0044,0.34999 -0.01312,0.62996 l -10.394293,0 c 0.08749,1.53115 0.520586,2.70357 1.299287,3.51726 0.778691,0.8137 1.749874,1.22054 2.913551,1.22054 0.866183,0 1.605507,-0.22748 2.217975,-0.68245 0.612447,-0.45497 1.098039,-1.18117 1.456776,-2.1786 z m -7.756348,-3.81912 7.782596,0 c -0.105004,-1.17241 -0.402484,-2.05172 -0.89244,-2.63794 -0.752458,-0.90993 -1.728016,-1.3649 -2.926676,-1.36491 -1.084932,10e-6 -1.997057,0.36311 -2.736376,1.0893 -0.739329,0.72621 -1.148363,1.69739 -1.227104,2.91355 z"
         style=""
         id="path2998" />
    </g>
  </g>
</svg>
