<?xml version="1.0" encoding="UTF-8" standalone="no"?>
<!-- Created with Inkscape (http://www.inkscape.org/) -->

<svg
   xmlns:dc="http://purl.org/dc/elements/1.1/"
   xmlns:cc="http://creativecommons.org/ns#"
   xmlns:rdf="http://www.w3.org/1999/02/22-rdf-syntax-ns#"
   xmlns:svg="http://www.w3.org/2000/svg"
   xmlns="http://www.w3.org/2000/svg"
   xmlns:sodipodi="http://sodipodi.sourceforge.net/DTD/sodipodi-0.dtd"
   xmlns:inkscape="http://www.inkscape.org/namespaces/inkscape"
   width="128"
   height="128"
   id="svg2"
   version="1.1"
   inkscape:version="0.48.2 r9819"
   sodipodi:docname="DummyImage.svg">
  <defs
     id="defs4" />
  <sodipodi:namedview
     id="base"
     pagecolor="#ffffff"
     bordercolor="#666666"
     borderopacity="1.0"
     inkscape:pageopacity="0.0"
     inkscape:pageshadow="2"
     inkscape:zoom="3.6503286"
     inkscape:cx="53.478864"
     inkscape:cy="60.981826"
     inkscape:document-units="px"
     inkscape:current-layer="layer1"
     showgrid="true"
     inkscape:window-width="1366"
     inkscape:window-height="712"
     inkscape:window-x="-4"
     inkscape:window-y="-4"
     inkscape:window-maximized="1">
    <inkscape:grid
       type="xygrid"
       id="grid2985"
       empspacing="10"
       visible="true"
       enabled="true"
       snapvisiblegridlinesonly="false"
       empcolor="#ff0e00"
       empopacity="0.25098039"
       spacingx="5px"
       spacingy="5px" />
  </sodipodi:namedview>
  <metadata
     id="metadata7">
    <rdf:RDF>
      <cc:Work
         rdf:about="">
        <dc:format>image/svg+xml</dc:format>
        <dc:type
           rdf:resource="http://purl.org/dc/dcmitype/StillImage" />
        <dc:title />
      </cc:Work>
    </rdf:RDF>
  </metadata>
  <g
     inkscape:label="Layer 1"
     inkscape:groupmode="layer"
     id="layer1"
     transform="translate(0,-924.36218)">
    <rect
       style="fill:#cbded8;stroke:#88716d;stroke-width:1;stroke-linecap:round;stroke-linejoin:miter;stroke-miterlimit:4;stroke-opacity:1;stroke-dasharray:none;stroke-dashoffset:0;fill-opacity:1"
       id="rect2987"
       width="127"
       height="127"
       x="0.5"
       y="924.86218"
       ry="12.499997"
       rx="12.5" />
    <path
       style="font-size:23.5381012px;font-style:normal;font-variant:normal;font-weight:normal;font-stretch:normal;text-align:start;line-height:125%;letter-spacing:0px;word-spacing:0px;writing-mode:lr-tb;text-anchor:start;fill:#725a67;fill-opacity:1;stroke:none;font-family:Swis721 Blk BT;-inkscape-font-specification:Swis721 Blk BT"
       d="m 92.487637,1000.0633 c 1.521686,0 3.043372,0 4.565058,0 0.124411,-3.00261 -4.698768,-2.99475 -4.565058,0 z m 4.29234,3.8323 c 1.636308,0 3.272613,0 4.908923,0 -1.29382,4.3548 -7.143249,4.6948 -10.729469,3.345 -5.166763,-1.9601 -4.636416,-10.53677 0.736727,-11.86041 4.173426,-1.51531 8.933362,0.47247 10.763552,4.50384 1.43975,2.31527 -0.95385,2.94747 -2.775236,2.59977 -2.398946,0 -4.797891,0.01 -7.196837,0.01 -0.256721,2.32 3.209562,3.4006 4.29234,1.4028 z m -20.702841,-2.5511 c -0.454718,5.0254 6.502953,2.2675 3.90438,-1.61753 -1.269318,-2.30888 -4.345938,-0.80089 -3.90438,1.61753 z m -4.256769,7.4417 c 1.691641,0 3.383282,0 5.074923,0 2.120079,3.7381 5.538474,-4.2971 1.879381,-1.4872 -3.527503,1.3331 -7.819473,-1.263 -7.771624,-5.1642 -0.713718,-3.88338 2.667739,-8.10739 6.785981,-6.96907 2.046845,0.34187 3.034527,2.66517 3.144259,0.20748 1.440465,0 2.88093,0 4.321395,0 -0.106639,4.42693 0.241163,8.88869 -0.231777,13.28819 -1.081971,4.2106 -6.537515,4.0358 -9.94549,3.3353 -1.53646,-0.4073 -3.058954,-1.5173 -3.257048,-3.2105 z m -8.276391,-6.7065 c -2.237415,-0.1822 -5.981215,2.8668 -1.821953,2.9062 1.580957,-0.055 2.036023,-1.6081 1.821953,-2.9062 z m 0.474292,5.403 c -0.391472,-2.5917 -3.930909,1.9203 -6.032772,0.3715 -5.513055,-0.4114 -3.828578,-8.40464 1.289852,-7.5858 1.972482,0.5375 6.677963,-1.8903 2.478176,-2.41089 -1.546004,0.95568 -2.903987,1.50799 -5.018528,1.20309 -3.482527,0.77204 -0.49296,-3.89346 1.611405,-3.71495 3.389809,-0.64808 9.546098,-1.18326 10.237658,3.37559 0.138796,2.65686 -0.1697,5.35716 0.165269,7.98726 1.218399,1.4694 -2.196265,0.4932 -3.104162,0.7742 -0.542299,0 -1.084599,0 -1.626898,0 z m -34.030438,0 c 0,-4.0365 0,-8.07299 0,-12.10949 1.553306,0 3.106611,0 4.659917,0 -0.728028,4.01889 3.274519,-1.69893 5.556617,-0.19774 2.282098,1.50119 2.748614,2.67195 4.699943,0.36485 3.127579,-1.63606 8.006834,0.33705 7.304095,4.34723 0,2.53175 0,5.06345 0,7.59515 -1.683736,0 -3.367472,0 -5.051208,0 -0.05535,-2.4864 0.118605,-4.9891 -0.102284,-7.464 -2.305389,-3.32946 -4.096802,1.1021 -3.443048,3.4443 0,1.3399 0,2.6798 0,4.0197 -1.675831,0 -3.351661,0 -5.027492,0 -0.169703,-2.6942 0.400887,-5.5249 -0.420935,-8.10456 -3.08339,-2.03702 -3.376047,2.16256 -3.124397,4.23806 -0.152917,1.2092 0.302229,3.0265 -0.219948,3.8665 -1.61042,0 -3.22084,0 -4.83126,0 z m -8.892971,0 c 0,-5.4699 0,-10.93978 0,-16.40967 1.905072,0 3.810144,0 5.715216,0 0,5.46989 0,10.93977 0,16.40967 -1.905072,0 -3.810144,0 -5.715216,0 z m 79.206521,-23.75111 c 0.28099,-1.06136 -0.571944,-3.25665 0.4399,-3.58716 2.84108,0.69296 2.59393,-2.11302 1.51841,-3.8455 -1.22587,-3.1483 -2.451734,-6.29659 -3.677602,-9.44489 1.731162,0 3.462332,0 5.193492,0 0.75096,2.44715 1.50193,4.89429 2.25289,7.34144 0.7312,-2.44715 1.4624,-4.89429 2.1936,-7.34144 1.60864,0 3.21728,0 4.82592,0 -1.76871,4.93605 -3.31745,9.9571 -5.27057,14.82216 -1.33149,2.89037 -4.95006,2.04025 -7.47604,2.05539 z m -25.042604,-4.76806 c 0,-4.0365 0,-8.07299 0,-12.10949 1.553306,0 3.106611,0 4.659917,0 -0.728031,4.01888 3.192157,-2.25968 5.556616,-0.19774 2.143415,0.90344 2.748593,2.67191 4.699945,0.36484 3.127584,-1.63604 8.006832,0.33706 7.304093,4.34724 0,2.53172 0,5.06343 0,7.59515 -1.683736,0 -3.367471,0 -5.051207,0 -0.05535,-2.48643 0.118604,-4.98911 -0.102284,-7.46403 -2.30537,-3.32944 -4.096812,1.10204 -3.443048,3.44434 0,1.3399 0,2.67979 0,4.01969 -1.675831,0 -3.351662,0 -5.027493,0 -0.169707,-2.69423 0.400892,-5.52491 -0.420934,-8.10456 -3.083344,-2.03701 -3.376069,2.16251 -3.124397,4.23794 -0.152907,1.20928 0.302215,3.02659 -0.219948,3.86662 -1.61042,0 -3.22084,0 -4.83126,0 z m -24.852891,0 c 0,-4.0365 0,-8.07299 0,-12.10949 1.553306,0 3.106611,0 4.659917,0 -0.728031,4.01888 3.274484,-1.69898 5.556616,-0.19774 2.282132,1.50124 2.112536,2.37361 4.699945,0.36484 2.587409,-2.00877 8.006832,0.33706 7.304094,4.34724 0,2.53172 0,5.06343 0,7.59515 -1.683736,0 -3.367472,0 -5.051208,0 -0.05535,-2.48643 0.118604,-4.98911 -0.102284,-7.46403 -2.30537,-3.32944 -4.096812,1.10204 -3.443048,3.44434 0,1.3399 0,2.67979 0,4.01969 -1.675831,0 -3.351662,0 -5.027493,0 -0.169707,-2.69423 0.400892,-5.52491 -0.420934,-8.10456 -3.083344,-2.03701 -3.376069,2.16251 -3.124397,4.23794 -0.152907,1.20928 0.302215,3.02659 -0.219948,3.86662 -1.61042,0 -3.22084,0 -4.83126,0 z M 47.61942,966.85404 c 0,4.0365 0,8.07299 0,12.10949 -1.561211,0 -3.122422,0 -4.683633,0 0.726805,-4.02461 -2.558044,1.4621 -5.629254,0.23117 -3.07121,-1.23093 -3.8258,-4.36241 -3.595722,-7.16848 0,-1.72406 0,-3.44812 0,-5.17218 1.707451,0 3.414902,0 5.122353,0 0.153578,2.71455 -0.366252,5.54136 0.391291,8.1602 3.234345,2.03745 3.515475,-2.38644 3.272613,-4.57215 0.28084,-1.06181 -0.571723,-3.25702 0.439896,-3.58805 1.560819,0 3.121637,0 4.682456,0 z m -27.010919,7.95413 c 2.936458,0.57574 6.019594,-1.2074 5.216094,-4.5668 0.532234,-2.9717 -3.37768,-4.21254 -5.216094,-3.31229 0,2.62636 0,5.25273 0,7.87909 z M 15,978.96353 c 0,-5.4699 0,-10.93979 0,-16.40969 4.109941,0.18357 8.356709,-0.50839 12.340843,0.70289 4.79893,2.1598 5.306168,9.24553 2.363306,13.09197 -3.150155,3.57592 -8.246621,2.40847 -12.484386,2.61483 -0.739921,0 -1.479842,0 -2.219763,0 z"
       id="path3782"
       inkscape:connector-curvature="0"
       sodipodi:nodetypes="ccccccccccccccccccccccccccccccccccccccccczcccccccccccccccccccccccccccccccccccccccccccccczzcccccccccccccczccccccccccccccccc" />
  </g>
</svg>
